<svg width="279" height="343" viewBox="0 0 279 343" fill="none" xmlns="http://www.w3.org/2000/svg">
<g filter="url(#filter0_d_1_10)">
<rect x="7" y="3" width="265" height="329" rx="20" stroke="black" stroke-width="6" shape-rendering="crispEdges"/>
<rect width="104" height="31" transform="translate(26 69)" fill="white"/>
<path d="M48.321 90V79.0909H52.0071C52.8594 79.0909 53.5589 79.2365 54.1058 79.5277C54.6527 79.8153 55.0575 80.2113 55.3203 80.7156C55.5831 81.2198 55.7145 81.7933 55.7145 82.4361C55.7145 83.0788 55.5831 83.6488 55.3203 84.146C55.0575 84.6431 54.6545 85.0337 54.1112 85.3178C53.5678 85.5984 52.8736 85.7386 52.0284 85.7386H49.0455V84.5455H51.9858C52.5682 84.5455 53.0369 84.4602 53.392 84.2898C53.7507 84.1193 54.0099 83.8778 54.1697 83.5653C54.3331 83.2493 54.4148 82.8729 54.4148 82.4361C54.4148 81.9993 54.3331 81.6175 54.1697 81.2908C54.0064 80.9641 53.7454 80.712 53.3867 80.5344C53.0281 80.3533 52.554 80.2628 51.9645 80.2628H49.642V90H48.321ZM53.456 85.0994L56.1406 90H54.6065L51.9645 85.0994H53.456ZM61.0878 90.1705C60.2994 90.1705 59.6194 89.9964 59.0477 89.6484C58.4795 89.2969 58.0409 88.8068 57.732 88.1783C57.4266 87.5462 57.2739 86.8111 57.2739 85.973C57.2739 85.1349 57.4266 84.3963 57.732 83.7571C58.0409 83.1143 58.4706 82.6136 59.021 82.255C59.575 81.8928 60.2213 81.7116 60.96 81.7116C61.3861 81.7116 61.8069 81.7827 62.2224 81.9247C62.6379 82.0668 63.0161 82.2976 63.357 82.6172C63.6979 82.9332 63.9695 83.3523 64.172 83.8743C64.3744 84.3963 64.4756 85.0391 64.4756 85.8026V86.3352H58.1688V85.2486H63.1972C63.1972 84.7869 63.1048 84.375 62.9202 84.0128C62.7391 83.6506 62.4798 83.3647 62.1425 83.1552C61.8087 82.9457 61.4145 82.8409 60.96 82.8409C60.4593 82.8409 60.026 82.9652 59.6602 83.2138C59.298 83.4588 59.0193 83.7784 58.824 84.1726C58.6286 84.5668 58.531 84.9893 58.531 85.4403V86.1648C58.531 86.7827 58.6375 87.3065 58.8506 87.7362C59.0672 88.1623 59.3673 88.4872 59.7508 88.7109C60.1343 88.9311 60.58 89.0412 61.0878 89.0412C61.4181 89.0412 61.7164 88.995 61.9827 88.9027C62.2526 88.8068 62.4852 88.6648 62.6805 88.4766C62.8758 88.2848 63.0267 88.0469 63.1333 87.7628L64.3477 88.1037C64.2199 88.5156 64.0051 88.8778 63.7032 89.1903C63.4014 89.4993 63.0285 89.7408 62.5846 89.9148C62.1407 90.0852 61.6418 90.1705 61.0878 90.1705ZM68.7955 90.1918C68.2771 90.1918 67.8066 90.0941 67.384 89.8988C66.9614 89.6999 66.6258 89.4141 66.3772 89.0412C66.1286 88.6648 66.0044 88.2102 66.0044 87.6776C66.0044 87.2088 66.0967 86.8288 66.2813 86.5376C66.466 86.2429 66.7128 86.0121 67.0218 85.8452C67.3307 85.6783 67.6716 85.554 68.0445 85.4723C68.4209 85.3871 68.7991 85.3196 69.1791 85.2699C69.6762 85.206 70.0793 85.158 70.3882 85.1261C70.7007 85.0906 70.928 85.032 71.07 84.9503C71.2156 84.8686 71.2884 84.7266 71.2884 84.5241V84.4815C71.2884 83.956 71.1446 83.5476 70.857 83.2564C70.5729 82.9652 70.1414 82.8196 69.5626 82.8196C68.9624 82.8196 68.4919 82.951 68.151 83.2138C67.8101 83.4766 67.5704 83.7571 67.4319 84.0554L66.2387 83.6293C66.4518 83.1321 66.7359 82.745 67.091 82.468C67.4497 82.1875 67.8403 81.9922 68.2629 81.8821C68.689 81.7685 69.108 81.7116 69.52 81.7116C69.7828 81.7116 70.0846 81.7436 70.4255 81.8075C70.77 81.8679 71.102 81.994 71.4216 82.1857C71.7448 82.3775 72.0129 82.6669 72.2259 83.054C72.439 83.4411 72.5455 83.9595 72.5455 84.6094V90H71.2884V88.892H71.2245C71.1393 89.0696 70.9972 89.2596 70.7984 89.462C70.5995 89.6644 70.335 89.8366 70.0047 89.9787C69.6744 90.1207 69.2714 90.1918 68.7955 90.1918ZM68.9873 89.0625C69.4845 89.0625 69.9035 88.9648 70.2444 88.7695C70.5889 88.5742 70.8481 88.3221 71.0221 88.0131C71.1997 87.7042 71.2884 87.3793 71.2884 87.0384V85.8878C71.2352 85.9517 71.118 86.0103 70.9369 86.0636C70.7593 86.1133 70.5534 86.1577 70.319 86.1967C70.0882 86.2322 69.8627 86.2642 69.6425 86.2926C69.4259 86.3175 69.2501 86.3388 69.1151 86.3565C68.7884 86.3991 68.483 86.4684 68.199 86.5643C67.9184 86.6566 67.6911 86.7969 67.5171 86.9851C67.3467 87.1697 67.2615 87.4219 67.2615 87.7415C67.2615 88.1783 67.423 88.5085 67.7462 88.7322C68.0729 88.9524 68.4866 89.0625 68.9873 89.0625ZM76.0119 87.017L75.9906 85.4616H76.2463L79.8258 81.8182H81.3812L77.5673 85.6747H77.4608L76.0119 87.017ZM74.84 90V79.0909H76.0971V90H74.84ZM80.0389 90L76.8429 85.9517L77.7377 85.0781L81.6369 90H80.0389ZM86.5574 81.8182V82.8835H82.3174V81.8182H86.5574ZM83.5532 79.858H84.8103V87.6562C84.8103 88.0114 84.8618 88.2777 84.9648 88.4553C85.0713 88.6293 85.2062 88.7464 85.3696 88.8068C85.5365 88.8636 85.7123 88.892 85.8969 88.892C86.0354 88.892 86.1491 88.8849 86.2378 88.8707C86.3266 88.853 86.3976 88.8388 86.4509 88.8281L86.7066 89.9574C86.6214 89.9893 86.5024 90.0213 86.3497 90.0533C86.197 90.0888 86.0035 90.1065 85.7691 90.1065C85.414 90.1065 85.066 90.0302 84.7251 89.8775C84.3877 89.7248 84.1072 89.4922 83.8834 89.1797C83.6633 88.8672 83.5532 88.473 83.5532 87.9972V79.858ZM88.4484 90V81.8182H89.7055V90H88.4484ZM89.0876 80.4545C88.8426 80.4545 88.6313 80.3711 88.4537 80.2042C88.2797 80.0373 88.1927 79.8366 88.1927 79.6023C88.1927 79.3679 88.2797 79.1673 88.4537 79.0004C88.6313 78.8335 88.8426 78.75 89.0876 78.75C89.3327 78.75 89.5422 78.8335 89.7162 79.0004C89.8937 79.1673 89.9825 79.3679 89.9825 79.6023C89.9825 79.8366 89.8937 80.0373 89.7162 80.2042C89.5422 80.3711 89.3327 80.4545 89.0876 80.4545ZM95.3319 90.1705C94.5932 90.1705 93.9451 89.9947 93.3876 89.6431C92.8336 89.2915 92.4004 88.7997 92.0879 88.1676C91.7789 87.5355 91.6245 86.7969 91.6245 85.9517C91.6245 85.0994 91.7789 84.3555 92.0879 83.7198C92.4004 83.0842 92.8336 82.5906 93.3876 82.239C93.9451 81.8874 94.5932 81.7116 95.3319 81.7116C96.0705 81.7116 96.7168 81.8874 97.2708 82.239C97.8283 82.5906 98.2615 83.0842 98.5705 83.7198C98.883 84.3555 99.0392 85.0994 99.0392 85.9517C99.0392 86.7969 98.883 87.5355 98.5705 88.1676C98.2615 88.7997 97.8283 89.2915 97.2708 89.6431C96.7168 89.9947 96.0705 90.1705 95.3319 90.1705ZM95.3319 89.0412C95.8929 89.0412 96.3546 88.8974 96.7168 88.6097C97.079 88.3221 97.3471 87.9439 97.5211 87.4751C97.6951 87.0064 97.7821 86.4986 97.7821 85.9517C97.7821 85.4048 97.6951 84.8952 97.5211 84.4229C97.3471 83.9506 97.079 83.5689 96.7168 83.2777C96.3546 82.9865 95.8929 82.8409 95.3319 82.8409C94.7708 82.8409 94.3091 82.9865 93.9469 83.2777C93.5847 83.5689 93.3166 83.9506 93.1426 84.4229C92.9686 84.8952 92.8816 85.4048 92.8816 85.9517C92.8816 86.4986 92.9686 87.0064 93.1426 87.4751C93.3166 87.9439 93.5847 88.3221 93.9469 88.6097C94.3091 88.8974 94.7708 89.0412 95.3319 89.0412ZM102.215 85.0781V90H100.958V81.8182H102.173V83.0966H102.279C102.471 82.6811 102.762 82.3473 103.153 82.0952C103.543 81.8395 104.048 81.7116 104.666 81.7116C105.22 81.7116 105.704 81.8253 106.12 82.0526C106.535 82.2763 106.858 82.6172 107.089 83.0753C107.32 83.5298 107.435 84.1051 107.435 84.8011V90H106.178V84.8864C106.178 84.2436 106.011 83.7429 105.678 83.3842C105.344 83.022 104.886 82.8409 104.303 82.8409C103.902 82.8409 103.543 82.9279 103.227 83.1019C102.915 83.2759 102.668 83.5298 102.487 83.8636C102.306 84.1974 102.215 84.6023 102.215 85.0781Z" fill="black"/>
<rect width="104" height="31" transform="translate(150 69)" fill="white"/>
<path d="M154.321 90V79.0909H155.642V84.5028H155.77L160.67 79.0909H162.396L157.815 84.0128L162.396 90H160.798L157.006 84.929L155.642 86.4631V90H154.321ZM166.659 90.1705C165.92 90.1705 165.272 89.9947 164.715 89.6431C164.161 89.2915 163.728 88.7997 163.415 88.1676C163.106 87.5355 162.952 86.7969 162.952 85.9517C162.952 85.0994 163.106 84.3555 163.415 83.7198C163.728 83.0842 164.161 82.5906 164.715 82.239C165.272 81.8874 165.92 81.7116 166.659 81.7116C167.398 81.7116 168.044 81.8874 168.598 82.239C169.155 82.5906 169.589 83.0842 169.898 83.7198C170.21 84.3555 170.366 85.0994 170.366 85.9517C170.366 86.7969 170.21 87.5355 169.898 88.1676C169.589 88.7997 169.155 89.2915 168.598 89.6431C168.044 89.9947 167.398 90.1705 166.659 90.1705ZM166.659 89.0412C167.22 89.0412 167.682 88.8974 168.044 88.6097C168.406 88.3221 168.674 87.9439 168.848 87.4751C169.022 87.0064 169.109 86.4986 169.109 85.9517C169.109 85.4048 169.022 84.8952 168.848 84.4229C168.674 83.9506 168.406 83.5689 168.044 83.2777C167.682 82.9865 167.22 82.8409 166.659 82.8409C166.098 82.8409 165.636 82.9865 165.274 83.2777C164.912 83.5689 164.644 83.9506 164.47 84.4229C164.296 84.8952 164.209 85.4048 164.209 85.9517C164.209 86.4986 164.296 87.0064 164.47 87.4751C164.644 87.9439 164.912 88.3221 165.274 88.6097C165.636 88.8974 166.098 89.0412 166.659 89.0412ZM173.542 85.0781V90H172.285V81.8182H173.5V83.0966H173.606C173.798 82.6811 174.089 82.3473 174.48 82.0952C174.871 81.8395 175.375 81.7116 175.993 81.7116C176.547 81.7116 177.031 81.8253 177.447 82.0526C177.862 82.2763 178.186 82.6172 178.416 83.0753C178.647 83.5298 178.763 84.1051 178.763 84.8011V90H177.506V84.8864C177.506 84.2436 177.339 83.7429 177.005 83.3842C176.671 83.022 176.213 82.8409 175.631 82.8409C175.229 82.8409 174.871 82.9279 174.555 83.1019C174.242 83.2759 173.995 83.5298 173.814 83.8636C173.633 84.1974 173.542 84.6023 173.542 85.0781ZM180.825 90V89.0412L185.47 83.0753V82.9901H180.975V81.8182H187.09V82.8196L182.573 88.7429V88.8281H187.239V90H180.825ZM192.371 90.1705C191.583 90.1705 190.903 89.9964 190.331 89.6484C189.763 89.2969 189.324 88.8068 189.015 88.1783C188.71 87.5462 188.557 86.8111 188.557 85.973C188.557 85.1349 188.71 84.3963 189.015 83.7571C189.324 83.1143 189.754 82.6136 190.304 82.255C190.858 81.8928 191.505 81.7116 192.243 81.7116C192.669 81.7116 193.09 81.7827 193.506 81.9247C193.921 82.0668 194.299 82.2976 194.64 82.6172C194.981 82.9332 195.253 83.3523 195.455 83.8743C195.658 84.3963 195.759 85.0391 195.759 85.8026V86.3352H189.452V85.2486H194.48C194.48 84.7869 194.388 84.375 194.203 84.0128C194.022 83.6506 193.763 83.3647 193.426 83.1552C193.092 82.9457 192.698 82.8409 192.243 82.8409C191.742 82.8409 191.309 82.9652 190.943 83.2138C190.581 83.4588 190.302 83.7784 190.107 84.1726C189.912 84.5668 189.814 84.9893 189.814 85.4403V86.1648C189.814 86.7827 189.921 87.3065 190.134 87.7362C190.35 88.1623 190.65 88.4872 191.034 88.7109C191.418 88.9311 191.863 89.0412 192.371 89.0412C192.701 89.0412 193 88.995 193.266 88.9027C193.536 88.8068 193.768 88.6648 193.964 88.4766C194.159 88.2848 194.31 88.0469 194.416 87.7628L195.631 88.1037C195.503 88.5156 195.288 88.8778 194.986 89.1903C194.685 89.4993 194.312 89.7408 193.868 89.9148C193.424 90.0852 192.925 90.1705 192.371 90.1705ZM198.928 85.0781V90H197.671V81.8182H198.886V83.0966H198.992C199.184 82.6811 199.475 82.3473 199.866 82.0952C200.256 81.8395 200.761 81.7116 201.378 81.7116C201.932 81.7116 202.417 81.8253 202.833 82.0526C203.248 82.2763 203.571 82.6172 203.802 83.0753C204.033 83.5298 204.148 84.1051 204.148 84.8011V90H202.891V84.8864C202.891 84.2436 202.724 83.7429 202.391 83.3842C202.057 83.022 201.599 82.8409 201.016 82.8409C200.615 82.8409 200.256 82.9279 199.94 83.1019C199.628 83.2759 199.381 83.5298 199.2 83.8636C199.019 84.1974 198.928 84.6023 198.928 85.0781ZM210.004 81.8182V82.8835H205.764V81.8182H210.004ZM206.999 79.858H208.257V87.6562C208.257 88.0114 208.308 88.2777 208.411 88.4553C208.518 88.6293 208.653 88.7464 208.816 88.8068C208.983 88.8636 209.159 88.892 209.343 88.892C209.482 88.892 209.595 88.8849 209.684 88.8707C209.773 88.853 209.844 88.8388 209.897 88.8281L210.153 89.9574C210.068 89.9893 209.949 90.0213 209.796 90.0533C209.643 90.0888 209.45 90.1065 209.215 90.1065C208.86 90.1065 208.512 90.0302 208.171 89.8775C207.834 89.7248 207.553 89.4922 207.33 89.1797C207.11 88.8672 206.999 88.473 206.999 87.9972V79.858ZM211.895 90V81.8182H213.109V83.054H213.194C213.344 82.6491 213.613 82.3207 214.004 82.0685C214.395 81.8164 214.835 81.6903 215.325 81.6903C215.417 81.6903 215.533 81.6921 215.671 81.6957C215.81 81.6992 215.915 81.7045 215.986 81.7116V82.9901C215.943 82.9794 215.845 82.9634 215.693 82.9421C215.544 82.9173 215.385 82.9048 215.219 82.9048C214.821 82.9048 214.466 82.9883 214.153 83.1552C213.844 83.3185 213.599 83.5458 213.418 83.837C213.241 84.1246 213.152 84.4531 213.152 84.8224V90H211.895ZM219.883 90.1918C219.365 90.1918 218.894 90.0941 218.472 89.8988C218.049 89.6999 217.714 89.4141 217.465 89.0412C217.217 88.6648 217.092 88.2102 217.092 87.6776C217.092 87.2088 217.185 86.8288 217.369 86.5376C217.554 86.2429 217.801 86.0121 218.11 85.8452C218.419 85.6783 218.759 85.554 219.132 85.4723C219.509 85.3871 219.887 85.3196 220.267 85.2699C220.764 85.206 221.167 85.158 221.476 85.1261C221.789 85.0906 222.016 85.032 222.158 84.9503C222.304 84.8686 222.376 84.7266 222.376 84.5241V84.4815C222.376 83.956 222.233 83.5476 221.945 83.2564C221.661 82.9652 221.229 82.8196 220.65 82.8196C220.05 82.8196 219.58 82.951 219.239 83.2138C218.898 83.4766 218.658 83.7571 218.52 84.0554L217.327 83.6293C217.54 83.1321 217.824 82.745 218.179 82.468C218.538 82.1875 218.928 81.9922 219.351 81.8821C219.777 81.7685 220.196 81.7116 220.608 81.7116C220.871 81.7116 221.172 81.7436 221.513 81.8075C221.858 81.8679 222.19 81.994 222.509 82.1857C222.833 82.3775 223.101 82.6669 223.314 83.054C223.527 83.4411 223.633 83.9595 223.633 84.6094V90H222.376V88.892H222.312C222.227 89.0696 222.085 89.2596 221.886 89.462C221.687 89.6644 221.423 89.8366 221.093 89.9787C220.762 90.1207 220.359 90.1918 219.883 90.1918ZM220.075 89.0625C220.572 89.0625 220.991 88.9648 221.332 88.7695C221.677 88.5742 221.936 88.3221 222.11 88.0131C222.288 87.7042 222.376 87.3793 222.376 87.0384V85.8878C222.323 85.9517 222.206 86.0103 222.025 86.0636C221.847 86.1133 221.641 86.1577 221.407 86.1967C221.176 86.2322 220.951 86.2642 220.73 86.2926C220.514 86.3175 220.338 86.3388 220.203 86.3565C219.876 86.3991 219.571 86.4684 219.287 86.5643C219.006 86.6566 218.779 86.7969 218.605 86.9851C218.435 87.1697 218.349 87.4219 218.349 87.7415C218.349 88.1783 218.511 88.5085 218.834 88.7322C219.161 88.9524 219.574 89.0625 220.075 89.0625ZM229.486 81.8182V82.8835H225.246V81.8182H229.486ZM226.482 79.858H227.739V87.6562C227.739 88.0114 227.79 88.2777 227.893 88.4553C228 88.6293 228.135 88.7464 228.298 88.8068C228.465 88.8636 228.641 88.892 228.826 88.892C228.964 88.892 229.078 88.8849 229.167 88.8707C229.255 88.853 229.326 88.8388 229.38 88.8281L229.635 89.9574C229.55 89.9893 229.431 90.0213 229.278 90.0533C229.126 90.0888 228.932 90.1065 228.698 90.1065C228.343 90.1065 227.995 90.0302 227.654 89.8775C227.316 89.7248 227.036 89.4922 226.812 89.1797C226.592 88.8672 226.482 88.473 226.482 87.9972V79.858ZM231.377 90V81.8182H232.634V90H231.377ZM232.016 80.4545C231.771 80.4545 231.56 80.3711 231.382 80.2042C231.208 80.0373 231.121 79.8366 231.121 79.6023C231.121 79.3679 231.208 79.1673 231.382 79.0004C231.56 78.8335 231.771 78.75 232.016 78.75C232.261 78.75 232.471 78.8335 232.645 79.0004C232.822 79.1673 232.911 79.3679 232.911 79.6023C232.911 79.8366 232.822 80.0373 232.645 80.2042C232.471 80.3711 232.261 80.4545 232.016 80.4545ZM238.261 90.1705C237.522 90.1705 236.874 89.9947 236.316 89.6431C235.762 89.2915 235.329 88.7997 235.017 88.1676C234.708 87.5355 234.553 86.7969 234.553 85.9517C234.553 85.0994 234.708 84.3555 235.017 83.7198C235.329 83.0842 235.762 82.5906 236.316 82.239C236.874 81.8874 237.522 81.7116 238.261 81.7116C238.999 81.7116 239.646 81.8874 240.199 82.239C240.757 82.5906 241.19 83.0842 241.499 83.7198C241.812 84.3555 241.968 85.0994 241.968 85.9517C241.968 86.7969 241.812 87.5355 241.499 88.1676C241.19 88.7997 240.757 89.2915 240.199 89.6431C239.646 89.9947 238.999 90.1705 238.261 90.1705ZM238.261 89.0412C238.822 89.0412 239.283 88.8974 239.646 88.6097C240.008 88.3221 240.276 87.9439 240.45 87.4751C240.624 87.0064 240.711 86.4986 240.711 85.9517C240.711 85.4048 240.624 84.8952 240.45 84.4229C240.276 83.9506 240.008 83.5689 239.646 83.2777C239.283 82.9865 238.822 82.8409 238.261 82.8409C237.699 82.8409 237.238 82.9865 236.876 83.2777C236.513 83.5689 236.245 83.9506 236.071 84.4229C235.897 84.8952 235.81 85.4048 235.81 85.9517C235.81 86.4986 235.897 87.0064 236.071 87.4751C236.245 87.9439 236.513 88.3221 236.876 88.6097C237.238 88.8974 237.699 89.0412 238.261 89.0412ZM245.144 85.0781V90H243.887V81.8182H245.101V83.0966H245.208C245.4 82.6811 245.691 82.3473 246.081 82.0952C246.472 81.8395 246.976 81.7116 247.594 81.7116C248.148 81.7116 248.633 81.8253 249.048 82.0526C249.464 82.2763 249.787 82.6172 250.018 83.0753C250.249 83.5298 250.364 84.1051 250.364 84.8011V90H249.107V84.8864C249.107 84.2436 248.94 83.7429 248.606 83.3842C248.273 83.022 247.814 82.8409 247.232 82.8409C246.831 82.8409 246.472 82.9279 246.156 83.1019C245.844 83.2759 245.597 83.5298 245.416 83.8636C245.235 84.1974 245.144 84.6023 245.144 85.0781Z" fill="black"/>
<rect x="90" y="15" width="99" height="18" rx="7" fill="#D9D9D9"/>
<path d="M122.724 19.2628V18.0909H130.906V19.2628H127.476V29H126.155V19.2628H122.724ZM134.069 29.1918C133.551 29.1918 133.08 29.0941 132.657 28.8988C132.235 28.6999 131.899 28.4141 131.651 28.0412C131.402 27.6648 131.278 27.2102 131.278 26.6776C131.278 26.2088 131.37 25.8288 131.555 25.5376C131.739 25.2429 131.986 25.0121 132.295 24.8452C132.604 24.6783 132.945 24.554 133.318 24.4723C133.694 24.3871 134.073 24.3196 134.453 24.2699C134.95 24.206 135.353 24.158 135.662 24.1261C135.974 24.0906 136.201 24.032 136.343 23.9503C136.489 23.8686 136.562 23.7266 136.562 23.5241V23.4815C136.562 22.956 136.418 22.5476 136.13 22.2564C135.846 21.9652 135.415 21.8196 134.836 21.8196C134.236 21.8196 133.765 21.951 133.424 22.2138C133.084 22.4766 132.844 22.7571 132.705 23.0554L131.512 22.6293C131.725 22.1321 132.009 21.745 132.364 21.468C132.723 21.1875 133.114 20.9922 133.536 20.8821C133.962 20.7685 134.381 20.7116 134.793 20.7116C135.056 20.7116 135.358 20.7436 135.699 20.8075C136.043 20.8679 136.375 20.994 136.695 21.1857C137.018 21.3775 137.286 21.6669 137.499 22.054C137.712 22.4411 137.819 22.9595 137.819 23.6094V29H136.562V27.892H136.498C136.413 28.0696 136.271 28.2596 136.072 28.462C135.873 28.6644 135.608 28.8366 135.278 28.9787C134.948 29.1207 134.545 29.1918 134.069 29.1918ZM134.261 28.0625C134.758 28.0625 135.177 27.9648 135.518 27.7695C135.862 27.5742 136.122 27.3221 136.296 27.0131C136.473 26.7042 136.562 26.3793 136.562 26.0384V24.8878C136.509 24.9517 136.391 25.0103 136.21 25.0636C136.033 25.1133 135.827 25.1577 135.592 25.1967C135.362 25.2322 135.136 25.2642 134.916 25.2926C134.699 25.3175 134.524 25.3388 134.389 25.3565C134.062 25.3991 133.756 25.4684 133.472 25.5643C133.192 25.6566 132.965 25.7969 132.791 25.9851C132.62 26.1697 132.535 26.4219 132.535 26.7415C132.535 27.1783 132.696 27.5085 133.02 27.7322C133.346 27.9524 133.76 28.0625 134.261 28.0625ZM143.757 20.8182V21.8835H139.346V20.8182H143.757ZM140.667 29V19.6889C140.667 19.2202 140.778 18.8295 140.998 18.517C141.218 18.2045 141.504 17.9702 141.855 17.8139C142.207 17.6577 142.578 17.5795 142.969 17.5795C143.278 17.5795 143.53 17.6044 143.725 17.6541C143.92 17.7038 144.066 17.75 144.162 17.7926L143.8 18.8793C143.736 18.858 143.647 18.8313 143.533 18.7994C143.423 18.7674 143.278 18.7514 143.096 18.7514C142.681 18.7514 142.381 18.8562 142.196 19.0657C142.015 19.2752 141.925 19.5824 141.925 19.9872V29H140.667ZM148.612 29.1705C147.824 29.1705 147.144 28.9964 146.572 28.6484C146.004 28.2969 145.565 27.8068 145.256 27.1783C144.951 26.5462 144.798 25.8111 144.798 24.973C144.798 24.1349 144.951 23.3963 145.256 22.7571C145.565 22.1143 145.995 21.6136 146.545 21.255C147.099 20.8928 147.746 20.7116 148.484 20.7116C148.911 20.7116 149.331 20.7827 149.747 20.9247C150.162 21.0668 150.54 21.2976 150.881 21.6172C151.222 21.9332 151.494 22.3523 151.696 22.8743C151.899 23.3963 152 24.0391 152 24.8026V25.3352H145.693V24.2486H150.722C150.722 23.7869 150.629 23.375 150.445 23.0128C150.263 22.6506 150.004 22.3647 149.667 22.1552C149.333 21.9457 148.939 21.8409 148.484 21.8409C147.984 21.8409 147.55 21.9652 147.185 22.2138C146.822 22.4588 146.544 22.7784 146.348 23.1726C146.153 23.5668 146.055 23.9893 146.055 24.4403V25.1648C146.055 25.7827 146.162 26.3065 146.375 26.7362C146.592 27.1623 146.892 27.4872 147.275 27.7109C147.659 27.9311 148.104 28.0412 148.612 28.0412C148.942 28.0412 149.241 27.995 149.507 27.9027C149.777 27.8068 150.01 27.6648 150.205 27.4766C150.4 27.2848 150.551 27.0469 150.658 26.7628L151.872 27.1037C151.744 27.5156 151.529 27.8778 151.228 28.1903C150.926 28.4993 150.553 28.7408 150.109 28.9148C149.665 29.0852 149.166 29.1705 148.612 29.1705ZM155.169 18.0909V29H153.912V18.0909H155.169Z" fill="black"/>
<rect width="113" height="30" transform="translate(144 290)" fill="white"/>
<path d="M152.768 310H151.384L155.389 299.091H156.753L160.759 310H159.374L156.114 300.817H156.028L152.768 310ZM153.28 305.739H158.862V306.911H153.28V305.739ZM165.333 301.818V302.884H161.093V301.818H165.333ZM162.329 299.858H163.586V307.656C163.586 308.011 163.637 308.278 163.74 308.455C163.847 308.629 163.982 308.746 164.145 308.807C164.312 308.864 164.488 308.892 164.672 308.892C164.811 308.892 164.924 308.885 165.013 308.871C165.102 308.853 165.173 308.839 165.226 308.828L165.482 309.957C165.397 309.989 165.278 310.021 165.125 310.053C164.972 310.089 164.779 310.107 164.544 310.107C164.189 310.107 163.841 310.03 163.5 309.877C163.163 309.725 162.883 309.492 162.659 309.18C162.439 308.867 162.329 308.473 162.329 307.997V299.858ZM170.566 310.17C169.778 310.17 169.098 309.996 168.526 309.648C167.958 309.297 167.519 308.807 167.21 308.178C166.905 307.546 166.752 306.811 166.752 305.973C166.752 305.135 166.905 304.396 167.21 303.757C167.519 303.114 167.949 302.614 168.5 302.255C169.054 301.893 169.7 301.712 170.438 301.712C170.865 301.712 171.285 301.783 171.701 301.925C172.116 302.067 172.495 302.298 172.835 302.617C173.176 302.933 173.448 303.352 173.65 303.874C173.853 304.396 173.954 305.039 173.954 305.803V306.335H167.647V305.249H172.676C172.676 304.787 172.583 304.375 172.399 304.013C172.218 303.651 171.958 303.365 171.621 303.155C171.287 302.946 170.893 302.841 170.438 302.841C169.938 302.841 169.505 302.965 169.139 303.214C168.777 303.459 168.498 303.778 168.302 304.173C168.107 304.567 168.009 304.989 168.009 305.44V306.165C168.009 306.783 168.116 307.306 168.329 307.736C168.546 308.162 168.846 308.487 169.229 308.711C169.613 308.931 170.059 309.041 170.566 309.041C170.897 309.041 171.195 308.995 171.461 308.903C171.731 308.807 171.964 308.665 172.159 308.477C172.354 308.285 172.505 308.047 172.612 307.763L173.826 308.104C173.698 308.516 173.484 308.878 173.182 309.19C172.88 309.499 172.507 309.741 172.063 309.915C171.619 310.085 171.12 310.17 170.566 310.17ZM175.866 310V301.818H177.081V303.097H177.187C177.358 302.66 177.633 302.321 178.013 302.079C178.393 301.834 178.849 301.712 179.382 301.712C179.922 301.712 180.371 301.834 180.73 302.079C181.092 302.321 181.374 302.66 181.577 303.097H181.662C181.871 302.674 182.186 302.338 182.605 302.09C183.024 301.838 183.526 301.712 184.112 301.712C184.844 301.712 185.442 301.941 185.907 302.399C186.372 302.853 186.605 303.562 186.605 304.524V310H185.348V304.524C185.348 303.92 185.183 303.489 184.853 303.23C184.522 302.971 184.133 302.841 183.686 302.841C183.111 302.841 182.665 303.015 182.349 303.363C182.033 303.707 181.875 304.144 181.875 304.673V310H180.597V304.396C180.597 303.931 180.446 303.556 180.144 303.272C179.842 302.985 179.453 302.841 178.977 302.841C178.65 302.841 178.345 302.928 178.061 303.102C177.78 303.276 177.553 303.517 177.379 303.826C177.209 304.132 177.123 304.485 177.123 304.886V310H175.866ZM192.547 301.818V302.884H188.136V301.818H192.547ZM189.457 310V300.689C189.457 300.22 189.568 299.83 189.788 299.517C190.008 299.205 190.294 298.97 190.645 298.814C190.997 298.658 191.368 298.58 191.759 298.58C192.068 298.58 192.32 298.604 192.515 298.654C192.71 298.704 192.856 298.75 192.952 298.793L192.59 299.879C192.526 299.858 192.437 299.831 192.323 299.799C192.213 299.767 192.068 299.751 191.886 299.751C191.471 299.751 191.171 299.856 190.986 300.066C190.805 300.275 190.715 300.582 190.715 300.987V310H189.457ZM194.309 310V301.818H195.523V303.054H195.608C195.758 302.649 196.028 302.321 196.418 302.069C196.809 301.816 197.249 301.69 197.739 301.69C197.831 301.69 197.947 301.692 198.085 301.696C198.224 301.699 198.329 301.705 198.4 301.712V302.99C198.357 302.979 198.259 302.963 198.107 302.942C197.958 302.917 197.8 302.905 197.633 302.905C197.235 302.905 196.88 302.988 196.567 303.155C196.258 303.319 196.013 303.546 195.832 303.837C195.655 304.125 195.566 304.453 195.566 304.822V310H194.309ZM203.071 310.17C202.283 310.17 201.603 309.996 201.031 309.648C200.463 309.297 200.024 308.807 199.715 308.178C199.41 307.546 199.257 306.811 199.257 305.973C199.257 305.135 199.41 304.396 199.715 303.757C200.024 303.114 200.454 302.614 201.004 302.255C201.558 301.893 202.205 301.712 202.943 301.712C203.369 301.712 203.79 301.783 204.206 301.925C204.621 302.067 204.999 302.298 205.34 302.617C205.681 302.933 205.953 303.352 206.155 303.874C206.358 304.396 206.459 305.039 206.459 305.803V306.335H200.152V305.249H205.181C205.181 304.787 205.088 304.375 204.904 304.013C204.722 303.651 204.463 303.365 204.126 303.155C203.792 302.946 203.398 302.841 202.943 302.841C202.443 302.841 202.009 302.965 201.644 303.214C201.281 303.459 201.003 303.778 200.807 304.173C200.612 304.567 200.514 304.989 200.514 305.44V306.165C200.514 306.783 200.621 307.306 200.834 307.736C201.051 308.162 201.351 308.487 201.734 308.711C202.118 308.931 202.563 309.041 203.071 309.041C203.401 309.041 203.7 308.995 203.966 308.903C204.236 308.807 204.469 308.665 204.664 308.477C204.859 308.285 205.01 308.047 205.117 307.763L206.331 308.104C206.203 308.516 205.988 308.878 205.687 309.19C205.385 309.499 205.012 309.741 204.568 309.915C204.124 310.085 203.625 310.17 203.071 310.17ZM213.954 313.068V308.743H213.847C213.755 308.892 213.623 309.08 213.453 309.308C213.282 309.531 213.039 309.732 212.723 309.909C212.407 310.083 211.986 310.17 211.461 310.17C210.779 310.17 210.177 309.998 209.655 309.654C209.133 309.306 208.725 308.816 208.43 308.184C208.135 307.548 207.988 306.797 207.988 305.93C207.988 305.071 208.135 304.325 208.43 303.693C208.725 303.061 209.135 302.573 209.66 302.228C210.186 301.884 210.793 301.712 211.482 301.712C212.015 301.712 212.436 301.8 212.744 301.978C213.057 302.152 213.295 302.351 213.458 302.575C213.625 302.795 213.755 302.976 213.847 303.118H213.996V301.818H215.211V313.068H213.954ZM211.631 309.041C212.135 309.041 212.562 308.91 212.91 308.647C213.258 308.381 213.522 308.013 213.703 307.544C213.884 307.072 213.975 306.527 213.975 305.909C213.975 305.298 213.886 304.764 213.709 304.306C213.531 303.844 213.268 303.485 212.92 303.23C212.572 302.971 212.143 302.841 211.631 302.841C211.099 302.841 210.655 302.978 210.3 303.251C209.948 303.521 209.683 303.888 209.506 304.354C209.332 304.815 209.245 305.334 209.245 305.909C209.245 306.491 209.334 307.021 209.511 307.496C209.692 307.969 209.959 308.345 210.31 308.626C210.665 308.903 211.106 309.041 211.631 309.041ZM222.668 306.655V301.818H223.925V310H222.668V308.615H222.583C222.391 309.031 222.093 309.384 221.688 309.675C221.283 309.963 220.772 310.107 220.154 310.107C219.643 310.107 219.188 309.995 218.79 309.771C218.393 309.544 218.08 309.203 217.853 308.748C217.626 308.29 217.512 307.713 217.512 307.017V301.818H218.769V306.932C218.769 307.528 218.936 308.004 219.27 308.359C219.607 308.714 220.037 308.892 220.559 308.892C220.871 308.892 221.189 308.812 221.512 308.652C221.839 308.493 222.112 308.248 222.333 307.917C222.556 307.587 222.668 307.166 222.668 306.655ZM229.658 310.17C228.87 310.17 228.19 309.996 227.618 309.648C227.05 309.297 226.611 308.807 226.302 308.178C225.997 307.546 225.844 306.811 225.844 305.973C225.844 305.135 225.997 304.396 226.302 303.757C226.611 303.114 227.041 302.614 227.591 302.255C228.145 301.893 228.792 301.712 229.53 301.712C229.956 301.712 230.377 301.783 230.793 301.925C231.208 302.067 231.586 302.298 231.927 302.617C232.268 302.933 232.54 303.352 232.742 303.874C232.945 304.396 233.046 305.039 233.046 305.803V306.335H226.739V305.249H231.767C231.767 304.787 231.675 304.375 231.491 304.013C231.309 303.651 231.05 303.365 230.713 303.155C230.379 302.946 229.985 302.841 229.53 302.841C229.03 302.841 228.596 302.965 228.231 303.214C227.868 303.459 227.59 303.778 227.394 304.173C227.199 304.567 227.101 304.989 227.101 305.44V306.165C227.101 306.783 227.208 307.306 227.421 307.736C227.638 308.162 227.938 308.487 228.321 308.711C228.705 308.931 229.15 309.041 229.658 309.041C229.988 309.041 230.287 308.995 230.553 308.903C230.823 308.807 231.055 308.665 231.251 308.477C231.446 308.285 231.597 308.047 231.704 307.763L232.918 308.104C232.79 308.516 232.575 308.878 232.274 309.19C231.972 309.499 231.599 309.741 231.155 309.915C230.711 310.085 230.212 310.17 229.658 310.17ZM236.215 305.078V310H234.958V301.818H236.173V303.097H236.279C236.471 302.681 236.762 302.347 237.153 302.095C237.543 301.839 238.048 301.712 238.666 301.712C239.22 301.712 239.704 301.825 240.12 302.053C240.535 302.276 240.858 302.617 241.089 303.075C241.32 303.53 241.435 304.105 241.435 304.801V310H240.178V304.886C240.178 304.244 240.011 303.743 239.678 303.384C239.344 303.022 238.886 302.841 238.303 302.841C237.902 302.841 237.543 302.928 237.227 303.102C236.915 303.276 236.668 303.53 236.487 303.864C236.306 304.197 236.215 304.602 236.215 305.078ZM243.498 310V309.041L248.143 303.075V302.99H243.647V301.818H249.762V302.82L245.245 308.743V308.828H249.912V310H243.498Z" fill="black"/>
<rect width="113" height="30" transform="translate(25 290)" fill="white"/>
<path d="M30.321 310V299.091H34.1349C34.8949 299.091 35.5217 299.222 36.0153 299.485C36.5089 299.744 36.8764 300.094 37.1179 300.534C37.3594 300.971 37.4801 301.456 37.4801 301.989C37.4801 302.457 37.3967 302.844 37.2298 303.15C37.0664 303.455 36.8498 303.697 36.5799 303.874C36.3136 304.052 36.0241 304.183 35.7116 304.268V304.375C36.0455 304.396 36.381 304.513 36.7184 304.727C37.0558 304.94 37.3381 305.245 37.5653 305.643C37.7926 306.04 37.9062 306.527 37.9062 307.102C37.9062 307.649 37.782 308.141 37.5334 308.578C37.2848 309.015 36.8924 309.361 36.3562 309.616C35.82 309.872 35.1222 310 34.2628 310H30.321ZM31.642 308.828H34.2628C35.1257 308.828 35.7383 308.661 36.1005 308.327C36.4663 307.99 36.6491 307.582 36.6491 307.102C36.6491 306.733 36.555 306.392 36.3668 306.08C36.1786 305.763 35.9105 305.511 35.5625 305.323C35.2145 305.131 34.8026 305.036 34.3267 305.036H31.642V308.828ZM31.642 303.885H34.0923C34.4901 303.885 34.8487 303.807 35.1683 303.651C35.4915 303.494 35.7472 303.274 35.9354 302.99C36.1271 302.706 36.223 302.372 36.223 301.989C36.223 301.509 36.0561 301.103 35.7223 300.769C35.3885 300.431 34.8594 300.263 34.1349 300.263H31.642V303.885ZM41.1635 299.091V310H39.9064V299.091H41.1635ZM48.6222 306.655V301.818H49.8794V310H48.6222V308.615H48.537C48.3453 309.031 48.047 309.384 47.6421 309.675C47.2373 309.963 46.7259 310.107 46.108 310.107C45.5967 310.107 45.1421 309.995 44.7444 309.771C44.3467 309.544 44.0342 309.203 43.8069 308.748C43.5796 308.29 43.466 307.713 43.466 307.017V301.818H44.7231V306.932C44.7231 307.528 44.89 308.004 45.2238 308.359C45.5612 308.714 45.9909 308.892 46.5129 308.892C46.8254 308.892 47.1432 308.812 47.4664 308.652C47.7931 308.493 48.0665 308.248 48.2867 307.917C48.5104 307.587 48.6222 307.166 48.6222 306.655ZM55.7401 301.818V302.884H51.5V301.818H55.7401ZM52.7358 299.858H53.9929V307.656C53.9929 308.011 54.0444 308.278 54.1474 308.455C54.2539 308.629 54.3888 308.746 54.5522 308.807C54.7191 308.864 54.8949 308.892 55.0795 308.892C55.218 308.892 55.3317 308.885 55.4205 308.871C55.5092 308.853 55.5803 308.839 55.6335 308.828L55.8892 309.957C55.804 309.989 55.685 310.021 55.5323 310.053C55.3796 310.089 55.1861 310.107 54.9517 310.107C54.5966 310.107 54.2486 310.03 53.9077 309.877C53.5703 309.725 53.2898 309.492 53.0661 309.18C52.8459 308.867 52.7358 308.473 52.7358 307.997V299.858ZM60.6326 310.17C59.9508 310.17 59.3489 309.998 58.8269 309.654C58.3049 309.306 57.8965 308.816 57.6017 308.184C57.307 307.548 57.1596 306.797 57.1596 305.93C57.1596 305.071 57.307 304.325 57.6017 303.693C57.8965 303.061 58.3066 302.573 58.8322 302.228C59.3578 301.884 59.965 301.712 60.6539 301.712C61.1866 301.712 61.6074 301.8 61.9164 301.978C62.2289 302.152 62.4668 302.351 62.6301 302.575C62.7971 302.795 62.9267 302.976 63.019 303.118H63.1255V299.091H64.3826V310H63.1681V308.743H63.019C62.9267 308.892 62.7953 309.08 62.6248 309.308C62.4544 309.531 62.2111 309.732 61.8951 309.909C61.579 310.083 61.1582 310.17 60.6326 310.17ZM60.8031 309.041C61.3074 309.041 61.7335 308.91 62.0815 308.647C62.4295 308.381 62.6941 308.013 62.8752 307.544C63.0563 307.072 63.1468 306.527 63.1468 305.909C63.1468 305.298 63.0581 304.764 62.8805 304.306C62.7029 303.844 62.4402 303.485 62.0922 303.23C61.7441 302.971 61.3145 302.841 60.8031 302.841C60.2704 302.841 59.8265 302.978 59.4714 303.251C59.1199 303.521 58.8553 303.888 58.6777 304.354C58.5037 304.815 58.4167 305.334 58.4167 305.909C58.4167 306.491 58.5055 307.021 58.6831 307.496C58.8642 307.969 59.1305 308.345 59.4821 308.626C59.8372 308.903 60.2775 309.041 60.8031 309.041ZM66.8596 310V301.818H68.074V303.054H68.1593C68.3084 302.649 68.5783 302.321 68.9689 302.069C69.3596 301.816 69.7999 301.69 70.29 301.69C70.3823 301.69 70.4977 301.692 70.6362 301.696C70.7747 301.699 70.8794 301.705 70.9505 301.712V302.99C70.9078 302.979 70.8102 302.963 70.6575 302.942C70.5083 302.917 70.3503 302.905 70.1834 302.905C69.7857 302.905 69.4306 302.988 69.1181 303.155C68.8091 303.319 68.5641 303.546 68.383 303.837C68.2054 304.125 68.1167 304.453 68.1167 304.822V310H66.8596ZM77.5969 306.655V301.818H78.854V310H77.5969V308.615H77.5116C77.3199 309.031 77.0216 309.384 76.6167 309.675C76.2119 309.963 75.7006 310.107 75.0827 310.107C74.5713 310.107 74.1167 309.995 73.719 309.771C73.3213 309.544 73.0088 309.203 72.7815 308.748C72.5542 308.29 72.4406 307.713 72.4406 307.017V301.818H73.6977V306.932C73.6977 307.528 73.8646 308.004 74.1984 308.359C74.5358 308.714 74.9655 308.892 75.4875 308.892C75.8 308.892 76.1178 308.812 76.441 308.652C76.7677 308.493 77.0411 308.248 77.2613 307.917C77.485 307.587 77.5969 307.166 77.5969 306.655ZM84.4803 310.17C83.7132 310.17 83.0527 309.989 82.4988 309.627C81.9448 309.265 81.5186 308.766 81.2203 308.13C80.9221 307.495 80.7729 306.768 80.7729 305.952C80.7729 305.121 80.9256 304.387 81.231 303.752C81.54 303.113 81.9696 302.614 82.5201 302.255C83.074 301.893 83.7203 301.712 84.459 301.712C85.0343 301.712 85.5527 301.818 86.0144 302.031C86.476 302.244 86.8542 302.543 87.149 302.926C87.4437 303.31 87.6266 303.757 87.6976 304.268H86.4405C86.3446 303.896 86.1316 303.565 85.8013 303.278C85.4746 302.987 85.0343 302.841 84.4803 302.841C83.9902 302.841 83.5605 302.969 83.1912 303.224C82.8255 303.477 82.5396 303.833 82.3336 304.295C82.1312 304.753 82.03 305.291 82.03 305.909C82.03 306.541 82.1294 307.092 82.3283 307.56C82.5307 308.029 82.8148 308.393 83.1806 308.652C83.5499 308.912 83.9831 309.041 84.4803 309.041C84.807 309.041 85.1035 308.984 85.3699 308.871C85.6362 308.757 85.8617 308.594 86.0463 308.381C86.231 308.168 86.3624 307.912 86.4405 307.614H87.6976C87.6266 308.097 87.4508 308.532 87.1703 308.919C86.8933 309.302 86.5257 309.608 86.0676 309.835C85.6131 310.059 85.084 310.17 84.4803 310.17ZM90.7072 307.017L90.6859 305.462H90.9416L94.5211 301.818H96.0765L92.2626 305.675H92.1561L90.7072 307.017ZM89.5353 310V299.091H90.7924V310H89.5353ZM94.7342 310L91.5382 305.952L92.4331 305.078L96.3322 310H94.7342ZM99.5695 308.509L99.4843 309.084C99.4239 309.489 99.3316 309.922 99.2073 310.384C99.0866 310.845 98.9605 311.28 98.8291 311.689C98.6977 312.097 98.5894 312.422 98.5042 312.663H97.5454C97.5915 312.436 97.6519 312.136 97.7265 311.763C97.801 311.39 97.8756 310.973 97.9502 310.511C98.0283 310.053 98.0922 309.585 98.142 309.105L98.2059 308.509H99.5695ZM106.288 310V299.091H109.974C110.83 299.091 111.529 299.245 112.073 299.554C112.619 299.86 113.024 300.273 113.287 300.795C113.55 301.317 113.681 301.9 113.681 302.543C113.681 303.185 113.55 303.77 113.287 304.295C113.028 304.821 112.627 305.24 112.083 305.552C111.54 305.861 110.844 306.016 109.995 306.016H107.353V304.844H109.953C110.539 304.844 111.009 304.743 111.364 304.54C111.719 304.338 111.977 304.064 112.137 303.72C112.3 303.372 112.382 302.979 112.382 302.543C112.382 302.106 112.3 301.715 112.137 301.371C111.977 301.026 111.718 300.756 111.359 300.561C111 300.362 110.524 300.263 109.931 300.263H107.609V310H106.288ZM120.795 306.655V301.818H122.052V310H120.795V308.615H120.71C120.518 309.031 120.22 309.384 119.815 309.675C119.41 309.963 118.899 310.107 118.281 310.107C117.77 310.107 117.315 309.995 116.917 309.771C116.52 309.544 116.207 309.203 115.98 308.748C115.752 308.29 115.639 307.713 115.639 307.017V301.818H116.896V306.932C116.896 307.528 117.063 308.004 117.397 308.359C117.734 308.714 118.164 308.892 118.686 308.892C118.998 308.892 119.316 308.812 119.639 308.652C119.966 308.493 120.239 308.248 120.46 307.917C120.683 307.587 120.795 307.166 120.795 306.655ZM125.612 299.091V310H124.355V299.091H125.612ZM133.71 303.651L132.58 303.97C132.509 303.782 132.405 303.599 132.266 303.422C132.131 303.24 131.947 303.091 131.712 302.974C131.478 302.857 131.178 302.798 130.812 302.798C130.311 302.798 129.894 302.914 129.56 303.145C129.23 303.372 129.065 303.661 129.065 304.013C129.065 304.325 129.178 304.572 129.406 304.753C129.633 304.934 129.988 305.085 130.471 305.206L131.686 305.504C132.417 305.682 132.962 305.953 133.321 306.319C133.68 306.681 133.859 307.148 133.859 307.72C133.859 308.189 133.724 308.608 133.454 308.977C133.188 309.347 132.815 309.638 132.335 309.851C131.856 310.064 131.298 310.17 130.663 310.17C129.828 310.17 129.138 309.989 128.591 309.627C128.044 309.265 127.698 308.736 127.552 308.04L128.745 307.741C128.859 308.182 129.074 308.512 129.39 308.732C129.709 308.952 130.127 309.062 130.642 309.062C131.227 309.062 131.693 308.938 132.037 308.69C132.385 308.437 132.559 308.136 132.559 307.784C132.559 307.5 132.46 307.262 132.261 307.07C132.062 306.875 131.757 306.729 131.345 306.634L129.981 306.314C129.232 306.136 128.681 305.861 128.33 305.488C127.982 305.112 127.808 304.641 127.808 304.077C127.808 303.615 127.937 303.207 128.197 302.852C128.459 302.496 128.816 302.218 129.267 302.015C129.722 301.813 130.237 301.712 130.812 301.712C131.622 301.712 132.257 301.889 132.719 302.244C133.184 302.599 133.514 303.068 133.71 303.651Z" fill="black"/>
</g>
<defs>
<filter id="filter0_d_1_10" x="0" y="0" width="279" height="343" filterUnits="userSpaceOnUse" color-interpolation-filters="sRGB">
<feFlood flood-opacity="0" result="BackgroundImageFix"/>
<feColorMatrix in="SourceAlpha" type="matrix" values="0 0 0 0 0 0 0 0 0 0 0 0 0 0 0 0 0 0 127 0" result="hardAlpha"/>
<feOffset dy="4"/>
<feGaussianBlur stdDeviation="2"/>
<feComposite in2="hardAlpha" operator="out"/>
<feColorMatrix type="matrix" values="0 0 0 0 0 0 0 0 0 0 0 0 0 0 0 0 0 0 0.25 0"/>
<feBlend mode="normal" in2="BackgroundImageFix" result="effect1_dropShadow_1_10"/>
<feBlend mode="normal" in="SourceGraphic" in2="effect1_dropShadow_1_10" result="shape"/>
</filter>
</defs>
</svg>
