<svg width="279" height="343" viewBox="0 0 279 343" fill="none" xmlns="http://www.w3.org/2000/svg">
<g filter="url(#filter0_d_1_10)">
<rect x="7" y="3" width="265" height="329" rx="20" stroke="black" stroke-width="6" shape-rendering="crispEdges"/>
<rect width="208" height="31" transform="translate(36 69)" fill="white"/>
<path d="M52.321 90V79.0909H56.0071C56.8594 79.0909 57.5589 79.2365 58.1058 79.5277C58.6527 79.8153 59.0575 80.2113 59.3203 80.7156C59.5831 81.2198 59.7145 81.7933 59.7145 82.4361C59.7145 83.0788 59.5831 83.6488 59.3203 84.146C59.0575 84.6431 58.6545 85.0337 58.1112 85.3178C57.5678 85.5984 56.8736 85.7386 56.0284 85.7386H53.0455V84.5455H55.9858C56.5682 84.5455 57.0369 84.4602 57.392 84.2898C57.7507 84.1193 58.0099 83.8778 58.1697 83.5653C58.3331 83.2493 58.4148 82.8729 58.4148 82.4361C58.4148 81.9993 58.3331 81.6175 58.1697 81.2908C58.0064 80.9641 57.7454 80.712 57.3867 80.5344C57.0281 80.3533 56.554 80.2628 55.9645 80.2628H53.642V90H52.321ZM57.456 85.0994L60.1406 90H58.6065L55.9645 85.0994H57.456ZM65.0878 90.1705C64.2994 90.1705 63.6194 89.9964 63.0477 89.6484C62.4795 89.2969 62.0409 88.8068 61.732 88.1783C61.4266 87.5462 61.2739 86.8111 61.2739 85.973C61.2739 85.1349 61.4266 84.3963 61.732 83.7571C62.0409 83.1143 62.4706 82.6136 63.021 82.255C63.575 81.8928 64.2213 81.7116 64.96 81.7116C65.3861 81.7116 65.8069 81.7827 66.2224 81.9247C66.6379 82.0668 67.0161 82.2976 67.357 82.6172C67.6979 82.9332 67.9695 83.3523 68.172 83.8743C68.3744 84.3963 68.4756 85.0391 68.4756 85.8026V86.3352H62.1688V85.2486H67.1972C67.1972 84.7869 67.1048 84.375 66.9202 84.0128C66.7391 83.6506 66.4798 83.3647 66.1425 83.1552C65.8087 82.9457 65.4145 82.8409 64.96 82.8409C64.4593 82.8409 64.026 82.9652 63.6602 83.2138C63.298 83.4588 63.0193 83.7784 62.824 84.1726C62.6286 84.5668 62.531 84.9893 62.531 85.4403V86.1648C62.531 86.7827 62.6375 87.3065 62.8506 87.7362C63.0672 88.1623 63.3673 88.4872 63.7508 88.7109C64.1343 88.9311 64.58 89.0412 65.0878 89.0412C65.4181 89.0412 65.7164 88.995 65.9827 88.9027C66.2526 88.8068 66.4852 88.6648 66.6805 88.4766C66.8758 88.2848 67.0267 88.0469 67.1333 87.7628L68.3477 88.1037C68.2199 88.5156 68.0051 88.8778 67.7032 89.1903C67.4014 89.4993 67.0285 89.7408 66.5846 89.9148C66.1407 90.0852 65.6418 90.1705 65.0878 90.1705ZM72.7955 90.1918C72.2771 90.1918 71.8066 90.0941 71.384 89.8988C70.9614 89.6999 70.6258 89.4141 70.3772 89.0412C70.1286 88.6648 70.0044 88.2102 70.0044 87.6776C70.0044 87.2088 70.0967 86.8288 70.2813 86.5376C70.466 86.2429 70.7128 86.0121 71.0218 85.8452C71.3307 85.6783 71.6716 85.554 72.0445 85.4723C72.4209 85.3871 72.7991 85.3196 73.1791 85.2699C73.6762 85.206 74.0793 85.158 74.3882 85.1261C74.7007 85.0906 74.928 85.032 75.07 84.9503C75.2156 84.8686 75.2884 84.7266 75.2884 84.5241V84.4815C75.2884 83.956 75.1446 83.5476 74.857 83.2564C74.5729 82.9652 74.1414 82.8196 73.5626 82.8196C72.9624 82.8196 72.4919 82.951 72.151 83.2138C71.8101 83.4766 71.5704 83.7571 71.4319 84.0554L70.2387 83.6293C70.4518 83.1321 70.7359 82.745 71.091 82.468C71.4497 82.1875 71.8403 81.9922 72.2629 81.8821C72.689 81.7685 73.108 81.7116 73.52 81.7116C73.7828 81.7116 74.0846 81.7436 74.4255 81.8075C74.77 81.8679 75.102 81.994 75.4216 82.1857C75.7448 82.3775 76.0129 82.6669 76.2259 83.054C76.439 83.4411 76.5455 83.9595 76.5455 84.6094V90H75.2884V88.892H75.2245C75.1393 89.0696 74.9972 89.2596 74.7984 89.462C74.5995 89.6644 74.335 89.8366 74.0047 89.9787C73.6744 90.1207 73.2714 90.1918 72.7955 90.1918ZM72.9873 89.0625C73.4845 89.0625 73.9035 88.9648 74.2444 88.7695C74.5889 88.5742 74.8481 88.3221 75.0221 88.0131C75.1997 87.7042 75.2884 87.3793 75.2884 87.0384V85.8878C75.2352 85.9517 75.118 86.0103 74.9369 86.0636C74.7593 86.1133 74.5534 86.1577 74.319 86.1967C74.0882 86.2322 73.8627 86.2642 73.6425 86.2926C73.4259 86.3175 73.2501 86.3388 73.1151 86.3565C72.7884 86.3991 72.483 86.4684 72.199 86.5643C71.9184 86.6566 71.6911 86.7969 71.5171 86.9851C71.3467 87.1697 71.2615 87.4219 71.2615 87.7415C71.2615 88.1783 71.423 88.5085 71.7462 88.7322C72.0729 88.9524 72.4866 89.0625 72.9873 89.0625ZM80.0119 87.017L79.9906 85.4616H80.2463L83.8258 81.8182H85.3812L81.5673 85.6747H81.4608L80.0119 87.017ZM78.84 90V79.0909H80.0971V90H78.84ZM84.0389 90L80.8429 85.9517L81.7377 85.0781L85.6369 90H84.0389ZM90.5574 81.8182V82.8835H86.3174V81.8182H90.5574ZM87.5532 79.858H88.8103V87.6562C88.8103 88.0114 88.8618 88.2777 88.9648 88.4553C89.0713 88.6293 89.2062 88.7464 89.3696 88.8068C89.5365 88.8636 89.7123 88.892 89.8969 88.892C90.0354 88.892 90.1491 88.8849 90.2378 88.8707C90.3266 88.853 90.3976 88.8388 90.4509 88.8281L90.7066 89.9574C90.6214 89.9893 90.5024 90.0213 90.3497 90.0533C90.197 90.0888 90.0035 90.1065 89.7691 90.1065C89.414 90.1065 89.066 90.0302 88.7251 89.8775C88.3877 89.7248 88.1072 89.4922 87.8834 89.1797C87.6633 88.8672 87.5532 88.473 87.5532 87.9972V79.858ZM92.4484 90V81.8182H93.7055V90H92.4484ZM93.0876 80.4545C92.8426 80.4545 92.6313 80.3711 92.4537 80.2042C92.2797 80.0373 92.1927 79.8366 92.1927 79.6023C92.1927 79.3679 92.2797 79.1673 92.4537 79.0004C92.6313 78.8335 92.8426 78.75 93.0876 78.75C93.3327 78.75 93.5422 78.8335 93.7162 79.0004C93.8937 79.1673 93.9825 79.3679 93.9825 79.6023C93.9825 79.8366 93.8937 80.0373 93.7162 80.2042C93.5422 80.3711 93.3327 80.4545 93.0876 80.4545ZM99.3319 90.1705C98.5932 90.1705 97.9451 89.9947 97.3876 89.6431C96.8336 89.2915 96.4004 88.7997 96.0879 88.1676C95.7789 87.5355 95.6245 86.7969 95.6245 85.9517C95.6245 85.0994 95.7789 84.3555 96.0879 83.7198C96.4004 83.0842 96.8336 82.5906 97.3876 82.239C97.9451 81.8874 98.5932 81.7116 99.3319 81.7116C100.07 81.7116 100.717 81.8874 101.271 82.239C101.828 82.5906 102.262 83.0842 102.57 83.7198C102.883 84.3555 103.039 85.0994 103.039 85.9517C103.039 86.7969 102.883 87.5355 102.57 88.1676C102.262 88.7997 101.828 89.2915 101.271 89.6431C100.717 89.9947 100.07 90.1705 99.3319 90.1705ZM99.3319 89.0412C99.8929 89.0412 100.355 88.8974 100.717 88.6097C101.079 88.3221 101.347 87.9439 101.521 87.4751C101.695 87.0064 101.782 86.4986 101.782 85.9517C101.782 85.4048 101.695 84.8952 101.521 84.4229C101.347 83.9506 101.079 83.5689 100.717 83.2777C100.355 82.9865 99.8929 82.8409 99.3319 82.8409C98.7708 82.8409 98.3091 82.9865 97.9469 83.2777C97.5847 83.5689 97.3166 83.9506 97.1426 84.4229C96.9686 84.8952 96.8816 85.4048 96.8816 85.9517C96.8816 86.4986 96.9686 87.0064 97.1426 87.4751C97.3166 87.9439 97.5847 88.3221 97.9469 88.6097C98.3091 88.8974 98.7708 89.0412 99.3319 89.0412ZM106.215 85.0781V90H104.958V81.8182H106.173V83.0966H106.279C106.471 82.6811 106.762 82.3473 107.153 82.0952C107.543 81.8395 108.048 81.7116 108.666 81.7116C109.22 81.7116 109.704 81.8253 110.12 82.0526C110.535 82.2763 110.858 82.6172 111.089 83.0753C111.32 83.5298 111.435 84.1051 111.435 84.8011V90H110.178V84.8864C110.178 84.2436 110.011 83.7429 109.678 83.3842C109.344 83.022 108.886 82.8409 108.303 82.8409C107.902 82.8409 107.543 82.9279 107.227 83.1019C106.915 83.2759 106.668 83.5298 106.487 83.8636C106.306 84.1974 106.215 84.6023 106.215 85.0781ZM121.147 88.0824V81.0511H122.341V88.0824H121.147ZM118.228 85.1634V83.9702H125.26V85.1634H118.228ZM132.228 90V79.0909H133.549V84.5028H133.677L138.578 79.0909H140.304L135.723 84.0128L140.304 90H138.706L134.913 84.929L133.549 86.4631V90H132.228ZM144.566 90.1705C143.828 90.1705 143.18 89.9947 142.622 89.6431C142.068 89.2915 141.635 88.7997 141.322 88.1676C141.013 87.5355 140.859 86.7969 140.859 85.9517C140.859 85.0994 141.013 84.3555 141.322 83.7198C141.635 83.0842 142.068 82.5906 142.622 82.239C143.18 81.8874 143.828 81.7116 144.566 81.7116C145.305 81.7116 145.951 81.8874 146.505 82.239C147.063 82.5906 147.496 83.0842 147.805 83.7198C148.117 84.3555 148.274 85.0994 148.274 85.9517C148.274 86.7969 148.117 87.5355 147.805 88.1676C147.496 88.7997 147.063 89.2915 146.505 89.6431C145.951 89.9947 145.305 90.1705 144.566 90.1705ZM144.566 89.0412C145.127 89.0412 145.589 88.8974 145.951 88.6097C146.313 88.3221 146.581 87.9439 146.756 87.4751C146.93 87.0064 147.017 86.4986 147.017 85.9517C147.017 85.4048 146.93 84.8952 146.756 84.4229C146.581 83.9506 146.313 83.5689 145.951 83.2777C145.589 82.9865 145.127 82.8409 144.566 82.8409C144.005 82.8409 143.544 82.9865 143.181 83.2777C142.819 83.5689 142.551 83.9506 142.377 84.4229C142.203 84.8952 142.116 85.4048 142.116 85.9517C142.116 86.4986 142.203 87.0064 142.377 87.4751C142.551 87.9439 142.819 88.3221 143.181 88.6097C143.544 88.8974 144.005 89.0412 144.566 89.0412ZM151.45 85.0781V90H150.193V81.8182H151.407V83.0966H151.514C151.705 82.6811 151.997 82.3473 152.387 82.0952C152.778 81.8395 153.282 81.7116 153.9 81.7116C154.454 81.7116 154.939 81.8253 155.354 82.0526C155.77 82.2763 156.093 82.6172 156.324 83.0753C156.554 83.5298 156.67 84.1051 156.67 84.8011V90H155.413V84.8864C155.413 84.2436 155.246 83.7429 154.912 83.3842C154.578 83.022 154.12 82.8409 153.538 82.8409C153.136 82.8409 152.778 82.9279 152.462 83.1019C152.149 83.2759 151.902 83.5298 151.721 83.8636C151.54 84.1974 151.45 84.6023 151.45 85.0781ZM158.733 90V89.0412L163.377 83.0753V82.9901H158.882V81.8182H164.997V82.8196L160.48 88.7429V88.8281H165.146V90H158.733ZM170.278 90.1705C169.49 90.1705 168.81 89.9964 168.238 89.6484C167.67 89.2969 167.231 88.8068 166.922 88.1783C166.617 87.5462 166.464 86.8111 166.464 85.973C166.464 85.1349 166.617 84.3963 166.922 83.7571C167.231 83.1143 167.661 82.6136 168.211 82.255C168.765 81.8928 169.412 81.7116 170.15 81.7116C170.577 81.7116 170.997 81.7827 171.413 81.9247C171.828 82.0668 172.206 82.2976 172.547 82.6172C172.888 82.9332 173.16 83.3523 173.362 83.8743C173.565 84.3963 173.666 85.0391 173.666 85.8026V86.3352H167.359V85.2486H172.388C172.388 84.7869 172.295 84.375 172.111 84.0128C171.93 83.6506 171.67 83.3647 171.333 83.1552C170.999 82.9457 170.605 82.8409 170.15 82.8409C169.65 82.8409 169.216 82.9652 168.851 83.2138C168.488 83.4588 168.21 83.7784 168.014 84.1726C167.819 84.5668 167.721 84.9893 167.721 85.4403V86.1648C167.721 86.7827 167.828 87.3065 168.041 87.7362C168.258 88.1623 168.558 88.4872 168.941 88.7109C169.325 88.9311 169.77 89.0412 170.278 89.0412C170.608 89.0412 170.907 88.995 171.173 88.9027C171.443 88.8068 171.676 88.6648 171.871 88.4766C172.066 88.2848 172.217 88.0469 172.324 87.7628L173.538 88.1037C173.41 88.5156 173.195 88.8778 172.894 89.1903C172.592 89.4993 172.219 89.7408 171.775 89.9148C171.331 90.0852 170.832 90.1705 170.278 90.1705ZM176.835 85.0781V90H175.578V81.8182H176.793V83.0966H176.899C177.091 82.6811 177.382 82.3473 177.773 82.0952C178.164 81.8395 178.668 81.7116 179.286 81.7116C179.84 81.7116 180.324 81.8253 180.74 82.0526C181.155 82.2763 181.479 82.6172 181.709 83.0753C181.94 83.5298 182.056 84.1051 182.056 84.8011V90H180.798V84.8864C180.798 84.2436 180.632 83.7429 180.298 83.3842C179.964 83.022 179.506 82.8409 178.923 82.8409C178.522 82.8409 178.164 82.9279 177.847 83.1019C177.535 83.2759 177.288 83.5298 177.107 83.8636C176.926 84.1974 176.835 84.6023 176.835 85.0781ZM187.911 81.8182V82.8835H183.671V81.8182H187.911ZM184.907 79.858H186.164V87.6562C186.164 88.0114 186.215 88.2777 186.318 88.4553C186.425 88.6293 186.56 88.7464 186.723 88.8068C186.89 88.8636 187.066 88.892 187.25 88.892C187.389 88.892 187.503 88.8849 187.591 88.8707C187.68 88.853 187.751 88.8388 187.804 88.8281L188.06 89.9574C187.975 89.9893 187.856 90.0213 187.703 90.0533C187.551 90.0888 187.357 90.1065 187.123 90.1065C186.767 90.1065 186.419 90.0302 186.079 89.8775C185.741 89.7248 185.461 89.4922 185.237 89.1797C185.017 88.8672 184.907 88.473 184.907 87.9972V79.858ZM189.802 90V81.8182H191.016V83.054H191.102C191.251 82.6491 191.521 82.3207 191.911 82.0685C192.302 81.8164 192.742 81.6903 193.232 81.6903C193.325 81.6903 193.44 81.6921 193.579 81.6957C193.717 81.6992 193.822 81.7045 193.893 81.7116V82.9901C193.85 82.9794 193.753 82.9634 193.6 82.9421C193.451 82.9173 193.293 82.9048 193.126 82.9048C192.728 82.9048 192.373 82.9883 192.06 83.1552C191.752 83.3185 191.506 83.5458 191.325 83.837C191.148 84.1246 191.059 84.4531 191.059 84.8224V90H189.802ZM197.791 90.1918C197.272 90.1918 196.802 90.0941 196.379 89.8988C195.956 89.6999 195.621 89.4141 195.372 89.0412C195.124 88.6648 194.999 88.2102 194.999 87.6776C194.999 87.2088 195.092 86.8288 195.276 86.5376C195.461 86.2429 195.708 86.0121 196.017 85.8452C196.326 85.6783 196.667 85.554 197.04 85.4723C197.416 85.3871 197.794 85.3196 198.174 85.2699C198.671 85.206 199.074 85.158 199.383 85.1261C199.696 85.0906 199.923 85.032 200.065 84.9503C200.211 84.8686 200.284 84.7266 200.284 84.5241V84.4815C200.284 83.956 200.14 83.5476 199.852 83.2564C199.568 82.9652 199.137 82.8196 198.558 82.8196C197.958 82.8196 197.487 82.951 197.146 83.2138C196.805 83.4766 196.566 83.7571 196.427 84.0554L195.234 83.6293C195.447 83.1321 195.731 82.745 196.086 82.468C196.445 82.1875 196.835 81.9922 197.258 81.8821C197.684 81.7685 198.103 81.7116 198.515 81.7116C198.778 81.7116 199.08 81.7436 199.421 81.8075C199.765 81.8679 200.097 81.994 200.417 82.1857C200.74 82.3775 201.008 82.6669 201.221 83.054C201.434 83.4411 201.541 83.9595 201.541 84.6094V90H200.284V88.892H200.22C200.134 89.0696 199.992 89.2596 199.794 89.462C199.595 89.6644 199.33 89.8366 199 89.9787C198.67 90.1207 198.267 90.1918 197.791 90.1918ZM197.982 89.0625C198.48 89.0625 198.899 88.9648 199.24 88.7695C199.584 88.5742 199.843 88.3221 200.017 88.0131C200.195 87.7042 200.284 87.3793 200.284 87.0384V85.8878C200.23 85.9517 200.113 86.0103 199.932 86.0636C199.754 86.1133 199.548 86.1577 199.314 86.1967C199.083 86.2322 198.858 86.2642 198.638 86.2926C198.421 86.3175 198.245 86.3388 198.11 86.3565C197.784 86.3991 197.478 86.4684 197.194 86.5643C196.914 86.6566 196.686 86.7969 196.512 86.9851C196.342 87.1697 196.257 87.4219 196.257 87.7415C196.257 88.1783 196.418 88.5085 196.741 88.7322C197.068 88.9524 197.482 89.0625 197.982 89.0625ZM207.393 81.8182V82.8835H203.153V81.8182H207.393ZM204.389 79.858H205.646V87.6562C205.646 88.0114 205.698 88.2777 205.801 88.4553C205.907 88.6293 206.042 88.7464 206.206 88.8068C206.372 88.8636 206.548 88.892 206.733 88.892C206.871 88.892 206.985 88.8849 207.074 88.8707C207.163 88.853 207.234 88.8388 207.287 88.8281L207.543 89.9574C207.457 89.9893 207.338 90.0213 207.186 90.0533C207.033 90.0888 206.839 90.1065 206.605 90.1065C206.25 90.1065 205.902 90.0302 205.561 89.8775C205.224 89.7248 204.943 89.4922 204.719 89.1797C204.499 88.8672 204.389 88.473 204.389 87.9972V79.858ZM209.284 90V81.8182H210.541V90H209.284ZM209.924 80.4545C209.679 80.4545 209.467 80.3711 209.29 80.2042C209.116 80.0373 209.029 79.8366 209.029 79.6023C209.029 79.3679 209.116 79.1673 209.29 79.0004C209.467 78.8335 209.679 78.75 209.924 78.75C210.169 78.75 210.378 78.8335 210.552 79.0004C210.73 79.1673 210.818 79.3679 210.818 79.6023C210.818 79.8366 210.73 80.0373 210.552 80.2042C210.378 80.3711 210.169 80.4545 209.924 80.4545ZM216.168 90.1705C215.429 90.1705 214.781 89.9947 214.224 89.6431C213.67 89.2915 213.236 88.7997 212.924 88.1676C212.615 87.5355 212.46 86.7969 212.46 85.9517C212.46 85.0994 212.615 84.3555 212.924 83.7198C213.236 83.0842 213.67 82.5906 214.224 82.239C214.781 81.8874 215.429 81.7116 216.168 81.7116C216.906 81.7116 217.553 81.8874 218.107 82.239C218.664 82.5906 219.097 83.0842 219.406 83.7198C219.719 84.3555 219.875 85.0994 219.875 85.9517C219.875 86.7969 219.719 87.5355 219.406 88.1676C219.097 88.7997 218.664 89.2915 218.107 89.6431C217.553 89.9947 216.906 90.1705 216.168 90.1705ZM216.168 89.0412C216.729 89.0412 217.191 88.8974 217.553 88.6097C217.915 88.3221 218.183 87.9439 218.357 87.4751C218.531 87.0064 218.618 86.4986 218.618 85.9517C218.618 85.4048 218.531 84.8952 218.357 84.4229C218.183 83.9506 217.915 83.5689 217.553 83.2777C217.191 82.9865 216.729 82.8409 216.168 82.8409C215.607 82.8409 215.145 82.9865 214.783 83.2777C214.421 83.5689 214.153 83.9506 213.979 84.4229C213.805 84.8952 213.718 85.4048 213.718 85.9517C213.718 86.4986 213.805 87.0064 213.979 87.4751C214.153 87.9439 214.421 88.3221 214.783 88.6097C215.145 88.8974 215.607 89.0412 216.168 89.0412ZM223.051 85.0781V90H221.794V81.8182H223.009V83.0966H223.115C223.307 82.6811 223.598 82.3473 223.989 82.0952C224.379 81.8395 224.884 81.7116 225.502 81.7116C226.055 81.7116 226.54 81.8253 226.956 82.0526C227.371 82.2763 227.694 82.6172 227.925 83.0753C228.156 83.5298 228.271 84.1051 228.271 84.8011V90H227.014V84.8864C227.014 84.2436 226.847 83.7429 226.514 83.3842C226.18 83.022 225.722 82.8409 225.139 82.8409C224.738 82.8409 224.379 82.9279 224.063 83.1019C223.751 83.2759 223.504 83.5298 223.323 83.8636C223.142 84.1974 223.051 84.6023 223.051 85.0781Z" fill="black"/>
<rect x="90" y="15" width="99" height="18" rx="7" fill="#D9D9D9"/>
<path d="M122.724 19.2628V18.0909H130.906V19.2628H127.476V29H126.155V19.2628H122.724ZM134.069 29.1918C133.551 29.1918 133.08 29.0941 132.657 28.8988C132.235 28.6999 131.899 28.4141 131.651 28.0412C131.402 27.6648 131.278 27.2102 131.278 26.6776C131.278 26.2088 131.37 25.8288 131.555 25.5376C131.739 25.2429 131.986 25.0121 132.295 24.8452C132.604 24.6783 132.945 24.554 133.318 24.4723C133.694 24.3871 134.073 24.3196 134.453 24.2699C134.95 24.206 135.353 24.158 135.662 24.1261C135.974 24.0906 136.201 24.032 136.343 23.9503C136.489 23.8686 136.562 23.7266 136.562 23.5241V23.4815C136.562 22.956 136.418 22.5476 136.13 22.2564C135.846 21.9652 135.415 21.8196 134.836 21.8196C134.236 21.8196 133.765 21.951 133.424 22.2138C133.084 22.4766 132.844 22.7571 132.705 23.0554L131.512 22.6293C131.725 22.1321 132.009 21.745 132.364 21.468C132.723 21.1875 133.114 20.9922 133.536 20.8821C133.962 20.7685 134.381 20.7116 134.793 20.7116C135.056 20.7116 135.358 20.7436 135.699 20.8075C136.043 20.8679 136.375 20.994 136.695 21.1857C137.018 21.3775 137.286 21.6669 137.499 22.054C137.712 22.4411 137.819 22.9595 137.819 23.6094V29H136.562V27.892H136.498C136.413 28.0696 136.271 28.2596 136.072 28.462C135.873 28.6644 135.608 28.8366 135.278 28.9787C134.948 29.1207 134.545 29.1918 134.069 29.1918ZM134.261 28.0625C134.758 28.0625 135.177 27.9648 135.518 27.7695C135.862 27.5742 136.122 27.3221 136.296 27.0131C136.473 26.7042 136.562 26.3793 136.562 26.0384V24.8878C136.509 24.9517 136.391 25.0103 136.21 25.0636C136.033 25.1133 135.827 25.1577 135.592 25.1967C135.362 25.2322 135.136 25.2642 134.916 25.2926C134.699 25.3175 134.524 25.3388 134.389 25.3565C134.062 25.3991 133.756 25.4684 133.472 25.5643C133.192 25.6566 132.965 25.7969 132.791 25.9851C132.62 26.1697 132.535 26.4219 132.535 26.7415C132.535 27.1783 132.696 27.5085 133.02 27.7322C133.346 27.9524 133.76 28.0625 134.261 28.0625ZM143.757 20.8182V21.8835H139.346V20.8182H143.757ZM140.667 29V19.6889C140.667 19.2202 140.778 18.8295 140.998 18.517C141.218 18.2045 141.504 17.9702 141.855 17.8139C142.207 17.6577 142.578 17.5795 142.969 17.5795C143.278 17.5795 143.53 17.6044 143.725 17.6541C143.92 17.7038 144.066 17.75 144.162 17.7926L143.8 18.8793C143.736 18.858 143.647 18.8313 143.533 18.7994C143.423 18.7674 143.278 18.7514 143.096 18.7514C142.681 18.7514 142.381 18.8562 142.196 19.0657C142.015 19.2752 141.925 19.5824 141.925 19.9872V29H140.667ZM148.612 29.1705C147.824 29.1705 147.144 28.9964 146.572 28.6484C146.004 28.2969 145.565 27.8068 145.256 27.1783C144.951 26.5462 144.798 25.8111 144.798 24.973C144.798 24.1349 144.951 23.3963 145.256 22.7571C145.565 22.1143 145.995 21.6136 146.545 21.255C147.099 20.8928 147.746 20.7116 148.484 20.7116C148.911 20.7116 149.331 20.7827 149.747 20.9247C150.162 21.0668 150.54 21.2976 150.881 21.6172C151.222 21.9332 151.494 22.3523 151.696 22.8743C151.899 23.3963 152 24.0391 152 24.8026V25.3352H145.693V24.2486H150.722C150.722 23.7869 150.629 23.375 150.445 23.0128C150.263 22.6506 150.004 22.3647 149.667 22.1552C149.333 21.9457 148.939 21.8409 148.484 21.8409C147.984 21.8409 147.55 21.9652 147.185 22.2138C146.822 22.4588 146.544 22.7784 146.348 23.1726C146.153 23.5668 146.055 23.9893 146.055 24.4403V25.1648C146.055 25.7827 146.162 26.3065 146.375 26.7362C146.592 27.1623 146.892 27.4872 147.275 27.7109C147.659 27.9311 148.104 28.0412 148.612 28.0412C148.942 28.0412 149.241 27.995 149.507 27.9027C149.777 27.8068 150.01 27.6648 150.205 27.4766C150.4 27.2848 150.551 27.0469 150.658 26.7628L151.872 27.1037C151.744 27.5156 151.529 27.8778 151.228 28.1903C150.926 28.4993 150.553 28.7408 150.109 28.9148C149.665 29.0852 149.166 29.1705 148.612 29.1705ZM155.169 18.0909V29H153.912V18.0909H155.169Z" fill="black"/>
<rect width="113" height="30" transform="translate(144 290)" fill="white"/>
<path d="M152.768 310H151.384L155.389 299.091H156.753L160.759 310H159.374L156.114 300.817H156.028L152.768 310ZM153.28 305.739H158.862V306.911H153.28V305.739ZM165.333 301.818V302.884H161.093V301.818H165.333ZM162.329 299.858H163.586V307.656C163.586 308.011 163.637 308.278 163.74 308.455C163.847 308.629 163.982 308.746 164.145 308.807C164.312 308.864 164.488 308.892 164.672 308.892C164.811 308.892 164.924 308.885 165.013 308.871C165.102 308.853 165.173 308.839 165.226 308.828L165.482 309.957C165.397 309.989 165.278 310.021 165.125 310.053C164.972 310.089 164.779 310.107 164.544 310.107C164.189 310.107 163.841 310.03 163.5 309.877C163.163 309.725 162.883 309.492 162.659 309.18C162.439 308.867 162.329 308.473 162.329 307.997V299.858ZM170.566 310.17C169.778 310.17 169.098 309.996 168.526 309.648C167.958 309.297 167.519 308.807 167.21 308.178C166.905 307.546 166.752 306.811 166.752 305.973C166.752 305.135 166.905 304.396 167.21 303.757C167.519 303.114 167.949 302.614 168.5 302.255C169.054 301.893 169.7 301.712 170.438 301.712C170.865 301.712 171.285 301.783 171.701 301.925C172.116 302.067 172.495 302.298 172.835 302.617C173.176 302.933 173.448 303.352 173.65 303.874C173.853 304.396 173.954 305.039 173.954 305.803V306.335H167.647V305.249H172.676C172.676 304.787 172.583 304.375 172.399 304.013C172.218 303.651 171.958 303.365 171.621 303.155C171.287 302.946 170.893 302.841 170.438 302.841C169.938 302.841 169.505 302.965 169.139 303.214C168.777 303.459 168.498 303.778 168.302 304.173C168.107 304.567 168.009 304.989 168.009 305.44V306.165C168.009 306.783 168.116 307.306 168.329 307.736C168.546 308.162 168.846 308.487 169.229 308.711C169.613 308.931 170.059 309.041 170.566 309.041C170.897 309.041 171.195 308.995 171.461 308.903C171.731 308.807 171.964 308.665 172.159 308.477C172.354 308.285 172.505 308.047 172.612 307.763L173.826 308.104C173.698 308.516 173.484 308.878 173.182 309.19C172.88 309.499 172.507 309.741 172.063 309.915C171.619 310.085 171.12 310.17 170.566 310.17ZM175.866 310V301.818H177.081V303.097H177.187C177.358 302.66 177.633 302.321 178.013 302.079C178.393 301.834 178.849 301.712 179.382 301.712C179.922 301.712 180.371 301.834 180.73 302.079C181.092 302.321 181.374 302.66 181.577 303.097H181.662C181.871 302.674 182.186 302.338 182.605 302.09C183.024 301.838 183.526 301.712 184.112 301.712C184.844 301.712 185.442 301.941 185.907 302.399C186.372 302.853 186.605 303.562 186.605 304.524V310H185.348V304.524C185.348 303.92 185.183 303.489 184.853 303.23C184.522 302.971 184.133 302.841 183.686 302.841C183.111 302.841 182.665 303.015 182.349 303.363C182.033 303.707 181.875 304.144 181.875 304.673V310H180.597V304.396C180.597 303.931 180.446 303.556 180.144 303.272C179.842 302.985 179.453 302.841 178.977 302.841C178.65 302.841 178.345 302.928 178.061 303.102C177.78 303.276 177.553 303.517 177.379 303.826C177.209 304.132 177.123 304.485 177.123 304.886V310H175.866ZM192.547 301.818V302.884H188.136V301.818H192.547ZM189.457 310V300.689C189.457 300.22 189.568 299.83 189.788 299.517C190.008 299.205 190.294 298.97 190.645 298.814C190.997 298.658 191.368 298.58 191.759 298.58C192.068 298.58 192.32 298.604 192.515 298.654C192.71 298.704 192.856 298.75 192.952 298.793L192.59 299.879C192.526 299.858 192.437 299.831 192.323 299.799C192.213 299.767 192.068 299.751 191.886 299.751C191.471 299.751 191.171 299.856 190.986 300.066C190.805 300.275 190.715 300.582 190.715 300.987V310H189.457ZM194.309 310V301.818H195.523V303.054H195.608C195.758 302.649 196.028 302.321 196.418 302.069C196.809 301.816 197.249 301.69 197.739 301.69C197.831 301.69 197.947 301.692 198.085 301.696C198.224 301.699 198.329 301.705 198.4 301.712V302.99C198.357 302.979 198.259 302.963 198.107 302.942C197.958 302.917 197.8 302.905 197.633 302.905C197.235 302.905 196.88 302.988 196.567 303.155C196.258 303.319 196.013 303.546 195.832 303.837C195.655 304.125 195.566 304.453 195.566 304.822V310H194.309ZM203.071 310.17C202.283 310.17 201.603 309.996 201.031 309.648C200.463 309.297 200.024 308.807 199.715 308.178C199.41 307.546 199.257 306.811 199.257 305.973C199.257 305.135 199.41 304.396 199.715 303.757C200.024 303.114 200.454 302.614 201.004 302.255C201.558 301.893 202.205 301.712 202.943 301.712C203.369 301.712 203.79 301.783 204.206 301.925C204.621 302.067 204.999 302.298 205.34 302.617C205.681 302.933 205.953 303.352 206.155 303.874C206.358 304.396 206.459 305.039 206.459 305.803V306.335H200.152V305.249H205.181C205.181 304.787 205.088 304.375 204.904 304.013C204.722 303.651 204.463 303.365 204.126 303.155C203.792 302.946 203.398 302.841 202.943 302.841C202.443 302.841 202.009 302.965 201.644 303.214C201.281 303.459 201.003 303.778 200.807 304.173C200.612 304.567 200.514 304.989 200.514 305.44V306.165C200.514 306.783 200.621 307.306 200.834 307.736C201.051 308.162 201.351 308.487 201.734 308.711C202.118 308.931 202.563 309.041 203.071 309.041C203.401 309.041 203.7 308.995 203.966 308.903C204.236 308.807 204.469 308.665 204.664 308.477C204.859 308.285 205.01 308.047 205.117 307.763L206.331 308.104C206.203 308.516 205.988 308.878 205.687 309.19C205.385 309.499 205.012 309.741 204.568 309.915C204.124 310.085 203.625 310.17 203.071 310.17ZM213.954 313.068V308.743H213.847C213.755 308.892 213.623 309.08 213.453 309.308C213.282 309.531 213.039 309.732 212.723 309.909C212.407 310.083 211.986 310.17 211.461 310.17C210.779 310.17 210.177 309.998 209.655 309.654C209.133 309.306 208.725 308.816 208.43 308.184C208.135 307.548 207.988 306.797 207.988 305.93C207.988 305.071 208.135 304.325 208.43 303.693C208.725 303.061 209.135 302.573 209.66 302.228C210.186 301.884 210.793 301.712 211.482 301.712C212.015 301.712 212.436 301.8 212.744 301.978C213.057 302.152 213.295 302.351 213.458 302.575C213.625 302.795 213.755 302.976 213.847 303.118H213.996V301.818H215.211V313.068H213.954ZM211.631 309.041C212.135 309.041 212.562 308.91 212.91 308.647C213.258 308.381 213.522 308.013 213.703 307.544C213.884 307.072 213.975 306.527 213.975 305.909C213.975 305.298 213.886 304.764 213.709 304.306C213.531 303.844 213.268 303.485 212.92 303.23C212.572 302.971 212.143 302.841 211.631 302.841C211.099 302.841 210.655 302.978 210.3 303.251C209.948 303.521 209.683 303.888 209.506 304.354C209.332 304.815 209.245 305.334 209.245 305.909C209.245 306.491 209.334 307.021 209.511 307.496C209.692 307.969 209.959 308.345 210.31 308.626C210.665 308.903 211.106 309.041 211.631 309.041ZM222.668 306.655V301.818H223.925V310H222.668V308.615H222.583C222.391 309.031 222.093 309.384 221.688 309.675C221.283 309.963 220.772 310.107 220.154 310.107C219.643 310.107 219.188 309.995 218.79 309.771C218.393 309.544 218.08 309.203 217.853 308.748C217.626 308.29 217.512 307.713 217.512 307.017V301.818H218.769V306.932C218.769 307.528 218.936 308.004 219.27 308.359C219.607 308.714 220.037 308.892 220.559 308.892C220.871 308.892 221.189 308.812 221.512 308.652C221.839 308.493 222.112 308.248 222.333 307.917C222.556 307.587 222.668 307.166 222.668 306.655ZM229.658 310.17C228.87 310.17 228.19 309.996 227.618 309.648C227.05 309.297 226.611 308.807 226.302 308.178C225.997 307.546 225.844 306.811 225.844 305.973C225.844 305.135 225.997 304.396 226.302 303.757C226.611 303.114 227.041 302.614 227.591 302.255C228.145 301.893 228.792 301.712 229.53 301.712C229.956 301.712 230.377 301.783 230.793 301.925C231.208 302.067 231.586 302.298 231.927 302.617C232.268 302.933 232.54 303.352 232.742 303.874C232.945 304.396 233.046 305.039 233.046 305.803V306.335H226.739V305.249H231.767C231.767 304.787 231.675 304.375 231.491 304.013C231.309 303.651 231.05 303.365 230.713 303.155C230.379 302.946 229.985 302.841 229.53 302.841C229.03 302.841 228.596 302.965 228.231 303.214C227.868 303.459 227.59 303.778 227.394 304.173C227.199 304.567 227.101 304.989 227.101 305.44V306.165C227.101 306.783 227.208 307.306 227.421 307.736C227.638 308.162 227.938 308.487 228.321 308.711C228.705 308.931 229.15 309.041 229.658 309.041C229.988 309.041 230.287 308.995 230.553 308.903C230.823 308.807 231.055 308.665 231.251 308.477C231.446 308.285 231.597 308.047 231.704 307.763L232.918 308.104C232.79 308.516 232.575 308.878 232.274 309.19C231.972 309.499 231.599 309.741 231.155 309.915C230.711 310.085 230.212 310.17 229.658 310.17ZM236.215 305.078V310H234.958V301.818H236.173V303.097H236.279C236.471 302.681 236.762 302.347 237.153 302.095C237.543 301.839 238.048 301.712 238.666 301.712C239.22 301.712 239.704 301.825 240.12 302.053C240.535 302.276 240.858 302.617 241.089 303.075C241.32 303.53 241.435 304.105 241.435 304.801V310H240.178V304.886C240.178 304.244 240.011 303.743 239.678 303.384C239.344 303.022 238.886 302.841 238.303 302.841C237.902 302.841 237.543 302.928 237.227 303.102C236.915 303.276 236.668 303.53 236.487 303.864C236.306 304.197 236.215 304.602 236.215 305.078ZM243.498 310V309.041L248.143 303.075V302.99H243.647V301.818H249.762V302.82L245.245 308.743V308.828H249.912V310H243.498Z" fill="black"/>
<rect width="113" height="30" transform="translate(25 290)" fill="white"/>
<path d="M30.321 310V299.091H34.1349C34.8949 299.091 35.5217 299.222 36.0153 299.485C36.5089 299.744 36.8764 300.094 37.1179 300.534C37.3594 300.971 37.4801 301.456 37.4801 301.989C37.4801 302.457 37.3967 302.844 37.2298 303.15C37.0664 303.455 36.8498 303.697 36.5799 303.874C36.3136 304.052 36.0241 304.183 35.7116 304.268V304.375C36.0455 304.396 36.381 304.513 36.7184 304.727C37.0558 304.94 37.3381 305.245 37.5653 305.643C37.7926 306.04 37.9062 306.527 37.9062 307.102C37.9062 307.649 37.782 308.141 37.5334 308.578C37.2848 309.015 36.8924 309.361 36.3562 309.616C35.82 309.872 35.1222 310 34.2628 310H30.321ZM31.642 308.828H34.2628C35.1257 308.828 35.7383 308.661 36.1005 308.327C36.4663 307.99 36.6491 307.582 36.6491 307.102C36.6491 306.733 36.555 306.392 36.3668 306.08C36.1786 305.763 35.9105 305.511 35.5625 305.323C35.2145 305.131 34.8026 305.036 34.3267 305.036H31.642V308.828ZM31.642 303.885H34.0923C34.4901 303.885 34.8487 303.807 35.1683 303.651C35.4915 303.494 35.7472 303.274 35.9354 302.99C36.1271 302.706 36.223 302.372 36.223 301.989C36.223 301.509 36.0561 301.103 35.7223 300.769C35.3885 300.431 34.8594 300.263 34.1349 300.263H31.642V303.885ZM41.1635 299.091V310H39.9064V299.091H41.1635ZM48.6222 306.655V301.818H49.8794V310H48.6222V308.615H48.537C48.3453 309.031 48.047 309.384 47.6421 309.675C47.2373 309.963 46.7259 310.107 46.108 310.107C45.5967 310.107 45.1421 309.995 44.7444 309.771C44.3467 309.544 44.0342 309.203 43.8069 308.748C43.5796 308.29 43.466 307.713 43.466 307.017V301.818H44.7231V306.932C44.7231 307.528 44.89 308.004 45.2238 308.359C45.5612 308.714 45.9909 308.892 46.5129 308.892C46.8254 308.892 47.1432 308.812 47.4664 308.652C47.7931 308.493 48.0665 308.248 48.2867 307.917C48.5104 307.587 48.6222 307.166 48.6222 306.655ZM55.7401 301.818V302.884H51.5V301.818H55.7401ZM52.7358 299.858H53.9929V307.656C53.9929 308.011 54.0444 308.278 54.1474 308.455C54.2539 308.629 54.3888 308.746 54.5522 308.807C54.7191 308.864 54.8949 308.892 55.0795 308.892C55.218 308.892 55.3317 308.885 55.4205 308.871C55.5092 308.853 55.5803 308.839 55.6335 308.828L55.8892 309.957C55.804 309.989 55.685 310.021 55.5323 310.053C55.3796 310.089 55.1861 310.107 54.9517 310.107C54.5966 310.107 54.2486 310.03 53.9077 309.877C53.5703 309.725 53.2898 309.492 53.0661 309.18C52.8459 308.867 52.7358 308.473 52.7358 307.997V299.858ZM60.6326 310.17C59.9508 310.17 59.3489 309.998 58.8269 309.654C58.3049 309.306 57.8965 308.816 57.6017 308.184C57.307 307.548 57.1596 306.797 57.1596 305.93C57.1596 305.071 57.307 304.325 57.6017 303.693C57.8965 303.061 58.3066 302.573 58.8322 302.228C59.3578 301.884 59.965 301.712 60.6539 301.712C61.1866 301.712 61.6074 301.8 61.9164 301.978C62.2289 302.152 62.4668 302.351 62.6301 302.575C62.7971 302.795 62.9267 302.976 63.019 303.118H63.1255V299.091H64.3826V310H63.1681V308.743H63.019C62.9267 308.892 62.7953 309.08 62.6248 309.308C62.4544 309.531 62.2111 309.732 61.8951 309.909C61.579 310.083 61.1582 310.17 60.6326 310.17ZM60.8031 309.041C61.3074 309.041 61.7335 308.91 62.0815 308.647C62.4295 308.381 62.6941 308.013 62.8752 307.544C63.0563 307.072 63.1468 306.527 63.1468 305.909C63.1468 305.298 63.0581 304.764 62.8805 304.306C62.7029 303.844 62.4402 303.485 62.0922 303.23C61.7441 302.971 61.3145 302.841 60.8031 302.841C60.2704 302.841 59.8265 302.978 59.4714 303.251C59.1199 303.521 58.8553 303.888 58.6777 304.354C58.5037 304.815 58.4167 305.334 58.4167 305.909C58.4167 306.491 58.5055 307.021 58.6831 307.496C58.8642 307.969 59.1305 308.345 59.4821 308.626C59.8372 308.903 60.2775 309.041 60.8031 309.041ZM66.8596 310V301.818H68.074V303.054H68.1593C68.3084 302.649 68.5783 302.321 68.9689 302.069C69.3596 301.816 69.7999 301.69 70.29 301.69C70.3823 301.69 70.4977 301.692 70.6362 301.696C70.7747 301.699 70.8794 301.705 70.9505 301.712V302.99C70.9078 302.979 70.8102 302.963 70.6575 302.942C70.5083 302.917 70.3503 302.905 70.1834 302.905C69.7857 302.905 69.4306 302.988 69.1181 303.155C68.8091 303.319 68.5641 303.546 68.383 303.837C68.2054 304.125 68.1167 304.453 68.1167 304.822V310H66.8596ZM77.5969 306.655V301.818H78.854V310H77.5969V308.615H77.5116C77.3199 309.031 77.0216 309.384 76.6167 309.675C76.2119 309.963 75.7006 310.107 75.0827 310.107C74.5713 310.107 74.1167 309.995 73.719 309.771C73.3213 309.544 73.0088 309.203 72.7815 308.748C72.5542 308.29 72.4406 307.713 72.4406 307.017V301.818H73.6977V306.932C73.6977 307.528 73.8646 308.004 74.1984 308.359C74.5358 308.714 74.9655 308.892 75.4875 308.892C75.8 308.892 76.1178 308.812 76.441 308.652C76.7677 308.493 77.0411 308.248 77.2613 307.917C77.485 307.587 77.5969 307.166 77.5969 306.655ZM84.4803 310.17C83.7132 310.17 83.0527 309.989 82.4988 309.627C81.9448 309.265 81.5186 308.766 81.2203 308.13C80.9221 307.495 80.7729 306.768 80.7729 305.952C80.7729 305.121 80.9256 304.387 81.231 303.752C81.54 303.113 81.9696 302.614 82.5201 302.255C83.074 301.893 83.7203 301.712 84.459 301.712C85.0343 301.712 85.5527 301.818 86.0144 302.031C86.476 302.244 86.8542 302.543 87.149 302.926C87.4437 303.31 87.6266 303.757 87.6976 304.268H86.4405C86.3446 303.896 86.1316 303.565 85.8013 303.278C85.4746 302.987 85.0343 302.841 84.4803 302.841C83.9902 302.841 83.5605 302.969 83.1912 303.224C82.8255 303.477 82.5396 303.833 82.3336 304.295C82.1312 304.753 82.03 305.291 82.03 305.909C82.03 306.541 82.1294 307.092 82.3283 307.56C82.5307 308.029 82.8148 308.393 83.1806 308.652C83.5499 308.912 83.9831 309.041 84.4803 309.041C84.807 309.041 85.1035 308.984 85.3699 308.871C85.6362 308.757 85.8617 308.594 86.0463 308.381C86.231 308.168 86.3624 307.912 86.4405 307.614H87.6976C87.6266 308.097 87.4508 308.532 87.1703 308.919C86.8933 309.302 86.5257 309.608 86.0676 309.835C85.6131 310.059 85.084 310.17 84.4803 310.17ZM90.7072 307.017L90.6859 305.462H90.9416L94.5211 301.818H96.0765L92.2626 305.675H92.1561L90.7072 307.017ZM89.5353 310V299.091H90.7924V310H89.5353ZM94.7342 310L91.5382 305.952L92.4331 305.078L96.3322 310H94.7342ZM99.5695 308.509L99.4843 309.084C99.4239 309.489 99.3316 309.922 99.2073 310.384C99.0866 310.845 98.9605 311.28 98.8291 311.689C98.6977 312.097 98.5894 312.422 98.5042 312.663H97.5454C97.5915 312.436 97.6519 312.136 97.7265 311.763C97.801 311.39 97.8756 310.973 97.9502 310.511C98.0283 310.053 98.0922 309.585 98.142 309.105L98.2059 308.509H99.5695ZM106.288 310V299.091H109.974C110.83 299.091 111.529 299.245 112.073 299.554C112.619 299.86 113.024 300.273 113.287 300.795C113.55 301.317 113.681 301.9 113.681 302.543C113.681 303.185 113.55 303.77 113.287 304.295C113.028 304.821 112.627 305.24 112.083 305.552C111.54 305.861 110.844 306.016 109.995 306.016H107.353V304.844H109.953C110.539 304.844 111.009 304.743 111.364 304.54C111.719 304.338 111.977 304.064 112.137 303.72C112.3 303.372 112.382 302.979 112.382 302.543C112.382 302.106 112.3 301.715 112.137 301.371C111.977 301.026 111.718 300.756 111.359 300.561C111 300.362 110.524 300.263 109.931 300.263H107.609V310H106.288ZM120.795 306.655V301.818H122.052V310H120.795V308.615H120.71C120.518 309.031 120.22 309.384 119.815 309.675C119.41 309.963 118.899 310.107 118.281 310.107C117.77 310.107 117.315 309.995 116.917 309.771C116.52 309.544 116.207 309.203 115.98 308.748C115.752 308.29 115.639 307.713 115.639 307.017V301.818H116.896V306.932C116.896 307.528 117.063 308.004 117.397 308.359C117.734 308.714 118.164 308.892 118.686 308.892C118.998 308.892 119.316 308.812 119.639 308.652C119.966 308.493 120.239 308.248 120.46 307.917C120.683 307.587 120.795 307.166 120.795 306.655ZM125.612 299.091V310H124.355V299.091H125.612ZM133.71 303.651L132.58 303.97C132.509 303.782 132.405 303.599 132.266 303.422C132.131 303.24 131.947 303.091 131.712 302.974C131.478 302.857 131.178 302.798 130.812 302.798C130.311 302.798 129.894 302.914 129.56 303.145C129.23 303.372 129.065 303.661 129.065 304.013C129.065 304.325 129.178 304.572 129.406 304.753C129.633 304.934 129.988 305.085 130.471 305.206L131.686 305.504C132.417 305.682 132.962 305.953 133.321 306.319C133.68 306.681 133.859 307.148 133.859 307.72C133.859 308.189 133.724 308.608 133.454 308.977C133.188 309.347 132.815 309.638 132.335 309.851C131.856 310.064 131.298 310.17 130.663 310.17C129.828 310.17 129.138 309.989 128.591 309.627C128.044 309.265 127.698 308.736 127.552 308.04L128.745 307.741C128.859 308.182 129.074 308.512 129.39 308.732C129.709 308.952 130.127 309.062 130.642 309.062C131.227 309.062 131.693 308.938 132.037 308.69C132.385 308.437 132.559 308.136 132.559 307.784C132.559 307.5 132.46 307.262 132.261 307.07C132.062 306.875 131.757 306.729 131.345 306.634L129.981 306.314C129.232 306.136 128.681 305.861 128.33 305.488C127.982 305.112 127.808 304.641 127.808 304.077C127.808 303.615 127.937 303.207 128.197 302.852C128.459 302.496 128.816 302.218 129.267 302.015C129.722 301.813 130.237 301.712 130.812 301.712C131.622 301.712 132.257 301.889 132.719 302.244C133.184 302.599 133.514 303.068 133.71 303.651Z" fill="black"/>
</g>
<defs>
<filter id="filter0_d_1_10" x="0" y="0" width="279" height="343" filterUnits="userSpaceOnUse" color-interpolation-filters="sRGB">
<feFlood flood-opacity="0" result="BackgroundImageFix"/>
<feColorMatrix in="SourceAlpha" type="matrix" values="0 0 0 0 0 0 0 0 0 0 0 0 0 0 0 0 0 0 127 0" result="hardAlpha"/>
<feOffset dy="4"/>
<feGaussianBlur stdDeviation="2"/>
<feComposite in2="hardAlpha" operator="out"/>
<feColorMatrix type="matrix" values="0 0 0 0 0 0 0 0 0 0 0 0 0 0 0 0 0 0 0.25 0"/>
<feBlend mode="normal" in2="BackgroundImageFix" result="effect1_dropShadow_1_10"/>
<feBlend mode="normal" in="SourceGraphic" in2="effect1_dropShadow_1_10" result="shape"/>
</filter>
</defs>
</svg>
