<svg width="561" height="459" viewBox="0 0 561 459" fill="none" xmlns="http://www.w3.org/2000/svg">
<rect width="561" height="459" fill="#1E1E1E"/>
<path d="M160.503 158.224C151.09 148.587 143.5 140.816 143.5 128V40C143.5 30.335 135.665 22.5 126 22.5H61C51.335 22.5 43.5 30.335 43.5 40V128C43.5 140.854 36.2467 148.641 27.2805 158.266C26.0966 159.537 24.8829 160.84 23.652 162.191C13.1947 173.669 2.5 187.871 2.5 214V360C2.5 385.129 22.871 405.5 48 405.5H141C166.129 405.5 186.5 385.129 186.5 360V214C186.5 187.828 175.263 173.613 164.307 162.148C163.017 160.797 161.744 159.494 160.503 158.224Z" fill="#D9D9D9" stroke="#343434" stroke-width="5"/>
<mask id="mask0_0_1" style="mask-type:alpha" maskUnits="userSpaceOnUse" x="16" y="0" width="153" height="292">
<rect x="16" width="153" height="292" fill="#D9D9D9"/>
</mask>
<g mask="url(#mask0_0_1)">
<g filter="url(#filter0_i_0_1)">
<rect x="89" y="-16" width="12" height="276" fill="#6C6C6C"/>
</g>
</g>
<path d="M159 235H173V330C173 333.866 169.866 337 166 337H159V235Z" fill="#3F3F3F"/>
<rect x="146" y="323" width="13" height="14" fill="#3F3F3F"/>
<path d="M30 235H16V330C16 333.866 19.134 337 23 337H30V235Z" fill="#3F3F3F"/>
<rect width="13" height="14" transform="matrix(-1 0 0 1 43 323)" fill="#3F3F3F"/>
<mask id="mask1_0_1" style="mask-type:alpha" maskUnits="userSpaceOnUse" x="38" y="292" width="113" height="76">
<rect x="38" y="292" width="113" height="76" fill="#FFCA47"/>
</mask>
<g mask="url(#mask1_0_1)">
<rect x="38" y="292" width="113" height="76" fill="#FFCA47"/>
<rect x="30" y="271.771" width="4.47188" height="132.418" transform="rotate(-7 30 271.771)" fill="#2E7A00"/>
<rect x="38.9766" y="270.669" width="4.47188" height="132.418" transform="rotate(-7 38.9766 270.669)" fill="#2E7A00"/>
<rect x="47.9532" y="269.567" width="4.47188" height="132.418" transform="rotate(-7 47.9532 269.567)" fill="#2E7A00"/>
<rect x="56.9298" y="268.465" width="4.47188" height="132.418" transform="rotate(-7 56.9298 268.465)" fill="#2E7A00"/>
<rect x="65.9064" y="267.362" width="4.47188" height="132.418" transform="rotate(-7 65.9064 267.362)" fill="#2E7A00"/>
<rect x="74.883" y="266.26" width="4.47188" height="132.418" transform="rotate(-7 74.883 266.26)" fill="#2E7A00"/>
<rect x="83.8596" y="265.158" width="4.47188" height="132.418" transform="rotate(-7 83.8596 265.158)" fill="#2E7A00"/>
<rect x="92.8362" y="264.056" width="4.47188" height="132.418" transform="rotate(-7 92.8362 264.056)" fill="#2E7A00"/>
<rect x="101.813" y="262.954" width="4.47188" height="132.418" transform="rotate(-7 101.813 262.954)" fill="#2E7A00"/>
<rect x="110.789" y="261.852" width="4.47188" height="132.418" transform="rotate(-7 110.789 261.852)" fill="#2E7A00"/>
<rect x="119.766" y="260.749" width="4.47188" height="132.418" transform="rotate(-7 119.766 260.749)" fill="#2E7A00"/>
<rect x="128.743" y="259.647" width="4.47188" height="132.418" transform="rotate(-7 128.743 259.647)" fill="#2E7A00"/>
<rect x="137.719" y="258.545" width="4.47188" height="132.418" transform="rotate(-7 137.719 258.545)" fill="#2E7A00"/>
</g>
<rect x="48" y="235" width="94" height="48" fill="#2E7A00"/>
<rect x="48" y="235" width="18.8" height="48" fill="#D30000"/>
<rect x="85.6" y="235" width="18.8" height="48" fill="#D30000"/>
<rect x="123.2" y="235" width="18.8" height="48" fill="#D30000"/>
<path d="M147.5 368H150.5V378C150.5 379.657 149.157 381 147.5 381V381V368Z" fill="#FFCA47"/>
<path d="M97 381C97 379.343 98.3431 378 100 378H148V381H97V381Z" fill="#FFCA47"/>
<path d="M25 378H89C90.6569 378 92 379.343 92 381V381H28C26.3431 381 25 379.657 25 378V378Z" fill="#FFCA47"/>
<rect x="25" y="298" width="3" height="80" fill="#FFCA47"/>
<path d="M25 298C25 296.343 26.3431 295 28 295H40V298H25V298Z" fill="#FFCA47"/>
<rect x="89" y="381" width="3" height="78" fill="#FFCA47"/>
<rect x="97" y="381" width="3" height="78" fill="#FFCA47"/>
<path d="M270.947 112H268.639L275.315 93.8182H277.588L284.264 112H281.956L276.523 96.6946H276.381L270.947 112ZM271.8 104.898H281.104V106.851H271.8V104.898ZM292.352 112.284C291.074 112.284 289.973 111.982 289.049 111.379C288.126 110.775 287.416 109.943 286.919 108.884C286.422 107.824 286.173 106.614 286.173 105.253C286.173 103.868 286.427 102.646 286.936 101.586C287.451 100.521 288.167 99.6894 289.085 99.0916C290.008 98.4879 291.085 98.1861 292.316 98.1861C293.275 98.1861 294.139 98.3636 294.909 98.7188C295.678 99.0739 296.308 99.571 296.8 100.21C297.291 100.849 297.596 101.595 297.714 102.447H295.619C295.459 101.826 295.104 101.276 294.554 100.796C294.009 100.311 293.275 100.068 292.352 100.068C291.535 100.068 290.819 100.281 290.203 100.707C289.594 101.128 289.117 101.722 288.774 102.492C288.437 103.255 288.268 104.152 288.268 105.182C288.268 106.235 288.434 107.153 288.765 107.934C289.103 108.715 289.576 109.322 290.186 109.754C290.801 110.186 291.523 110.402 292.352 110.402C292.896 110.402 293.391 110.307 293.835 110.118C294.278 109.929 294.654 109.656 294.962 109.301C295.27 108.946 295.489 108.52 295.619 108.023H297.714C297.596 108.828 297.303 109.553 296.835 110.198C296.374 110.837 295.761 111.346 294.998 111.725C294.24 112.098 293.358 112.284 292.352 112.284ZM302.872 103.797V112H300.777V93.8182H302.872V100.494H303.05C303.369 99.79 303.849 99.2307 304.488 98.8164C305.133 98.3962 305.991 98.1861 307.062 98.1861C307.992 98.1861 308.806 98.3725 309.504 98.7454C310.202 99.1123 310.744 99.6776 311.129 100.441C311.519 101.199 311.714 102.163 311.714 103.335V112H309.619V103.477C309.619 102.394 309.338 101.557 308.776 100.965C308.22 100.367 307.447 100.068 306.459 100.068C305.772 100.068 305.157 100.213 304.612 100.503C304.074 100.793 303.647 101.216 303.334 101.773C303.026 102.329 302.872 103.004 302.872 103.797ZM325.207 101.418L323.324 101.95C323.206 101.637 323.032 101.332 322.801 101.036C322.576 100.734 322.268 100.485 321.877 100.29C321.487 100.095 320.987 99.9972 320.377 99.9972C319.543 99.9972 318.847 100.19 318.291 100.574C317.74 100.953 317.465 101.435 317.465 102.021C317.465 102.542 317.655 102.953 318.033 103.255C318.412 103.557 319.004 103.809 319.809 104.01L321.833 104.507C323.052 104.803 323.961 105.256 324.559 105.865C325.156 106.469 325.455 107.247 325.455 108.2C325.455 108.982 325.23 109.68 324.78 110.295C324.337 110.911 323.715 111.396 322.916 111.751C322.117 112.107 321.188 112.284 320.128 112.284C318.738 112.284 317.586 111.982 316.675 111.379C315.764 110.775 315.186 109.893 314.944 108.733L316.932 108.236C317.122 108.97 317.48 109.52 318.007 109.887C318.539 110.254 319.235 110.438 320.093 110.438C321.07 110.438 321.845 110.23 322.419 109.816C322.999 109.396 323.289 108.893 323.289 108.307C323.289 107.833 323.123 107.437 322.792 107.117C322.46 106.792 321.951 106.549 321.265 106.389L318.992 105.857C317.743 105.561 316.826 105.102 316.24 104.48C315.66 103.853 315.37 103.069 315.37 102.128C315.37 101.358 315.586 100.678 316.018 100.086C316.456 99.4941 317.051 99.0295 317.802 98.6921C318.56 98.3548 319.418 98.1861 320.377 98.1861C321.726 98.1861 322.786 98.482 323.555 99.0739C324.331 99.6657 324.881 100.447 325.207 101.418ZM334.326 112.284C333.012 112.284 331.879 111.994 330.926 111.414C329.979 110.828 329.248 110.011 328.733 108.964C328.224 107.91 327.97 106.685 327.97 105.288C327.97 103.892 328.224 102.661 328.733 101.595C329.248 100.524 329.964 99.6894 330.882 99.0916C331.805 98.4879 332.882 98.1861 334.113 98.1861C334.824 98.1861 335.525 98.3045 336.217 98.5412C336.91 98.7779 337.54 99.1626 338.108 99.6953C338.676 100.222 339.129 100.92 339.467 101.79C339.804 102.661 339.973 103.732 339.973 105.004V105.892H329.461V104.081H337.842C337.842 103.312 337.688 102.625 337.38 102.021C337.078 101.418 336.646 100.941 336.084 100.592C335.528 100.243 334.871 100.068 334.113 100.068C333.279 100.068 332.557 100.275 331.947 100.69C331.343 101.098 330.879 101.631 330.553 102.288C330.228 102.945 330.065 103.649 330.065 104.401V105.608C330.065 106.638 330.243 107.511 330.598 108.227C330.959 108.937 331.459 109.479 332.098 109.852C332.737 110.219 333.48 110.402 334.326 110.402C334.877 110.402 335.374 110.325 335.818 110.171C336.268 110.011 336.655 109.775 336.981 109.461C337.306 109.141 337.558 108.745 337.735 108.271L339.76 108.839C339.547 109.526 339.188 110.13 338.685 110.651C338.182 111.165 337.561 111.568 336.821 111.858C336.081 112.142 335.25 112.284 334.326 112.284Z" fill="white"/>
<path d="M270.202 249.818H272.83L279.009 264.911H279.222L285.401 249.818H288.028V268H285.969V254.186H285.791L280.109 268H278.121L272.439 254.186H272.261V268H270.202V249.818ZM296.172 268.32C295.307 268.32 294.523 268.157 293.819 267.831C293.115 267.5 292.555 267.023 292.141 266.402C291.727 265.775 291.52 265.017 291.52 264.129C291.52 263.348 291.674 262.715 291.981 262.229C292.289 261.738 292.7 261.353 293.215 261.075C293.73 260.797 294.298 260.59 294.92 260.454C295.547 260.312 296.178 260.199 296.811 260.116C297.639 260.01 298.311 259.93 298.826 259.877C299.347 259.818 299.726 259.72 299.962 259.584C300.205 259.448 300.326 259.211 300.326 258.874V258.803C300.326 257.927 300.087 257.246 299.607 256.761C299.134 256.275 298.415 256.033 297.45 256.033C296.45 256.033 295.666 256.252 295.097 256.69C294.529 257.128 294.13 257.595 293.899 258.092L291.91 257.382C292.265 256.554 292.739 255.908 293.331 255.447C293.928 254.979 294.58 254.654 295.284 254.47C295.994 254.281 296.692 254.186 297.379 254.186C297.817 254.186 298.32 254.239 298.888 254.346C299.462 254.446 300.016 254.657 300.548 254.976C301.087 255.296 301.534 255.778 301.889 256.423C302.244 257.068 302.422 257.933 302.422 259.016V268H300.326V266.153H300.22C300.078 266.449 299.841 266.766 299.51 267.103C299.178 267.441 298.737 267.728 298.187 267.964C297.636 268.201 296.965 268.32 296.172 268.32ZM296.491 266.438C297.32 266.438 298.018 266.275 298.586 265.949C299.16 265.624 299.593 265.203 299.883 264.689C300.178 264.174 300.326 263.632 300.326 263.064V261.146C300.238 261.253 300.042 261.35 299.741 261.439C299.445 261.522 299.101 261.596 298.711 261.661C298.326 261.72 297.95 261.774 297.583 261.821C297.222 261.862 296.929 261.898 296.704 261.928C296.16 261.999 295.651 262.114 295.177 262.274C294.71 262.428 294.331 262.661 294.041 262.975C293.757 263.283 293.615 263.703 293.615 264.236C293.615 264.964 293.884 265.514 294.423 265.887C294.967 266.254 295.657 266.438 296.491 266.438ZM311.75 273.398C310.738 273.398 309.868 273.268 309.14 273.007C308.412 272.753 307.805 272.415 307.32 271.995C306.841 271.581 306.459 271.137 306.175 270.663L307.844 269.491C308.033 269.74 308.273 270.024 308.563 270.344C308.853 270.669 309.249 270.95 309.752 271.187C310.261 271.43 310.927 271.551 311.75 271.551C312.851 271.551 313.759 271.285 314.475 270.752C315.192 270.219 315.55 269.385 315.55 268.249V265.479H315.372C315.218 265.727 314.999 266.035 314.715 266.402C314.437 266.763 314.035 267.086 313.508 267.37C312.987 267.648 312.283 267.787 311.395 267.787C310.294 267.787 309.306 267.527 308.43 267.006C307.56 266.485 306.87 265.727 306.361 264.733C305.858 263.739 305.607 262.531 305.607 261.111C305.607 259.714 305.852 258.498 306.343 257.462C306.835 256.42 307.518 255.615 308.394 255.047C309.27 254.473 310.282 254.186 311.43 254.186C312.318 254.186 313.022 254.334 313.543 254.63C314.07 254.92 314.473 255.251 314.751 255.624C315.035 255.991 315.254 256.293 315.408 256.53H315.621V254.364H317.645V268.391C317.645 269.562 317.379 270.515 316.846 271.249C316.319 271.989 315.609 272.531 314.715 272.874C313.827 273.223 312.839 273.398 311.75 273.398ZM311.679 265.905C312.519 265.905 313.23 265.712 313.81 265.328C314.39 264.943 314.831 264.39 315.132 263.668C315.434 262.946 315.585 262.081 315.585 261.075C315.585 260.093 315.437 259.226 315.141 258.474C314.845 257.722 314.407 257.134 313.827 256.707C313.247 256.281 312.531 256.068 311.679 256.068C310.791 256.068 310.051 256.293 309.46 256.743C308.874 257.193 308.433 257.796 308.137 258.554C307.847 259.312 307.702 260.152 307.702 261.075C307.702 262.022 307.85 262.86 308.146 263.588C308.447 264.31 308.891 264.878 309.477 265.292C310.069 265.701 310.803 265.905 311.679 265.905ZM323.575 259.797V268H321.48V254.364H323.504V256.494H323.682C324.001 255.802 324.487 255.246 325.138 254.825C325.789 254.399 326.629 254.186 327.659 254.186C328.582 254.186 329.39 254.375 330.083 254.754C330.775 255.127 331.314 255.695 331.699 256.459C332.083 257.216 332.276 258.175 332.276 259.335V268H330.18V259.477C330.18 258.406 329.902 257.571 329.346 256.974C328.79 256.37 328.026 256.068 327.055 256.068C326.387 256.068 325.789 256.213 325.262 256.503C324.741 256.793 324.33 257.216 324.028 257.773C323.726 258.329 323.575 259.004 323.575 259.797ZM341.821 268.284C340.508 268.284 339.374 267.994 338.421 267.414C337.474 266.828 336.743 266.011 336.228 264.964C335.719 263.91 335.465 262.685 335.465 261.288C335.465 259.892 335.719 258.661 336.228 257.595C336.743 256.524 337.459 255.689 338.377 255.092C339.3 254.488 340.377 254.186 341.608 254.186C342.319 254.186 343.02 254.304 343.712 254.541C344.405 254.778 345.035 255.163 345.603 255.695C346.172 256.222 346.624 256.92 346.962 257.79C347.299 258.661 347.468 259.732 347.468 261.004V261.892H336.956V260.081H345.337C345.337 259.312 345.183 258.625 344.875 258.021C344.574 257.418 344.142 256.941 343.579 256.592C343.023 256.243 342.366 256.068 341.608 256.068C340.774 256.068 340.052 256.275 339.442 256.69C338.839 257.098 338.374 257.631 338.048 258.288C337.723 258.945 337.56 259.649 337.56 260.401V261.608C337.56 262.638 337.738 263.511 338.093 264.227C338.454 264.937 338.954 265.479 339.593 265.852C340.232 266.219 340.975 266.402 341.821 266.402C342.372 266.402 342.869 266.325 343.313 266.171C343.763 266.011 344.15 265.775 344.476 265.461C344.801 265.141 345.053 264.745 345.231 264.271L347.255 264.839C347.042 265.526 346.684 266.13 346.18 266.651C345.677 267.165 345.056 267.568 344.316 267.858C343.576 268.142 342.745 268.284 341.821 268.284ZM356.585 254.364V256.139H349.519V254.364H356.585ZM351.578 251.097H353.673V264.094C353.673 264.686 353.759 265.129 353.931 265.425C354.108 265.715 354.333 265.911 354.606 266.011C354.884 266.106 355.177 266.153 355.484 266.153C355.715 266.153 355.905 266.142 356.053 266.118C356.201 266.088 356.319 266.065 356.408 266.047L356.834 267.929C356.692 267.982 356.494 268.036 356.239 268.089C355.985 268.148 355.662 268.178 355.271 268.178C354.68 268.178 354.1 268.05 353.531 267.796C352.969 267.541 352.502 267.154 352.129 266.633C351.762 266.112 351.578 265.455 351.578 264.662V251.097ZM388.501 249.818V268H386.37L376.463 253.724H376.285V268H374.084V249.818H376.214L386.157 264.129H386.335V249.818H388.501ZM398.162 268.284C396.931 268.284 395.851 267.991 394.922 267.405C393.999 266.819 393.277 266 392.756 264.946C392.241 263.893 391.983 262.661 391.983 261.253C391.983 259.832 392.241 258.592 392.756 257.533C393.277 256.474 393.999 255.651 394.922 255.065C395.851 254.479 396.931 254.186 398.162 254.186C399.394 254.186 400.471 254.479 401.394 255.065C402.323 255.651 403.045 256.474 403.56 257.533C404.081 258.592 404.341 259.832 404.341 261.253C404.341 262.661 404.081 263.893 403.56 264.946C403.045 266 402.323 266.819 401.394 267.405C400.471 267.991 399.394 268.284 398.162 268.284ZM398.162 266.402C399.098 266.402 399.867 266.162 400.471 265.683C401.074 265.203 401.521 264.573 401.811 263.792C402.101 263.011 402.246 262.164 402.246 261.253C402.246 260.341 402.101 259.492 401.811 258.705C401.521 257.918 401.074 257.281 400.471 256.796C399.867 256.311 399.098 256.068 398.162 256.068C397.227 256.068 396.458 256.311 395.854 256.796C395.251 257.281 394.804 257.918 394.514 258.705C394.224 259.492 394.079 260.341 394.079 261.253C394.079 262.164 394.224 263.011 394.514 263.792C394.804 264.573 395.251 265.203 395.854 265.683C396.458 266.162 397.227 266.402 398.162 266.402ZM407.54 268V254.364H409.564V256.423H409.706C409.954 255.749 410.404 255.201 411.055 254.781C411.706 254.361 412.44 254.151 413.257 254.151C413.411 254.151 413.603 254.154 413.834 254.159C414.065 254.165 414.239 254.174 414.358 254.186V256.317C414.287 256.299 414.124 256.272 413.87 256.237C413.621 256.195 413.358 256.175 413.079 256.175C412.417 256.175 411.825 256.314 411.304 256.592C410.789 256.864 410.381 257.243 410.079 257.728C409.783 258.208 409.635 258.755 409.635 259.371V268H407.54ZM421.576 268.284C420.439 268.284 419.436 267.997 418.566 267.423C417.696 266.843 417.015 266.026 416.524 264.973C416.033 263.913 415.787 262.661 415.787 261.217C415.787 259.785 416.033 258.542 416.524 257.489C417.015 256.435 417.699 255.621 418.575 255.047C419.451 254.473 420.463 254.186 421.611 254.186C422.499 254.186 423.2 254.334 423.715 254.63C424.236 254.92 424.632 255.251 424.905 255.624C425.183 255.991 425.399 256.293 425.553 256.53H425.73V249.818H427.826V268H425.801V265.905H425.553C425.399 266.153 425.18 266.467 424.896 266.846C424.612 267.219 424.206 267.553 423.68 267.849C423.153 268.139 422.451 268.284 421.576 268.284ZM421.86 266.402C422.7 266.402 423.41 266.183 423.99 265.745C424.57 265.301 425.011 264.689 425.313 263.907C425.615 263.12 425.766 262.212 425.766 261.182C425.766 260.164 425.618 259.273 425.322 258.51C425.026 257.74 424.588 257.142 424.008 256.716C423.428 256.284 422.712 256.068 421.86 256.068C420.972 256.068 420.232 256.296 419.64 256.752C419.054 257.202 418.613 257.814 418.317 258.589C418.027 259.359 417.882 260.223 417.882 261.182C417.882 262.152 418.03 263.034 418.326 263.827C418.628 264.615 419.072 265.242 419.658 265.71C420.25 266.171 420.984 266.402 421.86 266.402ZM431.954 273.114V254.364H433.978V256.53H434.226C434.38 256.293 434.593 255.991 434.866 255.624C435.144 255.251 435.54 254.92 436.055 254.63C436.576 254.334 437.28 254.186 438.168 254.186C439.316 254.186 440.329 254.473 441.204 255.047C442.08 255.621 442.764 256.435 443.255 257.489C443.746 258.542 443.992 259.785 443.992 261.217C443.992 262.661 443.746 263.913 443.255 264.973C442.764 266.026 442.083 266.843 441.213 267.423C440.343 267.997 439.34 268.284 438.204 268.284C437.328 268.284 436.626 268.139 436.1 267.849C435.573 267.553 435.168 267.219 434.883 266.846C434.599 266.467 434.38 266.153 434.226 265.905H434.049V273.114H431.954ZM434.013 261.182C434.013 262.212 434.164 263.12 434.466 263.907C434.768 264.689 435.209 265.301 435.789 265.745C436.369 266.183 437.079 266.402 437.92 266.402C438.796 266.402 439.527 266.171 440.112 265.71C440.704 265.242 441.148 264.615 441.444 263.827C441.746 263.034 441.897 262.152 441.897 261.182C441.897 260.223 441.749 259.359 441.453 258.589C441.163 257.814 440.722 257.202 440.13 256.752C439.544 256.296 438.807 256.068 437.92 256.068C437.067 256.068 436.351 256.284 435.771 256.716C435.191 257.142 434.753 257.74 434.457 258.51C434.161 259.273 434.013 260.164 434.013 261.182ZM452.728 268.284C451.497 268.284 450.417 267.991 449.487 267.405C448.564 266.819 447.842 266 447.321 264.946C446.806 263.893 446.549 262.661 446.549 261.253C446.549 259.832 446.806 258.592 447.321 257.533C447.842 256.474 448.564 255.651 449.487 255.065C450.417 254.479 451.497 254.186 452.728 254.186C453.959 254.186 455.036 254.479 455.959 255.065C456.889 255.651 457.611 256.474 458.126 257.533C458.646 258.592 458.907 259.832 458.907 261.253C458.907 262.661 458.646 263.893 458.126 264.946C457.611 266 456.889 266.819 455.959 267.405C455.036 267.991 453.959 268.284 452.728 268.284ZM452.728 266.402C453.663 266.402 454.432 266.162 455.036 265.683C455.64 265.203 456.087 264.573 456.377 263.792C456.667 263.011 456.812 262.164 456.812 261.253C456.812 260.341 456.667 259.492 456.377 258.705C456.087 257.918 455.64 257.281 455.036 256.796C454.432 256.311 453.663 256.068 452.728 256.068C451.793 256.068 451.023 256.311 450.42 256.796C449.816 257.281 449.369 257.918 449.079 258.705C448.789 259.492 448.644 260.341 448.644 261.253C448.644 262.164 448.789 263.011 449.079 263.792C449.369 264.573 449.816 265.203 450.42 265.683C451.023 266.162 451.793 266.402 452.728 266.402ZM464.2 249.818V268H462.105V249.818H464.2ZM492.328 254.364C492.221 253.464 491.789 252.766 491.031 252.268C490.274 251.771 489.345 251.523 488.244 251.523C487.439 251.523 486.734 251.653 486.131 251.913C485.533 252.174 485.065 252.532 484.728 252.988C484.397 253.443 484.231 253.961 484.231 254.541C484.231 255.027 484.346 255.444 484.577 255.793C484.814 256.136 485.116 256.423 485.483 256.654C485.85 256.879 486.234 257.065 486.637 257.213C487.039 257.355 487.409 257.471 487.747 257.56L489.593 258.057C490.067 258.181 490.593 258.353 491.173 258.572C491.759 258.791 492.319 259.09 492.851 259.468C493.39 259.841 493.834 260.321 494.183 260.907C494.532 261.493 494.707 262.212 494.707 263.064C494.707 264.046 494.449 264.934 493.934 265.727C493.425 266.52 492.68 267.151 491.697 267.618C490.721 268.086 489.534 268.32 488.137 268.32C486.835 268.32 485.708 268.109 484.755 267.689C483.808 267.269 483.062 266.683 482.517 265.931C481.979 265.18 481.674 264.307 481.603 263.312H483.876C483.935 263.999 484.166 264.567 484.568 265.017C484.977 265.461 485.492 265.792 486.113 266.011C486.74 266.224 487.415 266.331 488.137 266.331C488.978 266.331 489.732 266.195 490.401 265.923C491.07 265.644 491.6 265.26 491.99 264.768C492.381 264.271 492.576 263.691 492.576 263.028C492.576 262.425 492.407 261.933 492.07 261.555C491.733 261.176 491.289 260.868 490.738 260.631C490.188 260.395 489.593 260.187 488.954 260.01L486.717 259.371C485.296 258.962 484.172 258.379 483.343 257.622C482.515 256.864 482.1 255.873 482.1 254.648C482.1 253.63 482.375 252.742 482.926 251.984C483.482 251.221 484.228 250.629 485.163 250.209C486.104 249.783 487.155 249.57 488.315 249.57C489.487 249.57 490.528 249.78 491.44 250.2C492.351 250.614 493.073 251.182 493.606 251.904C494.145 252.627 494.429 253.446 494.458 254.364H492.328ZM506.636 262.425V254.364H508.732V268H506.636V265.692H506.494C506.175 266.384 505.678 266.973 505.003 267.458C504.328 267.938 503.476 268.178 502.446 268.178C501.594 268.178 500.836 267.991 500.173 267.618C499.51 267.239 498.99 266.671 498.611 265.914C498.232 265.15 498.043 264.188 498.043 263.028V254.364H500.138V262.886C500.138 263.881 500.416 264.674 500.972 265.266C501.535 265.857 502.251 266.153 503.121 266.153C503.642 266.153 504.171 266.02 504.71 265.754C505.254 265.488 505.71 265.079 506.077 264.529C506.45 263.978 506.636 263.277 506.636 262.425ZM500.848 252.091C500.475 252.091 500.144 251.949 499.854 251.665C499.57 251.375 499.428 251.043 499.428 250.67C499.428 250.262 499.57 249.925 499.854 249.658C500.144 249.386 500.475 249.25 500.848 249.25C501.256 249.25 501.594 249.386 501.86 249.658C502.132 249.925 502.268 250.262 502.268 250.67C502.268 251.043 502.132 251.375 501.86 251.665C501.594 251.949 501.256 252.091 500.848 252.091ZM505.962 252.091C505.589 252.091 505.257 251.949 504.967 251.665C504.683 251.375 504.541 251.043 504.541 250.67C504.541 250.262 504.683 249.925 504.967 249.658C505.257 249.386 505.589 249.25 505.962 249.25C506.37 249.25 506.707 249.386 506.974 249.658C507.246 249.925 507.382 250.262 507.382 250.67C507.382 251.043 507.246 251.375 506.974 251.665C506.707 251.949 506.37 252.091 505.962 252.091ZM517.718 268.284C516.582 268.284 515.579 267.997 514.709 267.423C513.839 266.843 513.158 266.026 512.667 264.973C512.175 263.913 511.93 262.661 511.93 261.217C511.93 259.785 512.175 258.542 512.667 257.489C513.158 256.435 513.841 255.621 514.717 255.047C515.593 254.473 516.605 254.186 517.754 254.186C518.641 254.186 519.343 254.334 519.858 254.63C520.379 254.92 520.775 255.251 521.047 255.624C521.325 255.991 521.542 256.293 521.695 256.53H521.873V249.818H523.968V268H521.944V265.905H521.695C521.542 266.153 521.323 266.467 521.038 266.846C520.754 267.219 520.349 267.553 519.822 267.849C519.295 268.139 518.594 268.284 517.718 268.284ZM518.002 266.402C518.843 266.402 519.553 266.183 520.133 265.745C520.713 265.301 521.154 264.689 521.456 263.907C521.758 263.12 521.908 262.212 521.908 261.182C521.908 260.164 521.761 259.273 521.465 258.51C521.169 257.74 520.731 257.142 520.151 256.716C519.571 256.284 518.854 256.068 518.002 256.068C517.114 256.068 516.375 256.296 515.783 256.752C515.197 257.202 514.756 257.814 514.46 258.589C514.17 259.359 514.025 260.223 514.025 261.182C514.025 262.152 514.173 263.034 514.469 263.827C514.771 264.615 515.215 265.242 515.801 265.71C516.392 266.171 517.126 266.402 518.002 266.402ZM528.096 273.114V254.364H530.12V256.53H530.369C530.523 256.293 530.736 255.991 531.008 255.624C531.286 255.251 531.683 254.92 532.198 254.63C532.719 254.334 533.423 254.186 534.311 254.186C535.459 254.186 536.471 254.473 537.347 255.047C538.223 255.621 538.907 256.435 539.398 257.489C539.889 258.542 540.135 259.785 540.135 261.217C540.135 262.661 539.889 263.913 539.398 264.973C538.907 266.026 538.226 266.843 537.356 267.423C536.486 267.997 535.483 268.284 534.346 268.284C533.47 268.284 532.769 268.139 532.242 267.849C531.716 267.553 531.31 267.219 531.026 266.846C530.742 266.467 530.523 266.153 530.369 265.905H530.191V273.114H528.096ZM530.156 261.182C530.156 262.212 530.307 263.12 530.609 263.907C530.911 264.689 531.352 265.301 531.932 265.745C532.512 266.183 533.222 266.402 534.062 266.402C534.938 266.402 535.669 266.171 536.255 265.71C536.847 265.242 537.291 264.615 537.587 263.827C537.889 263.034 538.04 262.152 538.04 261.182C538.04 260.223 537.892 259.359 537.596 258.589C537.306 257.814 536.865 257.202 536.273 256.752C535.687 256.296 534.95 256.068 534.062 256.068C533.21 256.068 532.494 256.284 531.914 256.716C531.334 257.142 530.896 257.74 530.6 258.51C530.304 259.273 530.156 260.164 530.156 261.182ZM548.87 268.284C547.639 268.284 546.559 267.991 545.63 267.405C544.707 266.819 543.985 266 543.464 264.946C542.949 263.893 542.691 262.661 542.691 261.253C542.691 259.832 542.949 258.592 543.464 257.533C543.985 256.474 544.707 255.651 545.63 255.065C546.559 254.479 547.639 254.186 548.87 254.186C550.102 254.186 551.179 254.479 552.102 255.065C553.031 255.651 553.753 256.474 554.268 257.533C554.789 258.592 555.049 259.832 555.049 261.253C555.049 262.661 554.789 263.893 554.268 264.946C553.753 266 553.031 266.819 552.102 267.405C551.179 267.991 550.102 268.284 548.87 268.284ZM548.87 266.402C549.806 266.402 550.575 266.162 551.179 265.683C551.782 265.203 552.229 264.573 552.519 263.792C552.809 263.011 552.954 262.164 552.954 261.253C552.954 260.341 552.809 259.492 552.519 258.705C552.229 257.918 551.782 257.281 551.179 256.796C550.575 256.311 549.806 256.068 548.87 256.068C547.935 256.068 547.166 256.311 546.562 256.796C545.959 257.281 545.512 257.918 545.222 258.705C544.932 259.492 544.787 260.341 544.787 261.253C544.787 262.164 544.932 263.011 545.222 263.792C545.512 264.573 545.959 265.203 546.562 265.683C547.166 266.162 547.935 266.402 548.87 266.402ZM560.343 249.818V268H558.248V249.818H560.343Z" fill="white"/>
<path d="M275.812 339H270.202V320.818H276.061C277.825 320.818 279.334 321.182 280.589 321.91C281.844 322.632 282.805 323.671 283.474 325.026C284.143 326.376 284.477 327.991 284.477 329.874C284.477 331.768 284.14 333.398 283.465 334.765C282.79 336.127 281.808 337.174 280.518 337.908C279.228 338.636 277.659 339 275.812 339ZM272.403 337.047H275.67C277.174 337.047 278.42 336.757 279.408 336.177C280.396 335.597 281.133 334.771 281.619 333.7C282.104 332.629 282.347 331.353 282.347 329.874C282.347 328.406 282.107 327.142 281.627 326.083C281.148 325.017 280.432 324.201 279.479 323.632C278.526 323.058 277.339 322.771 275.919 322.771H272.403V337.047ZM287.886 339V325.364H289.911V327.423H290.053C290.301 326.749 290.751 326.201 291.402 325.781C292.053 325.361 292.787 325.151 293.604 325.151C293.758 325.151 293.95 325.154 294.181 325.159C294.412 325.165 294.586 325.174 294.705 325.186V327.317C294.634 327.299 294.471 327.272 294.216 327.237C293.968 327.195 293.704 327.175 293.426 327.175C292.763 327.175 292.171 327.314 291.651 327.592C291.136 327.864 290.727 328.243 290.425 328.728C290.129 329.208 289.982 329.755 289.982 330.371V339H287.886ZM301.201 339.32C300.337 339.32 299.553 339.157 298.848 338.831C298.144 338.5 297.585 338.023 297.17 337.402C296.756 336.775 296.549 336.017 296.549 335.129C296.549 334.348 296.703 333.715 297.011 333.229C297.318 332.738 297.73 332.353 298.245 332.075C298.759 331.797 299.328 331.59 299.949 331.454C300.576 331.312 301.207 331.199 301.84 331.116C302.669 331.01 303.34 330.93 303.855 330.877C304.376 330.818 304.755 330.72 304.992 330.584C305.234 330.448 305.356 330.211 305.356 329.874V329.803C305.356 328.927 305.116 328.246 304.637 327.761C304.163 327.275 303.444 327.033 302.479 327.033C301.479 327.033 300.695 327.252 300.127 327.69C299.559 328.128 299.159 328.595 298.928 329.092L296.94 328.382C297.295 327.554 297.768 326.908 298.36 326.447C298.958 325.979 299.609 325.654 300.313 325.47C301.023 325.281 301.722 325.186 302.408 325.186C302.846 325.186 303.349 325.239 303.918 325.346C304.492 325.446 305.045 325.657 305.578 325.976C306.116 326.296 306.563 326.778 306.918 327.423C307.273 328.068 307.451 328.933 307.451 330.016V339H305.356V337.153H305.249C305.107 337.449 304.87 337.766 304.539 338.103C304.208 338.441 303.767 338.728 303.216 338.964C302.666 339.201 301.994 339.32 301.201 339.32ZM301.521 337.438C302.349 337.438 303.047 337.275 303.616 336.949C304.19 336.624 304.622 336.203 304.912 335.689C305.208 335.174 305.356 334.632 305.356 334.064V332.146C305.267 332.253 305.072 332.35 304.77 332.439C304.474 332.522 304.131 332.596 303.74 332.661C303.355 332.72 302.979 332.774 302.612 332.821C302.251 332.862 301.958 332.898 301.734 332.928C301.189 332.999 300.68 333.114 300.207 333.274C299.739 333.428 299.36 333.661 299.07 333.975C298.786 334.283 298.644 334.703 298.644 335.236C298.644 335.964 298.913 336.514 299.452 336.887C299.996 337.254 300.686 337.438 301.521 337.438ZM313.37 330.797V339H311.275V320.818H313.37V327.494H313.548C313.867 326.79 314.347 326.231 314.986 325.816C315.631 325.396 316.489 325.186 317.561 325.186C318.49 325.186 319.304 325.373 320.002 325.745C320.7 326.112 321.242 326.678 321.627 327.441C322.017 328.199 322.213 329.163 322.213 330.335V339H320.117V330.477C320.117 329.394 319.836 328.557 319.274 327.965C318.718 327.367 317.945 327.068 316.957 327.068C316.27 327.068 315.655 327.213 315.11 327.503C314.572 327.793 314.146 328.216 313.832 328.773C313.524 329.329 313.37 330.004 313.37 330.797ZM331.976 325.364V327.139H324.909V325.364H331.976ZM326.969 322.097H329.064V335.094C329.064 335.686 329.15 336.129 329.321 336.425C329.499 336.715 329.724 336.911 329.996 337.011C330.274 337.106 330.567 337.153 330.875 337.153C331.106 337.153 331.295 337.142 331.443 337.118C331.591 337.088 331.71 337.065 331.798 337.047L332.225 338.929C332.082 338.982 331.884 339.036 331.63 339.089C331.375 339.148 331.053 339.178 330.662 339.178C330.07 339.178 329.49 339.05 328.922 338.796C328.36 338.541 327.892 338.154 327.519 337.633C327.152 337.112 326.969 336.455 326.969 335.662V322.097ZM344.543 328.418L342.66 328.95C342.542 328.637 342.367 328.332 342.137 328.036C341.912 327.734 341.604 327.485 341.213 327.29C340.823 327.095 340.323 326.997 339.713 326.997C338.878 326.997 338.183 327.19 337.627 327.574C337.076 327.953 336.801 328.435 336.801 329.021C336.801 329.542 336.99 329.953 337.369 330.255C337.748 330.557 338.34 330.809 339.145 331.01L341.169 331.507C342.388 331.803 343.297 332.256 343.894 332.865C344.492 333.469 344.791 334.247 344.791 335.2C344.791 335.982 344.566 336.68 344.116 337.295C343.672 337.911 343.051 338.396 342.252 338.751C341.453 339.107 340.524 339.284 339.464 339.284C338.074 339.284 336.922 338.982 336.011 338.379C335.099 337.775 334.522 336.893 334.28 335.733L336.268 335.236C336.458 335.97 336.816 336.52 337.343 336.887C337.875 337.254 338.571 337.438 339.429 337.438C340.405 337.438 341.181 337.23 341.755 336.816C342.335 336.396 342.625 335.893 342.625 335.307C342.625 334.833 342.459 334.437 342.128 334.117C341.796 333.792 341.287 333.549 340.601 333.389L338.328 332.857C337.079 332.561 336.162 332.102 335.576 331.48C334.996 330.853 334.706 330.069 334.706 329.128C334.706 328.358 334.922 327.678 335.354 327.086C335.792 326.494 336.387 326.029 337.138 325.692C337.896 325.355 338.754 325.186 339.713 325.186C341.062 325.186 342.122 325.482 342.891 326.074C343.667 326.666 344.217 327.447 344.543 328.418ZM347.945 344.114V325.364H349.969V327.53H350.218C350.372 327.293 350.585 326.991 350.857 326.624C351.135 326.251 351.532 325.92 352.047 325.63C352.567 325.334 353.272 325.186 354.159 325.186C355.308 325.186 356.32 325.473 357.196 326.047C358.072 326.621 358.755 327.435 359.246 328.489C359.738 329.542 359.983 330.785 359.983 332.217C359.983 333.661 359.738 334.913 359.246 335.973C358.755 337.026 358.075 337.843 357.205 338.423C356.335 338.997 355.331 339.284 354.195 339.284C353.319 339.284 352.618 339.139 352.091 338.849C351.564 338.553 351.159 338.219 350.875 337.846C350.591 337.467 350.372 337.153 350.218 336.905H350.04V344.114H347.945ZM350.005 332.182C350.005 333.212 350.156 334.12 350.457 334.907C350.759 335.689 351.2 336.301 351.78 336.745C352.36 337.183 353.07 337.402 353.911 337.402C354.787 337.402 355.518 337.171 356.104 336.71C356.696 336.242 357.139 335.615 357.435 334.827C357.737 334.034 357.888 333.152 357.888 332.182C357.888 331.223 357.74 330.359 357.444 329.589C357.154 328.814 356.713 328.202 356.121 327.752C355.536 327.296 354.799 327.068 353.911 327.068C353.059 327.068 352.342 327.284 351.762 327.716C351.182 328.142 350.744 328.74 350.449 329.51C350.153 330.273 350.005 331.164 350.005 332.182ZM371.773 333.425V325.364H373.868V339H371.773V336.692H371.631C371.311 337.384 370.814 337.973 370.14 338.458C369.465 338.938 368.613 339.178 367.583 339.178C366.73 339.178 365.973 338.991 365.31 338.618C364.647 338.239 364.126 337.671 363.748 336.914C363.369 336.15 363.179 335.188 363.179 334.028V325.364H365.275V333.886C365.275 334.881 365.553 335.674 366.109 336.266C366.671 336.857 367.387 337.153 368.257 337.153C368.778 337.153 369.308 337.02 369.847 336.754C370.391 336.488 370.847 336.079 371.214 335.529C371.587 334.978 371.773 334.277 371.773 333.425ZM379.801 320.818V339H377.706V320.818H379.801ZM389.356 339.284C388.042 339.284 386.908 338.994 385.955 338.414C385.008 337.828 384.278 337.011 383.763 335.964C383.254 334.91 382.999 333.685 382.999 332.288C382.999 330.892 383.254 329.661 383.763 328.595C384.278 327.524 384.994 326.689 385.911 326.092C386.834 325.488 387.912 325.186 389.143 325.186C389.853 325.186 390.554 325.304 391.247 325.541C391.939 325.778 392.569 326.163 393.138 326.695C393.706 327.222 394.159 327.92 394.496 328.79C394.833 329.661 395.002 330.732 395.002 332.004V332.892H384.491V331.081H392.871C392.871 330.312 392.717 329.625 392.41 329.021C392.108 328.418 391.676 327.941 391.113 327.592C390.557 327.243 389.9 327.068 389.143 327.068C388.308 327.068 387.586 327.275 386.976 327.69C386.373 328.098 385.908 328.631 385.583 329.288C385.257 329.945 385.094 330.649 385.094 331.401V332.608C385.094 333.638 385.272 334.511 385.627 335.227C385.988 335.937 386.488 336.479 387.127 336.852C387.767 337.219 388.509 337.402 389.356 337.402C389.906 337.402 390.403 337.325 390.847 337.171C391.297 337.011 391.685 336.775 392.01 336.461C392.336 336.141 392.587 335.745 392.765 335.271L394.789 335.839C394.576 336.526 394.218 337.13 393.715 337.651C393.212 338.165 392.59 338.568 391.85 338.858C391.11 339.142 390.279 339.284 389.356 339.284Z" fill="white"/>
<path d="M275.812 442H270.202V423.818H276.061C277.825 423.818 279.334 424.182 280.589 424.91C281.844 425.632 282.805 426.671 283.474 428.026C284.143 429.376 284.477 430.991 284.477 432.874C284.477 434.768 284.14 436.398 283.465 437.765C282.79 439.127 281.808 440.174 280.518 440.908C279.228 441.636 277.659 442 275.812 442ZM272.403 440.047H275.67C277.174 440.047 278.42 439.757 279.408 439.177C280.396 438.597 281.133 437.771 281.619 436.7C282.104 435.629 282.347 434.353 282.347 432.874C282.347 431.406 282.107 430.142 281.627 429.083C281.148 428.017 280.432 427.201 279.479 426.632C278.526 426.058 277.339 425.771 275.919 425.771H272.403V440.047ZM287.886 442V428.364H289.911V430.423H290.053C290.301 429.749 290.751 429.201 291.402 428.781C292.053 428.361 292.787 428.151 293.604 428.151C293.758 428.151 293.95 428.154 294.181 428.159C294.412 428.165 294.586 428.174 294.705 428.186V430.317C294.634 430.299 294.471 430.272 294.216 430.237C293.968 430.195 293.704 430.175 293.426 430.175C292.763 430.175 292.171 430.314 291.651 430.592C291.136 430.864 290.727 431.243 290.425 431.728C290.129 432.208 289.982 432.755 289.982 433.371V442H287.886ZM301.201 442.32C300.337 442.32 299.553 442.157 298.848 441.831C298.144 441.5 297.585 441.023 297.17 440.402C296.756 439.775 296.549 439.017 296.549 438.129C296.549 437.348 296.703 436.715 297.011 436.229C297.318 435.738 297.73 435.353 298.245 435.075C298.759 434.797 299.328 434.59 299.949 434.454C300.576 434.312 301.207 434.199 301.84 434.116C302.669 434.01 303.34 433.93 303.855 433.877C304.376 433.818 304.755 433.72 304.992 433.584C305.234 433.448 305.356 433.211 305.356 432.874V432.803C305.356 431.927 305.116 431.246 304.637 430.761C304.163 430.275 303.444 430.033 302.479 430.033C301.479 430.033 300.695 430.252 300.127 430.69C299.559 431.128 299.159 431.595 298.928 432.092L296.94 431.382C297.295 430.554 297.768 429.908 298.36 429.447C298.958 428.979 299.609 428.654 300.313 428.47C301.023 428.281 301.722 428.186 302.408 428.186C302.846 428.186 303.349 428.239 303.918 428.346C304.492 428.446 305.045 428.657 305.578 428.976C306.116 429.296 306.563 429.778 306.918 430.423C307.273 431.068 307.451 431.933 307.451 433.016V442H305.356V440.153H305.249C305.107 440.449 304.87 440.766 304.539 441.103C304.208 441.441 303.767 441.728 303.216 441.964C302.666 442.201 301.994 442.32 301.201 442.32ZM301.521 440.438C302.349 440.438 303.047 440.275 303.616 439.949C304.19 439.624 304.622 439.203 304.912 438.689C305.208 438.174 305.356 437.632 305.356 437.064V435.146C305.267 435.253 305.072 435.35 304.77 435.439C304.474 435.522 304.131 435.596 303.74 435.661C303.355 435.72 302.979 435.774 302.612 435.821C302.251 435.862 301.958 435.898 301.734 435.928C301.189 435.999 300.68 436.114 300.207 436.274C299.739 436.428 299.36 436.661 299.07 436.975C298.786 437.283 298.644 437.703 298.644 438.236C298.644 438.964 298.913 439.514 299.452 439.887C299.996 440.254 300.686 440.438 301.521 440.438ZM313.37 433.797V442H311.275V423.818H313.37V430.494H313.548C313.867 429.79 314.347 429.231 314.986 428.816C315.631 428.396 316.489 428.186 317.561 428.186C318.49 428.186 319.304 428.373 320.002 428.745C320.7 429.112 321.242 429.678 321.627 430.441C322.017 431.199 322.213 432.163 322.213 433.335V442H320.117V433.477C320.117 432.394 319.836 431.557 319.274 430.965C318.718 430.367 317.945 430.068 316.957 430.068C316.27 430.068 315.655 430.213 315.11 430.503C314.572 430.793 314.146 431.216 313.832 431.773C313.524 432.329 313.37 433.004 313.37 433.797ZM331.976 428.364V430.139H324.909V428.364H331.976ZM326.969 425.097H329.064V438.094C329.064 438.686 329.15 439.129 329.321 439.425C329.499 439.715 329.724 439.911 329.996 440.011C330.274 440.106 330.567 440.153 330.875 440.153C331.106 440.153 331.295 440.142 331.443 440.118C331.591 440.088 331.71 440.065 331.798 440.047L332.225 441.929C332.082 441.982 331.884 442.036 331.63 442.089C331.375 442.148 331.053 442.178 330.662 442.178C330.07 442.178 329.49 442.05 328.922 441.796C328.36 441.541 327.892 441.154 327.519 440.633C327.152 440.112 326.969 439.455 326.969 438.662V425.097ZM353.682 440.864L352.315 439.514L357.944 433.886H343.366V431.933H357.944L352.315 426.322L353.682 424.955L361.637 432.909L353.682 440.864ZM383.27 428.364C383.163 427.464 382.731 426.766 381.974 426.268C381.216 425.771 380.287 425.523 379.186 425.523C378.381 425.523 377.677 425.653 377.073 425.913C376.475 426.174 376.008 426.532 375.67 426.988C375.339 427.443 375.173 427.961 375.173 428.541C375.173 429.027 375.289 429.444 375.52 429.793C375.756 430.136 376.058 430.423 376.425 430.654C376.792 430.879 377.177 431.065 377.579 431.213C377.982 431.355 378.352 431.471 378.689 431.56L380.536 432.057C381.009 432.181 381.536 432.353 382.116 432.572C382.702 432.791 383.261 433.09 383.794 433.468C384.332 433.841 384.776 434.321 385.125 434.907C385.475 435.493 385.649 436.212 385.649 437.064C385.649 438.046 385.392 438.934 384.877 439.727C384.368 440.52 383.622 441.151 382.64 441.618C381.663 442.086 380.476 442.32 379.08 442.32C377.777 442.32 376.65 442.109 375.697 441.689C374.75 441.269 374.004 440.683 373.46 439.931C372.921 439.18 372.616 438.307 372.545 437.312H374.818C374.877 437.999 375.108 438.567 375.511 439.017C375.919 439.461 376.434 439.792 377.055 440.011C377.683 440.224 378.357 440.331 379.08 440.331C379.92 440.331 380.675 440.195 381.343 439.923C382.012 439.644 382.542 439.26 382.933 438.768C383.323 438.271 383.518 437.691 383.518 437.028C383.518 436.425 383.35 435.933 383.012 435.555C382.675 435.176 382.231 434.868 381.681 434.631C381.13 434.395 380.536 434.187 379.896 434.01L377.659 433.371C376.239 432.962 375.114 432.379 374.286 431.622C373.457 430.864 373.043 429.873 373.043 428.648C373.043 427.63 373.318 426.742 373.868 425.984C374.425 425.221 375.17 424.629 376.105 424.209C377.047 423.783 378.097 423.57 379.257 423.57C380.429 423.57 381.471 423.78 382.382 424.2C383.294 424.614 384.016 425.182 384.548 425.904C385.087 426.627 385.371 427.446 385.401 428.364H383.27ZM394.915 428.364V430.139H387.849V428.364H394.915ZM389.908 425.097H392.003V438.094C392.003 438.686 392.089 439.129 392.261 439.425C392.438 439.715 392.663 439.911 392.936 440.011C393.214 440.106 393.507 440.153 393.815 440.153C394.045 440.153 394.235 440.142 394.383 440.118C394.531 440.088 394.649 440.065 394.738 440.047L395.164 441.929C395.022 441.982 394.824 442.036 394.569 442.089C394.315 442.148 393.992 442.178 393.601 442.178C393.01 442.178 392.43 442.05 391.861 441.796C391.299 441.541 390.832 441.154 390.459 440.633C390.092 440.112 389.908 439.455 389.908 438.662V425.097ZM398.067 442V428.364H400.091V430.423H400.233C400.482 429.749 400.932 429.201 401.583 428.781C402.234 428.361 402.968 428.151 403.784 428.151C403.938 428.151 404.131 428.154 404.361 428.159C404.592 428.165 404.767 428.174 404.885 428.186V430.317C404.814 430.299 404.651 430.272 404.397 430.237C404.148 430.195 403.885 430.175 403.607 430.175C402.944 430.175 402.352 430.314 401.831 430.592C401.316 430.864 400.908 431.243 400.606 431.728C400.31 432.208 400.162 432.755 400.162 433.371V442H398.067ZM412.494 442.284C411.262 442.284 410.182 441.991 409.253 441.405C408.33 440.819 407.608 440 407.087 438.946C406.572 437.893 406.315 436.661 406.315 435.253C406.315 433.832 406.572 432.592 407.087 431.533C407.608 430.474 408.33 429.651 409.253 429.065C410.182 428.479 411.262 428.186 412.494 428.186C413.725 428.186 414.802 428.479 415.725 429.065C416.654 429.651 417.376 430.474 417.891 431.533C418.412 432.592 418.672 433.832 418.672 435.253C418.672 436.661 418.412 437.893 417.891 438.946C417.376 440 416.654 440.819 415.725 441.405C414.802 441.991 413.725 442.284 412.494 442.284ZM412.494 440.402C413.429 440.402 414.198 440.162 414.802 439.683C415.405 439.203 415.852 438.573 416.142 437.792C416.432 437.011 416.577 436.164 416.577 435.253C416.577 434.341 416.432 433.492 416.142 432.705C415.852 431.918 415.405 431.281 414.802 430.796C414.198 430.311 413.429 430.068 412.494 430.068C411.558 430.068 410.789 430.311 410.185 430.796C409.582 431.281 409.135 431.918 408.845 432.705C408.555 433.492 408.41 434.341 408.41 435.253C408.41 436.164 408.555 437.011 408.845 437.792C409.135 438.573 409.582 439.203 410.185 439.683C410.789 440.162 411.558 440.402 412.494 440.402ZM421.871 442V428.364H423.895V430.494H424.072C424.357 429.766 424.815 429.201 425.449 428.799C426.082 428.39 426.842 428.186 427.73 428.186C428.63 428.186 429.378 428.39 429.976 428.799C430.58 429.201 431.05 429.766 431.388 430.494H431.53C431.879 429.79 432.403 429.231 433.101 428.816C433.8 428.396 434.637 428.186 435.614 428.186C436.833 428.186 437.83 428.568 438.605 429.331C439.381 430.089 439.768 431.27 439.768 432.874V442H437.673V432.874C437.673 431.867 437.398 431.148 436.848 430.716C436.297 430.284 435.649 430.068 434.903 430.068C433.945 430.068 433.202 430.358 432.675 430.938C432.148 431.512 431.885 432.24 431.885 433.122V442H429.754V432.661C429.754 431.885 429.503 431.261 429 430.787C428.497 430.308 427.848 430.068 427.055 430.068C426.511 430.068 426.002 430.213 425.528 430.503C425.061 430.793 424.682 431.196 424.392 431.711C424.108 432.22 423.966 432.808 423.966 433.477V442H421.871Z" fill="white"/>
<path d="M115.586 101.586C114.805 102.367 114.805 103.633 115.586 104.414L128.314 117.142C129.095 117.923 130.361 117.923 131.142 117.142C131.923 116.361 131.923 115.095 131.142 114.314L119.828 103L131.142 91.6863C131.923 90.9052 131.923 89.6389 131.142 88.8579C130.361 88.0768 129.095 88.0768 128.314 88.8579L115.586 101.586ZM259.014 101L117 101V105L259.014 105V101Z" fill="white"/>
<path d="M151.586 257.586C150.805 258.367 150.805 259.633 151.586 260.414L164.314 273.142C165.095 273.923 166.361 273.923 167.142 273.142C167.923 272.361 167.923 271.095 167.142 270.314L155.828 259L167.142 247.686C167.923 246.905 167.923 245.639 167.142 244.858C166.361 244.077 165.095 244.077 164.314 244.858L151.586 257.586ZM259 257H153V261H259V257Z" fill="white"/>
<path d="M169.586 335.586C168.805 336.367 168.805 337.633 169.586 338.414L182.314 351.142C183.095 351.923 184.361 351.923 185.142 351.142C185.923 350.361 185.923 349.095 185.142 348.314L173.828 337L185.142 325.686C185.923 324.905 185.923 323.639 185.142 322.858C184.361 322.077 183.095 322.077 182.314 322.858L169.586 335.586ZM259 335H171V339H259V335Z" fill="white"/>
<path d="M112.586 431.586C111.805 432.367 111.805 433.633 112.586 434.414L125.314 447.142C126.095 447.923 127.361 447.923 128.142 447.142C128.923 446.361 128.923 445.095 128.142 444.314L116.828 433L128.142 421.686C128.923 420.905 128.923 419.639 128.142 418.858C127.361 418.077 126.095 418.077 125.314 418.858L112.586 431.586ZM259 431H114V435H259V431Z" fill="white"/>
<path d="M272 189.135L272.158 187.141L272 189.135ZM130.609 229.073C131.403 229.841 132.669 229.82 133.437 229.026L145.952 216.088C146.72 215.294 146.699 214.028 145.906 213.26C145.112 212.492 143.846 212.513 143.078 213.307L131.953 224.807L120.453 213.683C119.659 212.915 118.393 212.936 117.625 213.73C116.857 214.523 116.878 215.79 117.672 216.558L130.609 229.073ZM416.022 231.916C387.156 214.746 372.774 205.169 354.826 199.126C336.862 193.079 315.357 190.57 272.158 187.141L271.842 191.129C315.143 194.565 336.138 197.056 353.549 202.917C370.976 208.784 384.844 218.025 413.978 235.354L416.022 231.916ZM272.158 187.141C228.811 183.701 193.418 185.506 168.844 192.175C156.561 195.508 146.829 200.096 140.168 205.987C133.451 211.926 129.86 219.199 130 227.668L134 227.602C133.881 220.463 136.848 214.262 142.817 208.983C148.842 203.656 157.924 199.283 169.892 196.035C193.823 189.541 228.689 187.704 271.842 191.129L272.158 187.141Z" fill="white"/>
<path d="M298.597 161.952L298.489 163.949L298.597 161.952ZM78.0808 229.187C78.8096 230.017 80.0732 230.099 80.9033 229.37L94.4297 217.495C95.2598 216.766 95.3419 215.502 94.6131 214.672C93.8843 213.842 92.6207 213.76 91.7906 214.489L79.7671 225.045L69.2108 213.022C68.4821 212.191 67.2184 212.109 66.3884 212.838C65.5583 213.567 65.4762 214.831 66.205 215.661L78.0808 229.187ZM523.144 235.569C477.941 206.362 452.199 189.013 422.568 178.227C392.895 167.427 359.41 163.229 298.705 159.955L298.489 163.949C359.187 167.223 392.139 171.408 421.2 181.986C450.301 192.579 475.589 209.605 520.973 238.928L523.144 235.569ZM298.705 159.955C237.834 156.671 183.517 162.658 144.001 174.791C124.25 180.855 108.093 188.486 96.6586 197.346C85.2321 206.201 78.3213 216.452 77.5879 227.738L81.5795 227.997C82.2108 218.282 88.1836 208.974 99.1087 200.508C110.026 192.049 125.688 184.598 145.175 178.615C184.132 166.654 237.957 160.684 298.489 163.949L298.705 159.955Z" fill="white"/>
<defs>
<filter id="filter0_i_0_1" x="89" y="-16" width="12" height="280" filterUnits="userSpaceOnUse" color-interpolation-filters="sRGB">
<feFlood flood-opacity="0" result="BackgroundImageFix"/>
<feBlend mode="normal" in="SourceGraphic" in2="BackgroundImageFix" result="shape"/>
<feColorMatrix in="SourceAlpha" type="matrix" values="0 0 0 0 0 0 0 0 0 0 0 0 0 0 0 0 0 0 127 0" result="hardAlpha"/>
<feMorphology radius="1" operator="erode" in="SourceAlpha" result="effect1_innerShadow_0_1"/>
<feOffset dy="4"/>
<feGaussianBlur stdDeviation="2"/>
<feComposite in2="hardAlpha" operator="arithmetic" k2="-1" k3="1"/>
<feColorMatrix type="matrix" values="0 0 0 0 0 0 0 0 0 0 0 0 0 0 0 0 0 0 0.67 0"/>
<feBlend mode="normal" in2="shape" result="effect1_innerShadow_0_1"/>
</filter>
</defs>
</svg>
