<svg aria-hidden="false" aria-label="Interactive chart" viewBox="0 0 600 400" height="400" width="600" xmlns="http://www.w3.org/2000/svg" style="font-family: Montserrat; font-size: 14px;" class="highcharts-root" version="1.1" xmlns:xlink="http://www.w3.org/1999/xlink"><desc aria-hidden="true">Created with Highcharts 10.2.1</desc><defs aria-hidden="true"><clipPath id="highcharts-jazsh7k-19-"><rect fill="none" height="339" width="389" y="0" x="0"></rect></clipPath><clipPath id="highcharts-jazsh7k-31-"><rect fill="none" height="339" width="389" y="0" x="0"></rect></clipPath></defs><rect aria-hidden="true" ry="0" rx="0" height="400" width="600" y="0" x="0" class="highcharts-background" fill="#ffffff"></rect><rect aria-hidden="true" height="339" width="389" y="0" x="65" class="highcharts-plot-background" fill="none"></rect><image aria-hidden="true" height="339" width="389" y="0" x="65" preserveAspectRatio="xMidYMid"></image><g aria-hidden="true" data-z-index="1" class="highcharts-grid highcharts-xaxis-grid"><path opacity="1" d="M 68.5 0 L 68.5 339" class="highcharts-grid-line" data-z-index="1" stroke-dasharray="none" fill="none"></path><path opacity="1" d="M 106.5 0 L 106.5 339" class="highcharts-grid-line" data-z-index="1" stroke-dasharray="none" fill="none"></path><path opacity="1" d="M 144.5 0 L 144.5 339" class="highcharts-grid-line" data-z-index="1" stroke-dasharray="none" fill="none"></path><path opacity="1" d="M 182.5 0 L 182.5 339" class="highcharts-grid-line" data-z-index="1" stroke-dasharray="none" fill="none"></path><path opacity="1" d="M 220.5 0 L 220.5 339" class="highcharts-grid-line" data-z-index="1" stroke-dasharray="none" fill="none"></path><path opacity="1" d="M 259.5 0 L 259.5 339" class="highcharts-grid-line" data-z-index="1" stroke-dasharray="none" fill="none"></path><path opacity="1" d="M 297.5 0 L 297.5 339" class="highcharts-grid-line" data-z-index="1" stroke-dasharray="none" fill="none"></path><path opacity="1" d="M 335.5 0 L 335.5 339" class="highcharts-grid-line" data-z-index="1" stroke-dasharray="none" fill="none"></path><path opacity="1" d="M 373.5 0 L 373.5 339" class="highcharts-grid-line" data-z-index="1" stroke-dasharray="none" fill="none"></path><path opacity="1" d="M 411.5 0 L 411.5 339" class="highcharts-grid-line" data-z-index="1" stroke-dasharray="none" fill="none"></path><path opacity="1" d="M 449.5 0 L 449.5 339" class="highcharts-grid-line" data-z-index="1" stroke-dasharray="none" fill="none"></path></g><g aria-hidden="true" data-z-index="1" class="highcharts-grid highcharts-yaxis-grid"><path opacity="1" d="M 80 339.5 L 469 339.5" class="highcharts-grid-line" data-z-index="1" stroke-dasharray="none" stroke-width="1" stroke="#e6e6e6" fill="none"></path><path opacity="1" d="M 80 297.5 L 469 297.5" class="highcharts-grid-line" data-z-index="1" stroke-dasharray="none" stroke-width="1" stroke="#e6e6e6" fill="none"></path><path opacity="1" d="M 80 254.5 L 469 254.5" class="highcharts-grid-line" data-z-index="1" stroke-dasharray="none" stroke-width="1" stroke="#e6e6e6" fill="none"></path><path opacity="1" d="M 80 212.5 L 469 212.5" class="highcharts-grid-line" data-z-index="1" stroke-dasharray="none" stroke-width="1" stroke="#e6e6e6" fill="none"></path><path opacity="1" d="M 80 170.5 L 469 170.5" class="highcharts-grid-line" data-z-index="1" stroke-dasharray="none" stroke-width="1" stroke="#e6e6e6" fill="none"></path><path opacity="1" d="M 80 127.5 L 469 127.5" class="highcharts-grid-line" data-z-index="1" stroke-dasharray="none" stroke-width="1" stroke="#e6e6e6" fill="none"></path><path opacity="1" d="M 80 85.5 L 469 85.5" class="highcharts-grid-line" data-z-index="1" stroke-dasharray="none" stroke-width="1" stroke="#e6e6e6" fill="none"></path><path opacity="1" d="M 80 42.5 L 469 42.5" class="highcharts-grid-line" data-z-index="1" stroke-dasharray="none" stroke-width="1" stroke="#e6e6e6" fill="none"></path><path opacity="1" d="M 80 -0.5 L 469 -0.5" class="highcharts-grid-line" data-z-index="1" stroke-dasharray="none" stroke-width="1" stroke="#e6e6e6" fill="none"></path></g><rect aria-hidden="true" height="339" width="389" y="0" x="65" data-z-index="1" class="highcharts-plot-border" fill="none"></rect><g aria-hidden="true" data-z-index="2" class="highcharts-axis highcharts-xaxis"><path opacity="1" d="M 68.5 339 L 68.5 349" stroke-width="1" stroke="#ccd6eb" class="highcharts-tick" fill="none"></path><path opacity="1" d="M 106.5 339 L 106.5 349" stroke-width="1" stroke="#ccd6eb" class="highcharts-tick" fill="none"></path><path opacity="1" d="M 144.5 339 L 144.5 349" stroke-width="1" stroke="#ccd6eb" class="highcharts-tick" fill="none"></path><path opacity="1" d="M 182.5 339 L 182.5 349" stroke-width="1" stroke="#ccd6eb" class="highcharts-tick" fill="none"></path><path opacity="1" d="M 220.5 339 L 220.5 349" stroke-width="1" stroke="#ccd6eb" class="highcharts-tick" fill="none"></path><path opacity="1" d="M 259.5 339 L 259.5 349" stroke-width="1" stroke="#ccd6eb" class="highcharts-tick" fill="none"></path><path opacity="1" d="M 297.5 339 L 297.5 349" stroke-width="1" stroke="#ccd6eb" class="highcharts-tick" fill="none"></path><path opacity="1" d="M 335.5 339 L 335.5 349" stroke-width="1" stroke="#ccd6eb" class="highcharts-tick" fill="none"></path><path opacity="1" d="M 373.5 339 L 373.5 349" stroke-width="1" stroke="#ccd6eb" class="highcharts-tick" fill="none"></path><path opacity="1" d="M 411.5 339 L 411.5 349" stroke-width="1" stroke="#ccd6eb" class="highcharts-tick" fill="none"></path><path opacity="1" d="M 449.5 339 L 449.5 349" stroke-width="1" stroke="#ccd6eb" class="highcharts-tick" fill="none"></path><text y="396" style="color: rgb(61, 99, 137); font-weight: bold; fill: rgb(61, 99, 137);" class="highcharts-axis-title" transform="translate(0,0)" text-anchor="middle" data-z-index="7" x="259.5">Years</text><path d="M 65 339.5 L 454 339.5" data-z-index="7" stroke-width="1" stroke="#ccd6eb" class="highcharts-axis-line" fill="none"></path></g><g aria-hidden="true" data-z-index="2" class="highcharts-axis highcharts-yaxis"><text y="169.5" style="color: rgb(61, 99, 137); font-weight: bold; font-size: 14px; fill: rgb(61, 99, 137);" class="highcharts-axis-title" transform="translate(0,0) rotate(270 32.61666679382324 169.5)" text-anchor="middle" data-z-index="7" x="32.61666679382324">Inflation (CPI, ann. var. %, aop)</text><path d="M 80 0 L 80 339" data-z-index="7" class="highcharts-axis-line" fill="none"></path></g><g aria-hidden="false" data-z-index="3" class="highcharts-series-group"><g aria-hidden="true" clip-path="url(#highcharts-jazsh7k-31-)" transform="translate(65,0) scale(1 1)" opacity="1" data-z-index="0.1" class="highcharts-series highcharts-series-0 highcharts-line-series highcharts-color-0"><path stroke-linecap="round" stroke-linejoin="round" stroke-width="2" stroke="#3E6389" data-z-index="1" class="highcharts-graph" d="M 3.8137254901961 332.64375 L 41.930094710392 332.64375 L 80.046463930589 324.16875 L 118.26726155961 286.03125 L 156.3836307798 294.50625 L 194.5 279.675 L 232.6163692202 271.2 L 270.83716684922 258.4875 L 308.95353606941 19.068750000000023 L 347.06990528961 112.29374999999999 L 385.1862745098 288.15" fill="none"></path></g><g aria-hidden="false" clip-path="none" transform="translate(65,0) scale(1 1)" opacity="1" data-z-index="0.1" class="highcharts-markers highcharts-series-0 highcharts-line-series highcharts-color-0"><path aria-label="2014, 0.3. Czech Republic." role="img" style="outline: none;" tabindex="-1" class="highcharts-point highcharts-color-0" opacity="1" d="M 3.0000000000000004 337 A 4 4 0 1 1 3.003999999333336 336.9999980000002 Z" fill="#3E6389"></path><path aria-label="2015, 0.3. Czech Republic." role="img" style="outline: none;" tabindex="-1" class="highcharts-point highcharts-color-0" opacity="1" d="M 41 337 A 4 4 0 1 1 41.00399999933334 336.9999980000002 Z" fill="#3E6389"></path><path aria-label="2016, 0.7. Czech Republic." role="img" style="outline: none;" tabindex="-1" class="highcharts-point highcharts-color-0" opacity="1" d="M 80 328 A 4 4 0 1 1 80.00399999933333 327.9999980000002 Z" fill="#3E6389"></path><path aria-label="2017, 2.5. Czech Republic." role="img" style="outline: none;" tabindex="-1" class="highcharts-point highcharts-color-0" opacity="1" d="M 118 290 A 4 4 0 1 1 118.00399999933333 289.9999980000002 Z" fill="#3E6389"></path><path aria-label="2018, 2.1. Czech Republic." role="img" style="outline: none;" tabindex="-1" class="highcharts-point highcharts-color-0" opacity="1" d="M 156 299 A 4 4 0 1 1 156.00399999933333 298.9999980000002 Z" fill="#3E6389"></path><path aria-label="2019, 2.8. Czech Republic." role="img" style="outline: none;" tabindex="-1" class="highcharts-point highcharts-color-0" opacity="1" d="M 194 284 A 4 4 0 1 1 194.00399999933333 283.9999980000002 Z" fill="#3E6389"></path><path aria-label="2020, 3.2. Czech Republic." role="img" style="outline: none;" tabindex="-1" class="highcharts-point highcharts-color-0" opacity="1" d="M 232 275 A 4 4 0 1 1 232.00399999933333 274.9999980000002 Z" fill="#3E6389"></path><path aria-label="2021, 3.8. Czech Republic." role="img" style="outline: none;" tabindex="-1" class="highcharts-point highcharts-color-0" opacity="1" d="M 270 262 A 4 4 0 1 1 270.00399999933336 261.9999980000002 Z" fill="#3E6389"></path><path aria-label="2022, 15.1. Czech Republic." role="img" style="outline: none;" tabindex="-1" class="highcharts-point highcharts-color-0" opacity="1" d="M 308 23 A 4 4 0 1 1 308.00399999933336 22.99999800000017 Z" fill="#3E6389"></path><path aria-label="2023, 10.7. Czech Republic." role="img" style="outline: none;" tabindex="-1" class="highcharts-point highcharts-color-0" opacity="1" d="M 347 116 A 4 4 0 1 1 347.00399999933336 115.99999800000016 Z" fill="#3E6389"></path><path aria-label="2024, 2.4. Czech Republic." role="img" style="outline: none;" tabindex="-1" class="highcharts-point highcharts-color-0" opacity="1" d="M 385 292 A 4 4 0 1 1 385.00399999933336 291.9999980000002 Z" fill="#3E6389"></path></g></g><text aria-hidden="true" y="14" style="color: rgb(51, 51, 51); font-size: 18px; fill: rgb(51, 51, 51);" data-z-index="4" class="highcharts-title" text-anchor="middle" x="300"></text><text aria-hidden="true" y="12" style="color: rgb(153, 153, 153); font-size: 10px; fill: rgb(153, 153, 153);" data-z-index="4" class="highcharts-subtitle" text-anchor="middle" x="300"></text><text aria-hidden="true" y="414" style="color: rgb(102, 102, 102); fill: rgb(102, 102, 102);" data-z-index="4" class="highcharts-caption" text-anchor="start" x="0"></text><g aria-hidden="true" transform="translate(466,0)" data-z-index="7" class="highcharts-legend highcharts-no-tooltip"><rect height="26" width="133" y="0" x="0" ry="0" rx="0" class="highcharts-legend-box" fill="none"></rect><g data-z-index="1"><g><g transform="translate(8,276.15)" data-z-index="1" class="highcharts-legend-item highcharts-line-series highcharts-color-0 highcharts-series-0"><path stroke-width="2" stroke="#3E6389" class="highcharts-graph" d="M 0 11 L 16 11" fill="none"></path><path opacity="1" class="highcharts-point" d="M 8 15 A 4 4 0 1 1 8.003999999333336 14.999998000000167 Z" fill="#3E6389"></path><text y="15" data-z-index="2" text-anchor="start" style="color: rgb(51, 51, 51); cursor: pointer; font-size: 12px; font-weight: bold; fill: rgb(51, 51, 51);" x="21">Czech Republic</text></g></g></g></g><g aria-hidden="true" data-z-index="7" class="highcharts-axis-labels highcharts-xaxis-labels"><text opacity="1" y="359" transform="translate(0,0)" text-anchor="middle" style="color: rgb(102, 102, 102); cursor: default; font-size: 12px; fill: rgb(102, 102, 102);" x="68.813725490196">2014</text><text opacity="1" y="359" transform="translate(0,0)" text-anchor="middle" style="color: rgb(102, 102, 102); cursor: default; font-size: 12px; fill: rgb(102, 102, 102);" x="106.93009471039">2015</text><text opacity="1" y="359" transform="translate(0,0)" text-anchor="middle" style="color: rgb(102, 102, 102); cursor: default; font-size: 12px; fill: rgb(102, 102, 102);" x="145.04646393059">2016</text><text opacity="1" y="359" transform="translate(0,0)" text-anchor="middle" style="color: rgb(102, 102, 102); cursor: default; font-size: 12px; fill: rgb(102, 102, 102);" x="183.26726155961">2017</text><text opacity="1" y="359" transform="translate(0,0)" text-anchor="middle" style="color: rgb(102, 102, 102); cursor: default; font-size: 12px; fill: rgb(102, 102, 102);" x="221.3836307798">2018</text><text opacity="1" y="359" transform="translate(0,0)" text-anchor="middle" style="color: rgb(102, 102, 102); cursor: default; font-size: 12px; fill: rgb(102, 102, 102);" x="259.5">2019</text><text opacity="1" y="359" transform="translate(0,0)" text-anchor="middle" style="color: rgb(102, 102, 102); cursor: default; font-size: 12px; fill: rgb(102, 102, 102);" x="297.6163692202">2020</text><text opacity="1" y="359" transform="translate(0,0)" text-anchor="middle" style="color: rgb(102, 102, 102); cursor: default; font-size: 12px; fill: rgb(102, 102, 102);" x="335.83716684922">2021</text><text opacity="1" y="359" transform="translate(0,0)" text-anchor="middle" style="color: rgb(102, 102, 102); cursor: default; font-size: 12px; fill: rgb(102, 102, 102);" x="373.95353606941">2022</text><text opacity="1" y="359" transform="translate(0,0)" text-anchor="middle" style="color: rgb(102, 102, 102); cursor: default; font-size: 12px; fill: rgb(102, 102, 102);" x="412.06990528961">2023</text><text opacity="1" y="359" transform="translate(0,0)" text-anchor="middle" style="color: rgb(102, 102, 102); cursor: default; font-size: 12px; fill: rgb(102, 102, 102);" x="450.1862745098">2024</text></g><g aria-hidden="true" data-z-index="7" class="highcharts-axis-labels highcharts-yaxis-labels"><text opacity="1" y="344" transform="translate(0,0)" text-anchor="end" style="color: rgb(102, 102, 102); cursor: default; font-size: 12px; fill: rgb(102, 102, 102);" x="65">0</text><text opacity="1" y="301" transform="translate(0,0)" text-anchor="end" style="color: rgb(102, 102, 102); cursor: default; font-size: 12px; fill: rgb(102, 102, 102);" x="65">2</text><text opacity="1" y="259" transform="translate(0,0)" text-anchor="end" style="color: rgb(102, 102, 102); cursor: default; font-size: 12px; fill: rgb(102, 102, 102);" x="65">4</text><text opacity="1" y="216" transform="translate(0,0)" text-anchor="end" style="color: rgb(102, 102, 102); cursor: default; font-size: 12px; fill: rgb(102, 102, 102);" x="65">6</text><text opacity="1" y="174" transform="translate(0,0)" text-anchor="end" style="color: rgb(102, 102, 102); cursor: default; font-size: 12px; fill: rgb(102, 102, 102);" x="65">8</text><text opacity="1" y="132" transform="translate(0,0)" text-anchor="end" style="color: rgb(102, 102, 102); cursor: default; font-size: 12px; fill: rgb(102, 102, 102);" x="65">10</text><text opacity="1" y="89" transform="translate(0,0)" text-anchor="end" style="color: rgb(102, 102, 102); cursor: default; font-size: 12px; fill: rgb(102, 102, 102);" x="65">12</text><text opacity="1" y="47" transform="translate(0,0)" text-anchor="end" style="color: rgb(102, 102, 102); cursor: default; font-size: 12px; fill: rgb(102, 102, 102);" x="65">14</text><text opacity="1" y="5" transform="translate(0,0)" text-anchor="end" style="color: rgb(102, 102, 102); cursor: default; font-size: 12px; fill: rgb(102, 102, 102);" x="65">16</text></g></svg>