<svg width="706" height="524" viewBox="0 0 706 524" fill="none" xmlns="http://www.w3.org/2000/svg">
<rect x="137" y="2" width="210" height="74" stroke="white" stroke-width="4"/>
<path d="M176.259 25.0909H180.148L189.293 47.4276H189.608L198.753 25.0909H202.642V52H199.594V31.5554H199.331L190.922 52H187.979L179.57 31.5554H179.307V52H176.259V25.0909ZM217.217 52.4205C215.272 52.4205 213.595 51.9912 212.184 51.1328C210.783 50.2656 209.701 49.0568 208.939 47.5064C208.186 45.9472 207.809 44.134 207.809 42.0668C207.809 39.9995 208.186 38.1776 208.939 36.6009C209.701 35.0154 210.761 33.7803 212.119 32.8956C213.485 32.0021 215.079 31.5554 216.901 31.5554C217.953 31.5554 218.991 31.7306 220.015 32.081C221.04 32.4313 221.973 33.0007 222.814 33.7891C223.655 34.5687 224.325 35.6023 224.824 36.8899C225.324 38.1776 225.573 39.763 225.573 41.6463V42.9602H210.016V40.2798H222.42C222.42 39.1411 222.192 38.125 221.737 37.2315C221.29 36.3381 220.65 35.6329 219.818 35.1161C218.995 34.5993 218.023 34.3409 216.901 34.3409C215.666 34.3409 214.598 34.6475 213.695 35.2607C212.802 35.8651 212.114 36.6534 211.633 37.6257C211.151 38.598 210.91 39.6404 210.91 40.7528V42.5398C210.91 44.0639 211.173 45.3559 211.698 46.4158C212.233 47.467 212.973 48.2685 213.919 48.8203C214.865 49.3634 215.964 49.6349 217.217 49.6349C218.031 49.6349 218.767 49.5211 219.424 49.2933C220.09 49.0568 220.664 48.7064 221.145 48.2422C221.627 47.7692 221.999 47.1823 222.262 46.4815L225.258 47.3224C224.943 48.3385 224.413 49.232 223.668 50.0028C222.924 50.7649 222.004 51.3606 220.909 51.7898C219.814 52.2102 218.583 52.4205 217.217 52.4205ZM233.391 39.8594V52H230.29V31.8182H233.286V34.9716H233.549C234.022 33.9467 234.74 33.1233 235.704 32.5014C236.667 31.8707 237.911 31.5554 239.435 31.5554C240.802 31.5554 241.997 31.8357 243.022 32.3963C244.047 32.9482 244.844 33.7891 245.413 34.919C245.983 36.0402 246.267 37.4593 246.267 39.1761V52H243.167V39.3864C243.167 37.8009 242.755 36.5658 241.932 35.6811C241.108 34.7876 239.978 34.3409 238.542 34.3409C237.552 34.3409 236.667 34.5555 235.888 34.9847C235.117 35.4139 234.508 36.0402 234.061 36.8636C233.614 37.687 233.391 38.6856 233.391 39.8594ZM266.229 36.3381L263.444 37.1264C263.269 36.6622 263.01 36.2111 262.669 35.7731C262.336 35.3263 261.88 34.9585 261.302 34.6694C260.724 34.3803 259.984 34.2358 259.081 34.2358C257.846 34.2358 256.817 34.5205 255.994 35.0898C255.179 35.6504 254.772 36.3643 254.772 37.2315C254.772 38.0024 255.052 38.6111 255.613 39.0579C256.173 39.5046 257.049 39.8769 258.241 40.1747L261.236 40.9105C263.041 41.3485 264.385 42.0186 265.27 42.9208C266.155 43.8143 266.597 44.9661 266.597 46.3764C266.597 47.5327 266.264 48.5663 265.599 49.4773C264.942 50.3883 264.022 51.1065 262.839 51.6321C261.657 52.1577 260.282 52.4205 258.714 52.4205C256.655 52.4205 254.951 51.9737 253.602 51.0803C252.253 50.1868 251.399 48.8816 251.04 47.1648L253.983 46.429C254.264 47.5152 254.794 48.3298 255.573 48.8729C256.362 49.416 257.391 49.6875 258.661 49.6875C260.106 49.6875 261.254 49.3809 262.104 48.7678C262.962 48.1458 263.391 47.4013 263.391 46.5341C263.391 45.8333 263.146 45.2464 262.655 44.7734C262.165 44.2917 261.412 43.9325 260.395 43.696L257.032 42.9077C255.184 42.4697 253.826 41.7908 252.959 40.8711C252.1 39.9426 251.671 38.782 251.671 37.3892C251.671 36.2505 251.991 35.2431 252.63 34.3672C253.278 33.4912 254.159 32.8036 255.271 32.3043C256.392 31.805 257.662 31.5554 259.081 31.5554C261.079 31.5554 262.647 31.9934 263.785 32.8693C264.933 33.7453 265.747 34.9015 266.229 36.3381ZM279.464 52.4205C277.572 52.4205 275.942 51.9737 274.576 51.0803C273.209 50.1868 272.158 48.9561 271.422 47.3881C270.687 45.8202 270.319 44.0289 270.319 42.0142C270.319 39.9645 270.695 38.1557 271.449 36.5877C272.211 35.011 273.271 33.7803 274.628 32.8956C275.995 32.0021 277.589 31.5554 279.411 31.5554C280.83 31.5554 282.109 31.8182 283.248 32.3438C284.387 32.8693 285.319 33.6051 286.046 34.5511C286.773 35.4972 287.225 36.6009 287.4 37.8622H284.299C284.062 36.9425 283.537 36.1278 282.722 35.4183C281.916 34.7 280.83 34.3409 279.464 34.3409C278.255 34.3409 277.195 34.6562 276.284 35.2869C275.382 35.9089 274.677 36.7892 274.169 37.9279C273.669 39.0579 273.42 40.3849 273.42 41.9091C273.42 43.4683 273.665 44.826 274.155 45.9822C274.655 47.1385 275.355 48.0363 276.258 48.6758C277.169 49.3152 278.237 49.6349 279.464 49.6349C280.27 49.6349 281.001 49.4948 281.658 49.2145C282.315 48.9342 282.871 48.5312 283.327 48.0057C283.782 47.4801 284.106 46.8494 284.299 46.1136H287.4C287.225 47.3049 286.791 48.378 286.099 49.3327C285.416 50.2788 284.509 51.0321 283.379 51.5927C282.258 52.1445 280.953 52.4205 279.464 52.4205ZM295.034 39.8594V52H291.933V25.0909H295.034V34.9716H295.296C295.769 33.9292 296.479 33.1014 297.425 32.4883C298.38 31.8664 299.65 31.5554 301.235 31.5554C302.611 31.5554 303.815 31.8313 304.849 32.3832C305.882 32.9263 306.684 33.7628 307.253 34.8928C307.831 36.014 308.12 37.4418 308.12 39.1761V52H305.019V39.3864C305.019 37.7834 304.603 36.5439 303.771 35.668C302.948 34.7833 301.805 34.3409 300.342 34.3409C299.326 34.3409 298.415 34.5555 297.609 34.9847C296.812 35.4139 296.181 36.0402 295.717 36.8636C295.261 37.687 295.034 38.6856 295.034 39.8594Z" fill="white"/>
<path d="M244.5 101C244.5 99.6193 243.381 98.5 242 98.5C240.619 98.5 239.5 99.6193 239.5 101H244.5ZM240.232 226.768C241.209 227.744 242.791 227.744 243.768 226.768L259.678 210.858C260.654 209.882 260.654 208.299 259.678 207.322C258.701 206.346 257.118 206.346 256.142 207.322L242 221.464L227.858 207.322C226.882 206.346 225.299 206.346 224.322 207.322C223.346 208.299 223.346 209.882 224.322 210.858L240.232 226.768ZM239.5 101V225H244.5V101H239.5Z" fill="white"/>
<path d="M185.259 269V242.091H194.351C196.453 242.091 198.179 242.45 199.528 243.168C200.877 243.878 201.875 244.855 202.523 246.098C203.172 247.342 203.496 248.757 203.496 250.342C203.496 251.928 203.172 253.334 202.523 254.56C201.875 255.786 200.881 256.75 199.541 257.451C198.201 258.143 196.488 258.489 194.403 258.489H187.045V255.545H194.298C195.735 255.545 196.891 255.335 197.767 254.915C198.652 254.494 199.291 253.899 199.685 253.128C200.088 252.348 200.29 251.42 200.29 250.342C200.29 249.265 200.088 248.323 199.685 247.517C199.282 246.712 198.639 246.09 197.754 245.652C196.869 245.205 195.7 244.982 194.246 244.982H188.517V269H185.259ZM197.925 256.912L204.547 269H200.763L194.246 256.912H197.925ZM216.75 269.42C214.805 269.42 213.128 268.991 211.718 268.133C210.316 267.266 209.234 266.057 208.472 264.506C207.719 262.947 207.342 261.134 207.342 259.067C207.342 257 207.719 255.178 208.472 253.601C209.234 252.015 210.294 250.78 211.652 249.896C213.018 249.002 214.613 248.555 216.435 248.555C217.486 248.555 218.524 248.731 219.549 249.081C220.573 249.431 221.506 250.001 222.347 250.789C223.188 251.569 223.858 252.602 224.358 253.89C224.857 255.178 225.106 256.763 225.106 258.646V259.96H209.55V257.28H221.953C221.953 256.141 221.725 255.125 221.27 254.232C220.823 253.338 220.184 252.633 219.351 252.116C218.528 251.599 217.556 251.341 216.435 251.341C215.199 251.341 214.131 251.647 213.229 252.261C212.335 252.865 211.648 253.653 211.166 254.626C210.684 255.598 210.443 256.64 210.443 257.753V259.54C210.443 261.064 210.706 262.356 211.231 263.416C211.766 264.467 212.506 265.268 213.452 265.82C214.398 266.363 215.497 266.635 216.75 266.635C217.565 266.635 218.3 266.521 218.957 266.293C219.623 266.057 220.197 265.706 220.679 265.242C221.16 264.769 221.533 264.182 221.795 263.482L224.791 264.322C224.476 265.339 223.946 266.232 223.201 267.003C222.457 267.765 221.537 268.361 220.442 268.79C219.347 269.21 218.116 269.42 216.75 269.42ZM237.97 276.989C236.472 276.989 235.184 276.796 234.107 276.411C233.029 276.034 232.132 275.535 231.413 274.913C230.704 274.299 230.139 273.643 229.718 272.942L232.188 271.207C232.469 271.575 232.824 271.996 233.253 272.469C233.682 272.951 234.269 273.367 235.013 273.717C235.767 274.076 236.752 274.256 237.97 274.256C239.599 274.256 240.944 273.862 242.003 273.073C243.063 272.285 243.593 271.05 243.593 269.368V265.268H243.331C243.103 265.636 242.779 266.092 242.358 266.635C241.947 267.169 241.351 267.647 240.571 268.067C239.8 268.479 238.758 268.685 237.444 268.685C235.815 268.685 234.352 268.299 233.056 267.528C231.768 266.758 230.748 265.636 229.994 264.165C229.25 262.693 228.877 260.906 228.877 258.804C228.877 256.737 229.241 254.937 229.968 253.404C230.695 251.862 231.707 250.671 233.003 249.83C234.3 248.98 235.797 248.555 237.497 248.555C238.811 248.555 239.853 248.774 240.624 249.212C241.403 249.642 241.999 250.132 242.411 250.684C242.831 251.227 243.155 251.674 243.383 252.024H243.698V248.818H246.694V269.578C246.694 271.312 246.3 272.723 245.512 273.809C244.732 274.904 243.681 275.705 242.358 276.213C241.044 276.73 239.581 276.989 237.97 276.989ZM237.865 265.899C239.108 265.899 240.16 265.614 241.018 265.045C241.876 264.476 242.529 263.657 242.976 262.588C243.422 261.519 243.646 260.241 243.646 258.751C243.646 257.297 243.427 256.014 242.989 254.902C242.551 253.789 241.903 252.918 241.044 252.287C240.186 251.656 239.126 251.341 237.865 251.341C236.551 251.341 235.456 251.674 234.58 252.339C233.713 253.005 233.06 253.899 232.622 255.02C232.193 256.141 231.978 257.385 231.978 258.751C231.978 260.153 232.197 261.392 232.635 262.47C233.082 263.538 233.739 264.379 234.606 264.993C235.482 265.597 236.568 265.899 237.865 265.899ZM255.471 242.091V269H252.37V242.091H255.471ZM269.612 269.42C267.668 269.42 265.99 268.991 264.58 268.133C263.178 267.266 262.097 266.057 261.335 264.506C260.581 262.947 260.205 261.134 260.205 259.067C260.205 257 260.581 255.178 261.335 253.601C262.097 252.015 263.156 250.78 264.514 249.896C265.881 249.002 267.475 248.555 269.297 248.555C270.348 248.555 271.386 248.731 272.411 249.081C273.436 249.431 274.369 250.001 275.21 250.789C276.05 251.569 276.721 252.602 277.22 253.89C277.719 255.178 277.969 256.763 277.969 258.646V259.96H262.412V257.28H274.815C274.815 256.141 274.588 255.125 274.132 254.232C273.685 253.338 273.046 252.633 272.214 252.116C271.39 251.599 270.418 251.341 269.297 251.341C268.062 251.341 266.993 251.647 266.091 252.261C265.197 252.865 264.51 253.653 264.028 254.626C263.546 255.598 263.305 256.64 263.305 257.753V259.54C263.305 261.064 263.568 262.356 264.094 263.416C264.628 264.467 265.368 265.268 266.314 265.82C267.26 266.363 268.36 266.635 269.612 266.635C270.427 266.635 271.163 266.521 271.82 266.293C272.485 266.057 273.059 265.706 273.541 265.242C274.023 264.769 274.395 264.182 274.658 263.482L277.653 264.322C277.338 265.339 276.808 266.232 276.064 267.003C275.319 267.765 274.399 268.361 273.304 268.79C272.209 269.21 270.979 269.42 269.612 269.42ZM282.686 269V248.818H285.681V251.866H285.892C286.26 250.868 286.925 250.058 287.889 249.436C288.852 248.814 289.939 248.503 291.147 248.503C291.375 248.503 291.66 248.507 292.001 248.516C292.343 248.525 292.601 248.538 292.777 248.555V251.709C292.672 251.683 292.431 251.643 292.054 251.591C291.686 251.529 291.296 251.499 290.885 251.499C289.904 251.499 289.028 251.704 288.257 252.116C287.495 252.519 286.89 253.08 286.444 253.798C286.006 254.507 285.787 255.318 285.787 256.229V269H282.686Z" fill="white"/>
<path d="M289.984 160.989C288.487 160.989 287.199 160.796 286.121 160.411C285.044 160.034 284.146 159.535 283.428 158.913C282.718 158.299 282.153 157.643 281.733 156.942L284.203 155.207C284.483 155.575 284.838 155.996 285.267 156.469C285.697 156.951 286.283 157.367 287.028 157.717C287.781 158.076 288.767 158.256 289.984 158.256C291.614 158.256 292.958 157.862 294.018 157.073C295.078 156.285 295.608 155.05 295.608 153.368V149.268H295.345C295.117 149.636 294.793 150.092 294.373 150.635C293.961 151.169 293.366 151.647 292.586 152.067C291.815 152.479 290.773 152.685 289.459 152.685C287.83 152.685 286.367 152.299 285.07 151.528C283.783 150.758 282.762 149.636 282.009 148.165C281.264 146.693 280.892 144.906 280.892 142.804C280.892 140.737 281.256 138.937 281.983 137.404C282.71 135.862 283.721 134.671 285.018 133.83C286.314 132.98 287.812 132.555 289.511 132.555C290.825 132.555 291.868 132.774 292.638 133.212C293.418 133.642 294.014 134.132 294.425 134.684C294.846 135.227 295.17 135.674 295.398 136.024H295.713V132.818H298.709V153.578C298.709 155.312 298.315 156.723 297.526 157.809C296.747 158.904 295.696 159.705 294.373 160.213C293.059 160.73 291.596 160.989 289.984 160.989ZM289.879 149.899C291.123 149.899 292.174 149.614 293.033 149.045C293.891 148.476 294.544 147.657 294.99 146.588C295.437 145.519 295.661 144.241 295.661 142.751C295.661 141.297 295.442 140.014 295.004 138.902C294.566 137.789 293.917 136.918 293.059 136.287C292.201 135.656 291.141 135.341 289.879 135.341C288.565 135.341 287.47 135.674 286.594 136.339C285.727 137.005 285.075 137.899 284.637 139.02C284.208 140.141 283.993 141.385 283.993 142.751C283.993 144.153 284.212 145.392 284.65 146.47C285.097 147.538 285.754 148.379 286.621 148.993C287.497 149.597 288.583 149.899 289.879 149.899ZM312.847 153.42C310.902 153.42 309.225 152.991 307.814 152.133C306.413 151.266 305.331 150.057 304.569 148.506C303.816 146.947 303.439 145.134 303.439 143.067C303.439 141 303.816 139.178 304.569 137.601C305.331 136.015 306.391 134.78 307.749 133.896C309.115 133.002 310.709 132.555 312.531 132.555C313.582 132.555 314.62 132.731 315.645 133.081C316.67 133.431 317.603 134.001 318.444 134.789C319.285 135.569 319.955 136.602 320.454 137.89C320.953 139.178 321.203 140.763 321.203 142.646V143.96H305.646V141.28H318.05C318.05 140.141 317.822 139.125 317.366 138.232C316.92 137.338 316.28 136.633 315.448 136.116C314.625 135.599 313.652 135.341 312.531 135.341C311.296 135.341 310.228 135.647 309.325 136.261C308.432 136.865 307.744 137.653 307.262 138.626C306.781 139.598 306.54 140.64 306.54 141.753V143.54C306.54 145.064 306.803 146.356 307.328 147.416C307.862 148.467 308.603 149.268 309.549 149.82C310.495 150.363 311.594 150.635 312.847 150.635C313.661 150.635 314.397 150.521 315.054 150.293C315.72 150.057 316.293 149.706 316.775 149.242C317.257 148.769 317.629 148.182 317.892 147.482L320.888 148.322C320.572 149.339 320.042 150.232 319.298 151.003C318.553 151.765 317.634 152.361 316.539 152.79C315.444 153.21 314.213 153.42 312.847 153.42ZM330.493 153L324.343 132.818H327.602L331.964 148.27H332.174L336.484 132.818H339.795L344.052 148.217H344.262L348.625 132.818H351.883L345.734 153H342.686L338.271 137.496H337.956L333.541 153H330.493ZM368.701 144.749V132.818H371.802V153H368.701V149.584H368.491C368.018 150.609 367.282 151.48 366.284 152.199C365.285 152.908 364.024 153.263 362.5 153.263C361.238 153.263 360.117 152.987 359.136 152.435C358.155 151.874 357.384 151.033 356.824 149.912C356.263 148.782 355.983 147.359 355.983 145.642V132.818H359.083V145.432C359.083 146.903 359.495 148.077 360.319 148.953C361.151 149.829 362.211 150.267 363.498 150.267C364.269 150.267 365.053 150.07 365.85 149.676C366.656 149.282 367.33 148.677 367.874 147.863C368.425 147.048 368.701 146.01 368.701 144.749ZM360.135 129.455C359.583 129.455 359.092 129.244 358.663 128.824C358.243 128.395 358.032 127.904 358.032 127.352C358.032 126.748 358.243 126.249 358.663 125.854C359.092 125.451 359.583 125.25 360.135 125.25C360.739 125.25 361.238 125.451 361.632 125.854C362.035 126.249 362.237 126.748 362.237 127.352C362.237 127.904 362.035 128.395 361.632 128.824C361.238 129.244 360.739 129.455 360.135 129.455ZM367.703 129.455C367.151 129.455 366.66 129.244 366.231 128.824C365.811 128.395 365.6 127.904 365.6 127.352C365.6 126.748 365.811 126.249 366.231 125.854C366.66 125.451 367.151 125.25 367.703 125.25C368.307 125.25 368.806 125.451 369.201 125.854C369.604 126.249 369.805 126.748 369.805 127.352C369.805 127.904 369.604 128.395 369.201 128.824C368.806 129.244 368.307 129.455 367.703 129.455ZM380.582 140.859V153H377.482V132.818H380.477V135.972H380.74C381.213 134.947 381.931 134.123 382.895 133.501C383.859 132.871 385.102 132.555 386.627 132.555C387.993 132.555 389.189 132.836 390.214 133.396C391.238 133.948 392.035 134.789 392.605 135.919C393.174 137.04 393.459 138.459 393.459 140.176V153H390.358V140.386C390.358 138.801 389.946 137.566 389.123 136.681C388.3 135.788 387.17 135.341 385.733 135.341C384.743 135.341 383.859 135.556 383.079 135.985C382.308 136.414 381.699 137.04 381.253 137.864C380.806 138.687 380.582 139.686 380.582 140.859ZM413.421 137.338L410.635 138.126C410.46 137.662 410.202 137.211 409.86 136.773C409.527 136.326 409.072 135.958 408.493 135.669C407.915 135.38 407.175 135.236 406.273 135.236C405.038 135.236 404.009 135.52 403.185 136.09C402.371 136.65 401.963 137.364 401.963 138.232C401.963 139.002 402.244 139.611 402.804 140.058C403.365 140.505 404.241 140.877 405.432 141.175L408.428 141.911C410.232 142.348 411.577 143.019 412.461 143.921C413.346 144.814 413.789 145.966 413.789 147.376C413.789 148.533 413.456 149.566 412.79 150.477C412.133 151.388 411.213 152.107 410.031 152.632C408.848 153.158 407.473 153.42 405.905 153.42C403.847 153.42 402.143 152.974 400.794 152.08C399.445 151.187 398.591 149.882 398.232 148.165L401.175 147.429C401.455 148.515 401.985 149.33 402.765 149.873C403.553 150.416 404.582 150.688 405.852 150.688C407.298 150.688 408.445 150.381 409.295 149.768C410.153 149.146 410.583 148.401 410.583 147.534C410.583 146.833 410.337 146.246 409.847 145.773C409.356 145.292 408.603 144.933 407.587 144.696L404.223 143.908C402.375 143.47 401.017 142.791 400.15 141.871C399.292 140.943 398.862 139.782 398.862 138.389C398.862 137.25 399.182 136.243 399.822 135.367C400.47 134.491 401.35 133.804 402.463 133.304C403.584 132.805 404.854 132.555 406.273 132.555C408.27 132.555 409.838 132.993 410.977 133.869C412.124 134.745 412.939 135.902 413.421 137.338ZM426.655 153.42C424.763 153.42 423.134 152.974 421.767 152.08C420.401 151.187 419.35 149.956 418.614 148.388C417.878 146.82 417.51 145.029 417.51 143.014C417.51 140.964 417.887 139.156 418.64 137.588C419.402 136.011 420.462 134.78 421.82 133.896C423.186 133.002 424.781 132.555 426.603 132.555C428.022 132.555 429.3 132.818 430.439 133.344C431.578 133.869 432.511 134.605 433.238 135.551C433.965 136.497 434.416 137.601 434.591 138.862H431.49C431.254 137.942 430.728 137.128 429.914 136.418C429.108 135.7 428.022 135.341 426.655 135.341C425.446 135.341 424.386 135.656 423.475 136.287C422.573 136.909 421.868 137.789 421.36 138.928C420.861 140.058 420.611 141.385 420.611 142.909C420.611 144.468 420.856 145.826 421.347 146.982C421.846 148.138 422.547 149.036 423.449 149.676C424.36 150.315 425.429 150.635 426.655 150.635C427.461 150.635 428.192 150.495 428.849 150.214C429.506 149.934 430.063 149.531 430.518 149.006C430.974 148.48 431.298 147.849 431.49 147.114H434.591C434.416 148.305 433.982 149.378 433.29 150.333C432.607 151.279 431.701 152.032 430.571 152.593C429.449 153.145 428.144 153.42 426.655 153.42ZM442.225 140.859V153H439.124V126.091H442.225V135.972H442.488C442.961 134.929 443.67 134.101 444.616 133.488C445.571 132.866 446.841 132.555 448.427 132.555C449.802 132.555 451.006 132.831 452.04 133.383C453.074 133.926 453.875 134.763 454.445 135.893C455.023 137.014 455.312 138.442 455.312 140.176V153H452.211V140.386C452.211 138.783 451.795 137.544 450.963 136.668C450.139 135.783 448.996 135.341 447.533 135.341C446.517 135.341 445.606 135.556 444.8 135.985C444.003 136.414 443.373 137.04 442.908 137.864C442.453 138.687 442.225 139.686 442.225 140.859ZM469.762 132.818V135.446H459.303V132.818H469.762ZM462.351 127.983H465.452V147.219C465.452 148.095 465.579 148.752 465.833 149.19C466.096 149.619 466.429 149.908 466.831 150.057C467.243 150.197 467.677 150.267 468.132 150.267C468.474 150.267 468.754 150.25 468.973 150.214C469.192 150.171 469.367 150.136 469.499 150.109L470.129 152.895C469.919 152.974 469.626 153.053 469.249 153.131C468.872 153.219 468.395 153.263 467.817 153.263C466.941 153.263 466.083 153.074 465.242 152.698C464.41 152.321 463.718 151.747 463.166 150.977C462.623 150.206 462.351 149.233 462.351 148.06V127.983ZM482.671 153.42C480.726 153.42 479.049 152.991 477.638 152.133C476.237 151.266 475.155 150.057 474.393 148.506C473.64 146.947 473.263 145.134 473.263 143.067C473.263 141 473.64 139.178 474.393 137.601C475.155 136.015 476.215 134.78 477.573 133.896C478.939 133.002 480.533 132.555 482.355 132.555C483.407 132.555 484.445 132.731 485.469 133.081C486.494 133.431 487.427 134.001 488.268 134.789C489.109 135.569 489.779 136.602 490.278 137.89C490.778 139.178 491.027 140.763 491.027 142.646V143.96H475.471V141.28H487.874C487.874 140.141 487.646 139.125 487.191 138.232C486.744 137.338 486.105 136.633 485.272 136.116C484.449 135.599 483.477 135.341 482.355 135.341C481.12 135.341 480.052 135.647 479.15 136.261C478.256 136.865 477.568 137.653 477.087 138.626C476.605 139.598 476.364 140.64 476.364 141.753V143.54C476.364 145.064 476.627 146.356 477.152 147.416C477.687 148.467 478.427 149.268 479.373 149.82C480.319 150.363 481.418 150.635 482.671 150.635C483.485 150.635 484.221 150.521 484.878 150.293C485.544 150.057 486.118 149.706 486.599 149.242C487.081 148.769 487.453 148.182 487.716 147.482L490.712 148.322C490.397 149.339 489.867 150.232 489.122 151.003C488.378 151.765 487.458 152.361 486.363 152.79C485.268 153.21 484.037 153.42 482.671 153.42ZM495.744 153V132.818H498.74V135.866H498.95C499.318 134.868 499.984 134.058 500.947 133.436C501.911 132.814 502.997 132.503 504.206 132.503C504.434 132.503 504.718 132.507 505.06 132.516C505.402 132.525 505.66 132.538 505.835 132.555V135.709C505.73 135.683 505.489 135.643 505.113 135.591C504.745 135.529 504.355 135.499 503.943 135.499C502.962 135.499 502.086 135.704 501.315 136.116C500.553 136.519 499.949 137.08 499.502 137.798C499.064 138.507 498.845 139.318 498.845 140.229V153H495.744ZM528.642 153H520.338V126.091H529.009C531.62 126.091 533.853 126.63 535.71 127.707C537.568 128.776 538.991 130.313 539.981 132.319C540.971 134.316 541.465 136.707 541.465 139.493C541.465 142.296 540.966 144.709 539.968 146.733C538.969 148.747 537.515 150.298 535.605 151.384C533.696 152.461 531.375 153 528.642 153ZM523.596 150.109H528.431C530.656 150.109 532.5 149.68 533.963 148.822C535.426 147.963 536.516 146.741 537.235 145.156C537.953 143.57 538.312 141.683 538.312 139.493C538.312 137.321 537.957 135.45 537.248 133.882C536.538 132.306 535.478 131.097 534.068 130.256C532.658 129.406 530.902 128.982 528.799 128.982H523.596V150.109ZM546.511 153V132.818H549.507V135.866H549.717C550.085 134.868 550.751 134.058 551.714 133.436C552.678 132.814 553.764 132.503 554.973 132.503C555.2 132.503 555.485 132.507 555.827 132.516C556.168 132.525 556.427 132.538 556.602 132.555V135.709C556.497 135.683 556.256 135.643 555.879 135.591C555.511 135.529 555.121 135.499 554.71 135.499C553.729 135.499 552.853 135.704 552.082 136.116C551.32 136.519 550.715 137.08 550.269 137.798C549.831 138.507 549.612 139.318 549.612 140.229V153H546.511ZM572.996 144.749V132.818H576.097V153H572.996V149.584H572.786C572.313 150.609 571.577 151.48 570.579 152.199C569.58 152.908 568.319 153.263 566.795 153.263C565.533 153.263 564.412 152.987 563.431 152.435C562.45 151.874 561.679 151.033 561.118 149.912C560.558 148.782 560.278 147.359 560.278 145.642V132.818H563.378V145.432C563.378 146.903 563.79 148.077 564.613 148.953C565.446 149.829 566.506 150.267 567.793 150.267C568.564 150.267 569.348 150.07 570.145 149.676C570.951 149.282 571.625 148.677 572.169 147.863C572.72 147.048 572.996 146.01 572.996 144.749ZM589.975 153.42C588.083 153.42 586.454 152.974 585.088 152.08C583.721 151.187 582.67 149.956 581.934 148.388C581.198 146.82 580.831 145.029 580.831 143.014C580.831 140.964 581.207 139.156 581.96 137.588C582.723 136.011 583.782 134.78 585.14 133.896C586.507 133.002 588.101 132.555 589.923 132.555C591.342 132.555 592.621 132.818 593.759 133.344C594.898 133.869 595.831 134.605 596.558 135.551C597.285 136.497 597.736 137.601 597.911 138.862H594.811C594.574 137.942 594.049 137.128 593.234 136.418C592.428 135.7 591.342 135.341 589.975 135.341C588.767 135.341 587.707 135.656 586.796 136.287C585.893 136.909 585.188 137.789 584.68 138.928C584.181 140.058 583.931 141.385 583.931 142.909C583.931 144.468 584.177 145.826 584.667 146.982C585.166 148.138 585.867 149.036 586.769 149.676C587.68 150.315 588.749 150.635 589.975 150.635C590.781 150.635 591.513 150.495 592.17 150.214C592.827 149.934 593.383 149.531 593.838 149.006C594.294 148.48 594.618 147.849 594.811 147.114H597.911C597.736 148.305 597.303 149.378 596.611 150.333C595.927 151.279 595.021 152.032 593.891 152.593C592.77 153.145 591.465 153.42 589.975 153.42ZM605.335 145.642L605.283 141.805H605.913L614.743 132.818H618.579L609.172 142.331H608.909L605.335 145.642ZM602.445 153V126.091H605.545V153H602.445ZM615.268 153L607.385 143.014L609.592 140.859L619.21 153H615.268ZM282.942 186.648C282.942 183.337 283.371 180.293 284.229 177.516C285.097 174.73 286.332 172.168 287.935 169.83H290.668C290.037 170.697 289.446 171.765 288.894 173.036C288.351 174.297 287.873 175.685 287.462 177.201C287.05 178.707 286.726 180.266 286.489 181.878C286.262 183.49 286.148 185.08 286.148 186.648C286.148 188.732 286.349 190.848 286.752 192.994C287.155 195.14 287.698 197.133 288.381 198.972C289.065 200.812 289.827 202.31 290.668 203.466H287.935C286.332 201.127 285.097 198.569 284.229 195.793C283.371 193.007 282.942 189.959 282.942 186.648ZM309.539 182.338L306.753 183.126C306.578 182.662 306.32 182.211 305.978 181.773C305.645 181.326 305.19 180.958 304.612 180.669C304.033 180.38 303.293 180.236 302.391 180.236C301.156 180.236 300.127 180.52 299.303 181.09C298.489 181.65 298.081 182.364 298.081 183.232C298.081 184.002 298.362 184.611 298.922 185.058C299.483 185.505 300.359 185.877 301.55 186.175L304.546 186.911C306.35 187.348 307.695 188.019 308.58 188.921C309.464 189.814 309.907 190.966 309.907 192.376C309.907 193.533 309.574 194.566 308.908 195.477C308.251 196.388 307.331 197.107 306.149 197.632C304.966 198.158 303.591 198.42 302.023 198.42C299.965 198.42 298.261 197.974 296.912 197.08C295.563 196.187 294.709 194.882 294.35 193.165L297.293 192.429C297.573 193.515 298.103 194.33 298.883 194.873C299.671 195.416 300.7 195.688 301.971 195.688C303.416 195.688 304.563 195.381 305.413 194.768C306.272 194.146 306.701 193.401 306.701 192.534C306.701 191.833 306.455 191.246 305.965 190.773C305.474 190.292 304.721 189.933 303.705 189.696L300.341 188.908C298.493 188.47 297.135 187.791 296.268 186.871C295.41 185.943 294.981 184.782 294.981 183.389C294.981 182.25 295.3 181.243 295.94 180.367C296.588 179.491 297.468 178.804 298.581 178.304C299.702 177.805 300.972 177.555 302.391 177.555C304.388 177.555 305.956 177.993 307.095 178.869C308.242 179.745 309.057 180.902 309.539 182.338ZM322.773 198.42C320.951 198.42 319.353 197.987 317.977 197.12C316.611 196.252 315.542 195.039 314.771 193.48C314.009 191.921 313.628 190.099 313.628 188.014C313.628 185.912 314.009 184.077 314.771 182.509C315.542 180.941 316.611 179.723 317.977 178.856C319.353 177.989 320.951 177.555 322.773 177.555C324.595 177.555 326.189 177.989 327.556 178.856C328.931 179.723 330 180.941 330.762 182.509C331.533 184.077 331.918 185.912 331.918 188.014C331.918 190.099 331.533 191.921 330.762 193.48C330 195.039 328.931 196.252 327.556 197.12C326.189 197.987 324.595 198.42 322.773 198.42ZM322.773 195.635C324.157 195.635 325.296 195.28 326.189 194.571C327.083 193.861 327.744 192.928 328.173 191.772C328.603 190.616 328.817 189.363 328.817 188.014C328.817 186.665 328.603 185.408 328.173 184.243C327.744 183.078 327.083 182.137 326.189 181.418C325.296 180.7 324.157 180.341 322.773 180.341C321.389 180.341 320.251 180.7 319.357 181.418C318.464 182.137 317.802 183.078 317.373 184.243C316.944 185.408 316.729 186.665 316.729 188.014C316.729 189.363 316.944 190.616 317.373 191.772C317.802 192.928 318.464 193.861 319.357 194.571C320.251 195.28 321.389 195.635 322.773 195.635ZM339.752 171.091V198H336.652V171.091H339.752ZM348.533 171.091V198H345.432V171.091H348.533ZM358.785 198L352.635 177.818H355.894L360.256 193.27H360.466L364.776 177.818H368.087L372.344 193.217H372.554L376.917 177.818H380.175L374.026 198H370.978L366.563 182.496H366.248L361.833 198H358.785ZM392.05 198.42C390.105 198.42 388.428 197.991 387.017 197.133C385.616 196.266 384.534 195.057 383.772 193.506C383.019 191.947 382.642 190.134 382.642 188.067C382.642 186 383.019 184.178 383.772 182.601C384.534 181.015 385.594 179.78 386.952 178.896C388.318 178.002 389.912 177.555 391.734 177.555C392.786 177.555 393.824 177.731 394.848 178.081C395.873 178.431 396.806 179.001 397.647 179.789C398.488 180.569 399.158 181.602 399.657 182.89C400.157 184.178 400.406 185.763 400.406 187.646V188.96H384.849V186.28H397.253C397.253 185.141 397.025 184.125 396.57 183.232C396.123 182.338 395.483 181.633 394.651 181.116C393.828 180.599 392.856 180.341 391.734 180.341C390.499 180.341 389.431 180.647 388.528 181.261C387.635 181.865 386.947 182.653 386.466 183.626C385.984 184.598 385.743 185.64 385.743 186.753V188.54C385.743 190.064 386.006 191.356 386.531 192.416C387.066 193.467 387.806 194.268 388.752 194.82C389.698 195.363 390.797 195.635 392.05 195.635C392.864 195.635 393.6 195.521 394.257 195.293C394.923 195.057 395.497 194.706 395.978 194.242C396.46 193.769 396.832 193.182 397.095 192.482L400.091 193.322C399.776 194.339 399.246 195.232 398.501 196.003C397.757 196.765 396.837 197.361 395.742 197.79C394.647 198.21 393.416 198.42 392.05 198.42ZM405.123 198V177.818H408.119V180.866H408.329C408.697 179.868 409.363 179.058 410.326 178.436C411.29 177.814 412.376 177.503 413.585 177.503C413.813 177.503 414.097 177.507 414.439 177.516C414.781 177.525 415.039 177.538 415.214 177.555V180.709C415.109 180.683 414.868 180.643 414.491 180.591C414.124 180.529 413.734 180.499 413.322 180.499C412.341 180.499 411.465 180.704 410.694 181.116C409.932 181.519 409.328 182.08 408.881 182.798C408.443 183.507 408.224 184.318 408.224 185.229V198H405.123ZM428.931 177.818V180.446H418.473V177.818H428.931ZM421.521 172.983H424.622V192.219C424.622 193.095 424.749 193.752 425.003 194.19C425.266 194.619 425.598 194.908 426.001 195.057C426.413 195.197 426.847 195.267 427.302 195.267C427.644 195.267 427.924 195.25 428.143 195.214C428.362 195.171 428.537 195.136 428.669 195.109L429.299 197.895C429.089 197.974 428.796 198.053 428.419 198.131C428.042 198.219 427.565 198.263 426.987 198.263C426.111 198.263 425.252 198.074 424.412 197.698C423.579 197.321 422.887 196.747 422.336 195.977C421.792 195.206 421.521 194.233 421.521 193.06V172.983ZM440.218 186.648C440.218 189.959 439.784 193.007 438.917 195.793C438.059 198.569 436.828 201.127 435.225 203.466H432.492C433.123 202.599 433.71 201.53 434.253 200.26C434.805 198.999 435.286 197.615 435.698 196.108C436.11 194.593 436.43 193.029 436.657 191.417C436.894 189.797 437.012 188.207 437.012 186.648C437.012 184.563 436.811 182.448 436.408 180.301C436.005 178.155 435.462 176.163 434.778 174.323C434.095 172.484 433.333 170.986 432.492 169.83H435.225C436.828 172.168 438.059 174.73 438.917 177.516C439.784 180.293 440.218 183.337 440.218 186.648Z" fill="white"/>
<path d="M15.3622 483H11.946L21.8267 456.091H25.1903L35.071 483H31.6548L23.6136 460.348H23.4034L15.3622 483ZM16.6236 472.489H30.3935V475.379H16.6236V472.489ZM46.3543 462.818V465.446H35.8955V462.818H46.3543ZM38.9438 457.983H42.0447V477.219C42.0447 478.095 42.1717 478.752 42.4257 479.19C42.6885 479.619 43.0213 479.908 43.4243 480.057C43.836 480.197 44.2696 480.267 44.7251 480.267C45.0667 480.267 45.347 480.25 45.566 480.214C45.7849 480.171 45.9601 480.136 46.0915 480.109L46.7222 482.895C46.512 482.974 46.2185 483.053 45.8419 483.131C45.4652 483.219 44.9878 483.263 44.4097 483.263C43.5338 483.263 42.6753 483.074 41.8344 482.698C41.0023 482.321 40.3103 481.747 39.7584 480.977C39.2153 480.206 38.9438 479.233 38.9438 478.06V457.983ZM59.2636 483.42C57.319 483.42 55.6415 482.991 54.2313 482.133C52.8298 481.266 51.748 480.057 50.9859 478.506C50.2326 476.947 49.8559 475.134 49.8559 473.067C49.8559 471 50.2326 469.178 50.9859 467.601C51.748 466.015 52.8079 464.78 54.1656 463.896C55.532 463.002 57.1263 462.555 58.9482 462.555C59.9994 462.555 61.0374 462.731 62.0622 463.081C63.0871 463.431 64.02 464.001 64.8609 464.789C65.7018 465.569 66.3719 466.602 66.8712 467.89C67.3705 469.178 67.6201 470.763 67.6201 472.646V473.96H52.0633V471.28H64.4667C64.4667 470.141 64.239 469.125 63.7835 468.232C63.3367 467.338 62.6973 466.633 61.8651 466.116C61.0418 465.599 60.0695 465.341 58.9482 465.341C57.7132 465.341 56.6445 465.647 55.7423 466.261C54.8488 466.865 54.1612 467.653 53.6794 468.626C53.1977 469.598 52.9568 470.64 52.9568 471.753V473.54C52.9568 475.064 53.2195 476.356 53.7451 477.416C54.2794 478.467 55.0196 479.268 55.9656 479.82C56.9117 480.363 58.011 480.635 59.2636 480.635C60.0782 480.635 60.814 480.521 61.471 480.293C62.1367 480.057 62.7104 479.706 63.1922 479.242C63.674 478.769 64.0463 478.182 64.309 477.482L67.3048 478.322C66.9894 479.339 66.4595 480.232 65.7149 481.003C64.9704 481.765 64.0506 482.361 62.9557 482.79C61.8608 483.21 60.6301 483.42 59.2636 483.42ZM72.3371 483V462.818H75.3328V465.866H75.5431C75.911 464.868 76.5767 464.058 77.5402 463.436C78.5038 462.814 79.5899 462.503 80.7987 462.503C81.0265 462.503 81.3112 462.507 81.6528 462.516C81.9944 462.525 82.2528 462.538 82.428 462.555V465.709C82.3229 465.683 82.082 465.643 81.7053 465.591C81.3374 465.529 80.9477 465.499 80.536 465.499C79.5549 465.499 78.6789 465.704 77.9081 466.116C77.146 466.519 76.5416 467.08 76.0949 467.798C75.6569 468.507 75.4379 469.318 75.4379 470.229V483H72.3371ZM86.1037 483V462.818H89.2045V483H86.1037ZM87.6804 459.455C87.076 459.455 86.5548 459.249 86.1168 458.837C85.6876 458.425 85.473 457.93 85.473 457.352C85.473 456.774 85.6876 456.279 86.1168 455.868C86.5548 455.456 87.076 455.25 87.6804 455.25C88.2848 455.25 88.8016 455.456 89.2308 455.868C89.6688 456.279 89.8878 456.774 89.8878 457.352C89.8878 457.93 89.6688 458.425 89.2308 458.837C88.8016 459.249 88.2848 459.455 87.6804 459.455ZM103.346 483.42C101.401 483.42 99.7236 482.991 98.3133 482.133C96.9118 481.266 95.83 480.057 95.0679 478.506C94.3146 476.947 93.9379 475.134 93.9379 473.067C93.9379 471 94.3146 469.178 95.0679 467.601C95.83 466.015 96.8899 464.78 98.2476 463.896C99.6141 463.002 101.208 462.555 103.03 462.555C104.081 462.555 105.119 462.731 106.144 463.081C107.169 463.431 108.102 464.001 108.943 464.789C109.784 465.569 110.454 466.602 110.953 467.89C111.453 469.178 111.702 470.763 111.702 472.646V473.96H96.1453V471.28H108.549C108.549 470.141 108.321 469.125 107.866 468.232C107.419 467.338 106.779 466.633 105.947 466.116C105.124 465.599 104.151 465.341 103.03 465.341C101.795 465.341 100.727 465.647 99.8243 466.261C98.9308 466.865 98.2432 467.653 97.7615 468.626C97.2797 469.598 97.0388 470.64 97.0388 471.753V473.54C97.0388 475.064 97.3016 476.356 97.8271 477.416C98.3615 478.467 99.1017 479.268 100.048 479.82C100.994 480.363 102.093 480.635 103.346 480.635C104.16 480.635 104.896 480.521 105.553 480.293C106.219 480.057 106.792 479.706 107.274 479.242C107.756 478.769 108.128 478.182 108.391 477.482L111.387 478.322C111.071 479.339 110.542 480.232 109.797 481.003C109.052 481.765 108.133 482.361 107.038 482.79C105.943 483.21 104.712 483.42 103.346 483.42ZM119.52 470.859V483H116.419V462.818H119.415V465.972H119.678C120.151 464.947 120.869 464.123 121.832 463.501C122.796 462.871 124.04 462.555 125.564 462.555C126.93 462.555 128.126 462.836 129.151 463.396C130.176 463.948 130.973 464.789 131.542 465.919C132.112 467.04 132.396 468.459 132.396 470.176V483H129.296V470.386C129.296 468.801 128.884 467.566 128.06 466.681C127.237 465.788 126.107 465.341 124.671 465.341C123.681 465.341 122.796 465.556 122.016 465.985C121.246 466.414 120.637 467.04 120.19 467.864C119.743 468.687 119.52 469.686 119.52 470.859Z" fill="white"/>
<path d="M167 258.5C168.381 258.5 169.5 257.381 169.5 256C169.5 254.619 168.381 253.5 167 253.5L167 258.5ZM74 256L74 253.5L71.5 253.5L71.5 256L74 256ZM72.2322 437.768C73.2085 438.744 74.7915 438.744 75.7678 437.768L91.6777 421.858C92.654 420.882 92.654 419.299 91.6777 418.322C90.7014 417.346 89.1184 417.346 88.1421 418.322L74 432.464L59.8579 418.322C58.8816 417.346 57.2986 417.346 56.3223 418.322C55.346 419.299 55.346 420.882 56.3223 421.858L72.2322 437.768ZM167 253.5L74 253.5L74 258.5L167 258.5L167 253.5ZM71.5 256L71.5 436L76.5 436L76.5 256L71.5 256Z" fill="white"/>
<path d="M272.259 470V443.091H281.666C283.541 443.091 285.087 443.415 286.304 444.063C287.522 444.703 288.429 445.565 289.024 446.652C289.62 447.729 289.918 448.925 289.918 450.239C289.918 451.395 289.712 452.35 289.3 453.103C288.897 453.856 288.363 454.452 287.697 454.89C287.04 455.328 286.326 455.652 285.555 455.862V456.125C286.379 456.178 287.207 456.467 288.039 456.992C288.871 457.518 289.567 458.271 290.128 459.252C290.688 460.233 290.969 461.433 290.969 462.852C290.969 464.201 290.662 465.414 290.049 466.492C289.436 467.569 288.468 468.423 287.145 469.054C285.823 469.685 284.101 470 281.982 470H272.259ZM275.517 467.109H281.982C284.11 467.109 285.621 466.698 286.515 465.874C287.417 465.042 287.868 464.035 287.868 462.852C287.868 461.941 287.636 461.1 287.172 460.33C286.707 459.55 286.046 458.928 285.188 458.464C284.329 457.991 283.313 457.754 282.139 457.754H275.517V467.109ZM275.517 454.916H281.561C282.542 454.916 283.427 454.723 284.215 454.338C285.012 453.953 285.643 453.41 286.107 452.709C286.58 452.008 286.817 451.185 286.817 450.239C286.817 449.056 286.405 448.053 285.582 447.23C284.758 446.398 283.453 445.982 281.666 445.982H275.517V454.916ZM299.003 443.091V470H295.903V443.091H299.003ZM317.402 461.749V449.818H320.502V470H317.402V466.584H317.191C316.718 467.609 315.983 468.48 314.984 469.199C313.985 469.908 312.724 470.263 311.2 470.263C309.938 470.263 308.817 469.987 307.836 469.435C306.855 468.874 306.084 468.033 305.524 466.912C304.963 465.782 304.683 464.359 304.683 462.642V449.818H307.784V462.432C307.784 463.903 308.195 465.077 309.019 465.953C309.851 466.829 310.911 467.267 312.198 467.267C312.969 467.267 313.753 467.07 314.55 466.676C315.356 466.282 316.031 465.677 316.574 464.863C317.126 464.048 317.402 463.01 317.402 461.749ZM334.959 449.818V452.446H324.5V449.818H334.959ZM327.548 444.983H330.649V464.219C330.649 465.095 330.776 465.752 331.03 466.19C331.293 466.619 331.626 466.908 332.029 467.057C332.44 467.197 332.874 467.267 333.33 467.267C333.671 467.267 333.951 467.25 334.17 467.214C334.389 467.171 334.565 467.136 334.696 467.109L335.327 469.895C335.116 469.974 334.823 470.053 334.446 470.131C334.07 470.219 333.592 470.263 333.014 470.263C332.138 470.263 331.28 470.074 330.439 469.698C329.607 469.321 328.915 468.747 328.363 467.977C327.82 467.206 327.548 466.233 327.548 465.06V444.983ZM347.027 470.42C345.345 470.42 343.861 469.996 342.573 469.146C341.285 468.288 340.278 467.079 339.551 465.52C338.824 463.952 338.46 462.099 338.46 459.962C338.46 457.842 338.824 456.002 339.551 454.443C340.278 452.884 341.29 451.68 342.586 450.83C343.883 449.98 345.38 449.555 347.08 449.555C348.394 449.555 349.432 449.774 350.194 450.212C350.965 450.642 351.551 451.132 351.954 451.684C352.366 452.227 352.686 452.674 352.914 453.024H353.176V443.091H356.277V470H353.281V466.899H352.914C352.686 467.267 352.362 467.731 351.941 468.292C351.521 468.844 350.921 469.339 350.141 469.777C349.362 470.206 348.324 470.42 347.027 470.42ZM347.448 467.635C348.691 467.635 349.743 467.311 350.601 466.663C351.459 466.006 352.112 465.099 352.559 463.943C353.006 462.778 353.229 461.433 353.229 459.909C353.229 458.402 353.01 457.084 352.572 455.954C352.134 454.815 351.486 453.931 350.627 453.3C349.769 452.661 348.709 452.341 347.448 452.341C346.134 452.341 345.039 452.678 344.163 453.353C343.296 454.018 342.643 454.925 342.205 456.072C341.776 457.211 341.561 458.49 341.561 459.909C341.561 461.346 341.78 462.651 342.218 463.825C342.665 464.99 343.322 465.918 344.189 466.61C345.065 467.293 346.151 467.635 347.448 467.635ZM362.387 470V449.818H365.383V452.866H365.593C365.961 451.868 366.626 451.058 367.59 450.436C368.554 449.814 369.64 449.503 370.849 449.503C371.076 449.503 371.361 449.507 371.703 449.516C372.044 449.525 372.303 449.538 372.478 449.555V452.709C372.373 452.683 372.132 452.643 371.755 452.591C371.387 452.529 370.997 452.499 370.586 452.499C369.605 452.499 368.729 452.704 367.958 453.116C367.196 453.519 366.591 454.08 366.145 454.798C365.707 455.507 365.488 456.318 365.488 457.229V470H362.387ZM388.872 461.749V449.818H391.973V470H388.872V466.584H388.662C388.189 467.609 387.453 468.48 386.455 469.199C385.456 469.908 384.195 470.263 382.671 470.263C381.409 470.263 380.288 469.987 379.307 469.435C378.326 468.874 377.555 468.033 376.994 466.912C376.434 465.782 376.153 464.359 376.153 462.642V449.818H379.254V462.432C379.254 463.903 379.666 465.077 380.489 465.953C381.322 466.829 382.381 467.267 383.669 467.267C384.44 467.267 385.224 467.07 386.021 466.676C386.827 466.282 387.501 465.677 388.044 464.863C388.596 464.048 388.872 463.01 388.872 461.749ZM405.851 470.42C403.959 470.42 402.33 469.974 400.964 469.08C399.597 468.187 398.546 466.956 397.81 465.388C397.074 463.82 396.706 462.029 396.706 460.014C396.706 457.964 397.083 456.156 397.836 454.588C398.599 453.011 399.658 451.78 401.016 450.896C402.383 450.002 403.977 449.555 405.799 449.555C407.218 449.555 408.497 449.818 409.635 450.344C410.774 450.869 411.707 451.605 412.434 452.551C413.161 453.497 413.612 454.601 413.787 455.862H410.687C410.45 454.942 409.925 454.128 409.11 453.418C408.304 452.7 407.218 452.341 405.851 452.341C404.643 452.341 403.583 452.656 402.672 453.287C401.769 453.909 401.064 454.789 400.556 455.928C400.057 457.058 399.807 458.385 399.807 459.909C399.807 461.468 400.053 462.826 400.543 463.982C401.042 465.138 401.743 466.036 402.645 466.676C403.556 467.315 404.625 467.635 405.851 467.635C406.657 467.635 407.389 467.495 408.046 467.214C408.703 466.934 409.259 466.531 409.714 466.006C410.17 465.48 410.494 464.849 410.687 464.114H413.787C413.612 465.305 413.179 466.378 412.487 467.333C411.803 468.279 410.897 469.032 409.767 469.593C408.646 470.145 407.34 470.42 405.851 470.42ZM421.211 462.642L421.159 458.805H421.789L430.619 449.818H434.455L425.048 459.331H424.785L421.211 462.642ZM418.32 470V443.091H421.421V470H418.32ZM431.144 470L423.261 460.014L425.468 457.859L435.086 470H431.144ZM281.246 488.091V515H277.987V491.507H277.83L271.26 495.869V492.558L277.987 488.091H281.246ZM288.985 515V512.635L297.867 502.912C298.909 501.773 299.768 500.783 300.442 499.942C301.117 499.093 301.616 498.296 301.94 497.551C302.273 496.798 302.439 496.009 302.439 495.186C302.439 494.24 302.212 493.421 301.756 492.729C301.309 492.037 300.696 491.503 299.917 491.126C299.137 490.749 298.261 490.561 297.289 490.561C296.255 490.561 295.353 490.776 294.582 491.205C293.82 491.625 293.229 492.217 292.808 492.979C292.397 493.741 292.191 494.634 292.191 495.659H289.09C289.09 494.082 289.453 492.698 290.18 491.507C290.907 490.316 291.897 489.387 293.15 488.722C294.411 488.056 295.826 487.723 297.394 487.723C298.971 487.723 300.368 488.056 301.585 488.722C302.803 489.387 303.758 490.285 304.45 491.415C305.142 492.545 305.488 493.802 305.488 495.186C305.488 496.176 305.308 497.144 304.949 498.09C304.598 499.027 303.985 500.074 303.109 501.23C302.242 502.378 301.038 503.779 299.496 505.435L293.452 511.899V512.109H305.961V515H288.985ZM320.164 515.368C318.184 515.368 316.498 514.829 315.105 513.752C313.713 512.666 312.648 511.093 311.913 509.035C311.177 506.968 310.809 504.471 310.809 501.545C310.809 498.637 311.177 496.154 311.913 494.096C312.657 492.028 313.726 490.452 315.119 489.365C316.52 488.27 318.202 487.723 320.164 487.723C322.126 487.723 323.804 488.27 325.196 489.365C326.598 490.452 327.667 492.028 328.402 494.096C329.147 496.154 329.519 498.637 329.519 501.545C329.519 504.471 329.151 506.968 328.415 509.035C327.68 511.093 326.615 512.666 325.223 513.752C323.83 514.829 322.144 515.368 320.164 515.368ZM320.164 512.477C322.126 512.477 323.65 511.531 324.737 509.639C325.823 507.747 326.366 505.049 326.366 501.545C326.366 499.215 326.116 497.231 325.617 495.593C325.126 493.955 324.417 492.707 323.488 491.849C322.569 490.99 321.46 490.561 320.164 490.561C318.219 490.561 316.7 491.52 315.605 493.439C314.51 495.348 313.962 498.05 313.962 501.545C313.962 503.875 314.208 505.855 314.698 507.484C315.189 509.114 315.894 510.353 316.814 511.203C317.742 512.052 318.859 512.477 320.164 512.477ZM344.077 486.83L335.406 519.047H332.567L341.239 486.83H344.077ZM356.32 515.368C354.515 515.368 352.921 515.048 351.537 514.409C350.162 513.761 349.089 512.871 348.318 511.741C347.547 510.603 347.166 509.306 347.175 507.852C347.166 506.714 347.39 505.662 347.845 504.699C348.301 503.727 348.922 502.916 349.711 502.268C350.508 501.611 351.397 501.195 352.378 501.02V500.862C351.09 500.529 350.066 499.807 349.304 498.694C348.541 497.573 348.165 496.299 348.174 494.871C348.165 493.504 348.511 492.282 349.212 491.205C349.912 490.127 350.876 489.278 352.102 488.656C353.337 488.034 354.743 487.723 356.32 487.723C357.879 487.723 359.272 488.034 360.498 488.656C361.724 489.278 362.688 490.127 363.389 491.205C364.098 492.282 364.457 493.504 364.466 494.871C364.457 496.299 364.068 497.573 363.297 498.694C362.535 499.807 361.523 500.529 360.262 500.862V501.02C361.234 501.195 362.11 501.611 362.889 502.268C363.669 502.916 364.291 503.727 364.755 504.699C365.219 505.662 365.456 506.714 365.465 507.852C365.456 509.306 365.062 510.603 364.282 511.741C363.511 512.871 362.438 513.761 361.063 514.409C359.697 515.048 358.116 515.368 356.32 515.368ZM356.32 512.477C357.537 512.477 358.589 512.28 359.473 511.886C360.358 511.492 361.041 510.936 361.523 510.217C362.005 509.499 362.25 508.658 362.259 507.695C362.25 506.679 361.987 505.781 361.47 505.001C360.954 504.221 360.248 503.608 359.355 503.162C358.47 502.715 357.459 502.491 356.32 502.491C355.172 502.491 354.148 502.715 353.245 503.162C352.352 503.608 351.647 504.221 351.13 505.001C350.622 505.781 350.372 506.679 350.381 507.695C350.372 508.658 350.604 509.499 351.077 510.217C351.559 510.936 352.247 511.492 353.14 511.886C354.034 512.28 355.094 512.477 356.32 512.477ZM356.32 499.706C357.283 499.706 358.137 499.513 358.882 499.128C359.635 498.742 360.227 498.204 360.656 497.512C361.085 496.82 361.304 496.009 361.313 495.081C361.304 494.17 361.089 493.377 360.669 492.703C360.248 492.02 359.666 491.494 358.921 491.126C358.177 490.749 357.31 490.561 356.32 490.561C355.313 490.561 354.432 490.749 353.679 491.126C352.926 491.494 352.343 492.02 351.931 492.703C351.52 493.377 351.318 494.17 351.327 495.081C351.318 496.009 351.524 496.82 351.945 497.512C352.374 498.204 352.965 498.742 353.718 499.128C354.472 499.513 355.339 499.706 356.32 499.706ZM379.277 515.368C377.298 515.368 375.612 514.829 374.219 513.752C372.826 512.666 371.762 511.093 371.026 509.035C370.29 506.968 369.922 504.471 369.922 501.545C369.922 498.637 370.29 496.154 371.026 494.096C371.77 492.028 372.839 490.452 374.232 489.365C375.633 488.27 377.315 487.723 379.277 487.723C381.239 487.723 382.917 488.27 384.31 489.365C385.711 490.452 386.78 492.028 387.516 494.096C388.26 496.154 388.632 498.637 388.632 501.545C388.632 504.471 388.265 506.968 387.529 509.035C386.793 511.093 385.729 512.666 384.336 513.752C382.943 514.829 381.257 515.368 379.277 515.368ZM379.277 512.477C381.239 512.477 382.764 511.531 383.85 509.639C384.936 507.747 385.479 505.049 385.479 501.545C385.479 499.215 385.229 497.231 384.73 495.593C384.24 493.955 383.53 492.707 382.602 491.849C381.682 490.99 380.574 490.561 379.277 490.561C377.333 490.561 375.813 491.52 374.718 493.439C373.623 495.348 373.076 498.05 373.076 501.545C373.076 503.875 373.321 505.855 373.811 507.484C374.302 509.114 375.007 510.353 375.927 511.203C376.855 512.052 377.972 512.477 379.277 512.477Z" fill="white"/>
<path d="M147.951 469.5C146.571 469.528 145.473 470.669 145.5 472.049C145.528 473.429 146.669 474.527 148.049 474.5L147.951 469.5ZM251.802 471.733C252.759 470.738 252.728 469.155 251.733 468.198L235.514 452.603C234.519 451.646 232.936 451.677 231.979 452.672C231.022 453.668 231.053 455.25 232.048 456.207L246.465 470.069L232.603 484.486C231.646 485.481 231.677 487.064 232.672 488.021C233.668 488.978 235.25 488.947 236.207 487.952L251.802 471.733ZM148.049 474.5L250.049 472.5L249.951 467.5L147.951 469.5L148.049 474.5Z" fill="white"/>
<path d="M308.362 370H304.946L314.827 343.091H318.19L328.071 370H324.655L316.614 347.348H316.403L308.362 370ZM309.624 359.489H323.393V362.379H309.624V359.489ZM340.041 370.42C338.219 370.42 336.62 369.987 335.245 369.12C333.879 368.252 332.81 367.039 332.039 365.48C331.277 363.921 330.896 362.099 330.896 360.014C330.896 357.912 331.277 356.077 332.039 354.509C332.81 352.941 333.879 351.723 335.245 350.856C336.62 349.989 338.219 349.555 340.041 349.555C341.863 349.555 343.457 349.989 344.824 350.856C346.199 351.723 347.267 352.941 348.029 354.509C348.8 356.077 349.186 357.912 349.186 360.014C349.186 362.099 348.8 363.921 348.029 365.48C347.267 367.039 346.199 368.252 344.824 369.12C343.457 369.987 341.863 370.42 340.041 370.42ZM340.041 367.635C341.425 367.635 342.564 367.28 343.457 366.571C344.35 365.861 345.012 364.928 345.441 363.772C345.87 362.616 346.085 361.363 346.085 360.014C346.085 358.665 345.87 357.408 345.441 356.243C345.012 355.078 344.35 354.137 343.457 353.418C342.564 352.7 341.425 352.341 340.041 352.341C338.657 352.341 337.518 352.7 336.625 353.418C335.731 354.137 335.07 355.078 334.641 356.243C334.211 357.408 333.997 358.665 333.997 360.014C333.997 361.363 334.211 362.616 334.641 363.772C335.07 364.928 335.731 365.861 336.625 366.571C337.518 367.28 338.657 367.635 340.041 367.635ZM353.919 370V349.818H356.915V352.866H357.125C357.493 351.868 358.159 351.058 359.122 350.436C360.086 349.814 361.172 349.503 362.381 349.503C362.609 349.503 362.893 349.507 363.235 349.516C363.576 349.525 363.835 349.538 364.01 349.555V352.709C363.905 352.683 363.664 352.643 363.287 352.591C362.919 352.529 362.53 352.499 362.118 352.499C361.137 352.499 360.261 352.704 359.49 353.116C358.728 353.519 358.124 354.08 357.677 354.798C357.239 355.507 357.02 356.318 357.02 357.229V370H353.919ZM377.727 349.818V352.446H367.269V349.818H377.727ZM370.317 344.983H373.418V364.219C373.418 365.095 373.545 365.752 373.799 366.19C374.062 366.619 374.394 366.908 374.797 367.057C375.209 367.197 375.643 367.267 376.098 367.267C376.44 367.267 376.72 367.25 376.939 367.214C377.158 367.171 377.333 367.136 377.465 367.109L378.095 369.895C377.885 369.974 377.592 370.053 377.215 370.131C376.838 370.219 376.361 370.263 375.783 370.263C374.907 370.263 374.048 370.074 373.207 369.698C372.375 369.321 371.683 368.747 371.131 367.977C370.588 367.206 370.317 366.233 370.317 365.06V344.983ZM388.331 370.473C387.052 370.473 385.891 370.232 384.849 369.75C383.806 369.26 382.979 368.555 382.366 367.635C381.752 366.706 381.446 365.585 381.446 364.271C381.446 363.115 381.674 362.178 382.129 361.46C382.584 360.732 383.193 360.163 383.955 359.751C384.717 359.34 385.558 359.033 386.478 358.832C387.407 358.621 388.339 358.455 389.277 358.332C390.503 358.175 391.497 358.056 392.259 357.978C393.03 357.89 393.591 357.746 393.941 357.544C394.3 357.343 394.48 356.992 394.48 356.493V356.388C394.48 355.091 394.125 354.084 393.416 353.366C392.715 352.647 391.651 352.288 390.223 352.288C388.742 352.288 387.582 352.612 386.741 353.261C385.9 353.909 385.309 354.601 384.967 355.337L382.024 354.286C382.549 353.059 383.25 352.104 384.126 351.421C385.011 350.729 385.974 350.247 387.017 349.976C388.068 349.696 389.102 349.555 390.118 349.555C390.766 349.555 391.51 349.634 392.351 349.792C393.201 349.941 394.02 350.252 394.808 350.725C395.605 351.198 396.267 351.912 396.792 352.866C397.318 353.821 397.581 355.1 397.581 356.703V370H394.48V367.267H394.322C394.112 367.705 393.762 368.174 393.271 368.673C392.781 369.172 392.128 369.597 391.313 369.947C390.499 370.298 389.504 370.473 388.331 370.473ZM388.804 367.688C390.03 367.688 391.064 367.447 391.905 366.965C392.754 366.483 393.394 365.861 393.823 365.099C394.261 364.337 394.48 363.536 394.48 362.695V359.857C394.348 360.014 394.059 360.159 393.613 360.29C393.175 360.413 392.667 360.522 392.089 360.619C391.519 360.706 390.963 360.785 390.42 360.855C389.886 360.916 389.452 360.969 389.119 361.013C388.313 361.118 387.56 361.289 386.859 361.525C386.167 361.753 385.607 362.099 385.177 362.563C384.757 363.019 384.547 363.641 384.547 364.429C384.547 365.506 384.945 366.321 385.742 366.873C386.548 367.416 387.569 367.688 388.804 367.688Z" fill="white"/>
<path d="M347.5 378.955C347.474 377.574 346.335 376.475 344.955 376.5C343.574 376.526 342.475 377.665 342.5 379.045L347.5 378.955ZM344.265 435.8C345.259 436.758 346.841 436.729 347.8 435.735L363.418 419.539C364.376 418.545 364.347 416.962 363.353 416.004C362.359 415.045 360.777 415.074 359.818 416.068L345.936 430.465L331.539 416.582C330.545 415.624 328.962 415.653 328.004 416.647C327.045 417.641 327.074 419.223 328.068 420.182L344.265 435.8ZM342.5 379.045L343.5 434.045L348.5 433.955L347.5 378.955L342.5 379.045Z" fill="white"/>
<path d="M311.232 254.232C310.256 255.209 310.256 256.791 311.232 257.768L327.142 273.678C328.119 274.654 329.702 274.654 330.678 273.678C331.654 272.701 331.654 271.118 330.678 270.142L316.536 256L330.678 241.858C331.654 240.882 331.654 239.299 330.678 238.322C329.702 237.346 328.119 237.346 327.142 238.322L311.232 254.232ZM347.5 256L350 256L350 253.5L347.5 253.5L347.5 256ZM345 336C345 337.381 346.119 338.5 347.5 338.5C348.881 338.5 350 337.381 350 336L345 336ZM313 258.5L347.5 258.5L347.5 253.5L313 253.5L313 258.5ZM345 256L345 336L350 336L350 256L345 256Z" fill="white"/>
<path d="M375.777 269.473C374.498 269.473 373.337 269.232 372.295 268.75C371.253 268.26 370.425 267.555 369.812 266.635C369.199 265.706 368.892 264.585 368.892 263.271C368.892 262.115 369.12 261.178 369.575 260.46C370.031 259.732 370.64 259.163 371.402 258.751C372.164 258.34 373.005 258.033 373.924 257.832C374.853 257.621 375.786 257.455 376.723 257.332C377.949 257.175 378.944 257.056 379.706 256.978C380.476 256.89 381.037 256.746 381.387 256.544C381.747 256.343 381.926 255.992 381.926 255.493V255.388C381.926 254.091 381.571 253.084 380.862 252.366C380.161 251.647 379.097 251.288 377.669 251.288C376.189 251.288 375.028 251.612 374.187 252.261C373.346 252.909 372.755 253.601 372.413 254.337L369.47 253.286C369.996 252.059 370.696 251.104 371.572 250.421C372.457 249.729 373.421 249.247 374.463 248.976C375.514 248.696 376.548 248.555 377.564 248.555C378.212 248.555 378.957 248.634 379.798 248.792C380.647 248.941 381.466 249.252 382.255 249.725C383.052 250.198 383.713 250.912 384.239 251.866C384.764 252.821 385.027 254.1 385.027 255.703V269H381.926V266.267H381.768C381.558 266.705 381.208 267.174 380.717 267.673C380.227 268.172 379.574 268.597 378.76 268.947C377.945 269.298 376.951 269.473 375.777 269.473ZM376.25 266.688C377.476 266.688 378.51 266.447 379.351 265.965C380.201 265.483 380.84 264.861 381.269 264.099C381.707 263.337 381.926 262.536 381.926 261.695V258.857C381.795 259.014 381.506 259.159 381.059 259.29C380.621 259.413 380.113 259.522 379.535 259.619C378.965 259.706 378.409 259.785 377.866 259.855C377.332 259.916 376.898 259.969 376.565 260.013C375.759 260.118 375.006 260.289 374.305 260.525C373.613 260.753 373.053 261.099 372.624 261.563C372.203 262.019 371.993 262.641 371.993 263.429C371.993 264.506 372.391 265.321 373.189 265.873C373.994 266.416 375.015 266.688 376.25 266.688ZM393.577 261.642L393.525 257.805H394.155L402.985 248.818H406.822L397.414 258.331H397.151L393.577 261.642ZM390.687 269V242.091H393.788V269H390.687ZM403.511 269L395.627 259.014L397.834 256.859L407.452 269H403.511ZM419.59 248.818V251.446H409.131V248.818H419.59ZM412.179 243.983H415.28V263.219C415.28 264.095 415.407 264.752 415.661 265.19C415.924 265.619 416.257 265.908 416.66 266.057C417.071 266.197 417.505 266.267 417.96 266.267C418.302 266.267 418.582 266.25 418.801 266.214C419.02 266.171 419.195 266.136 419.327 266.109L419.958 268.895C419.747 268.974 419.454 269.053 419.077 269.131C418.701 269.219 418.223 269.263 417.645 269.263C416.769 269.263 415.911 269.074 415.07 268.698C414.238 268.321 413.546 267.747 412.994 266.977C412.451 266.206 412.179 265.233 412.179 264.06V243.983ZM436.973 260.749V248.818H440.074V269H436.973V265.584H436.763C436.29 266.609 435.554 267.48 434.555 268.199C433.557 268.908 432.295 269.263 430.771 269.263C429.51 269.263 428.389 268.987 427.407 268.435C426.426 267.874 425.656 267.033 425.095 265.912C424.534 264.782 424.254 263.359 424.254 261.642V248.818H427.355V261.432C427.355 262.903 427.767 264.077 428.59 264.953C429.422 265.829 430.482 266.267 431.77 266.267C432.541 266.267 433.325 266.07 434.122 265.676C434.927 265.282 435.602 264.677 436.145 263.863C436.697 263.048 436.973 262.01 436.973 260.749ZM454.215 269.42C452.27 269.42 450.593 268.991 449.182 268.133C447.781 267.266 446.699 266.057 445.937 264.506C445.184 262.947 444.807 261.134 444.807 259.067C444.807 257 445.184 255.178 445.937 253.601C446.699 252.015 447.759 250.78 449.117 249.896C450.483 249.002 452.077 248.555 453.899 248.555C454.951 248.555 455.989 248.731 457.013 249.081C458.038 249.431 458.971 250.001 459.812 250.789C460.653 251.569 461.323 252.602 461.822 253.89C462.322 255.178 462.571 256.763 462.571 258.646V259.96H447.014V257.28H459.418C459.418 256.141 459.19 255.125 458.735 254.232C458.288 253.338 457.648 252.633 456.816 252.116C455.993 251.599 455.021 251.341 453.899 251.341C452.664 251.341 451.596 251.647 450.693 252.261C449.8 252.865 449.112 253.653 448.631 254.626C448.149 255.598 447.908 256.64 447.908 257.753V259.54C447.908 261.064 448.171 262.356 448.696 263.416C449.231 264.467 449.971 265.268 450.917 265.82C451.863 266.363 452.962 266.635 454.215 266.635C455.029 266.635 455.765 266.521 456.422 266.293C457.088 266.057 457.662 265.706 458.143 265.242C458.625 264.769 458.997 264.182 459.26 263.482L462.256 264.322C461.941 265.339 461.411 266.232 460.666 267.003C459.922 267.765 459.002 268.361 457.907 268.79C456.812 269.21 455.581 269.42 454.215 269.42ZM470.389 242.091V269H467.288V242.091H470.389ZM479.169 242.091V269H476.069V242.091H479.169ZM493.31 269.42C491.366 269.42 489.688 268.991 488.278 268.133C486.877 267.266 485.795 266.057 485.033 264.506C484.279 262.947 483.903 261.134 483.903 259.067C483.903 257 484.279 255.178 485.033 253.601C485.795 252.015 486.855 250.78 488.212 249.896C489.579 249.002 491.173 248.555 492.995 248.555C494.046 248.555 495.084 248.731 496.109 249.081C497.134 249.431 498.067 250.001 498.908 250.789C499.749 251.569 500.419 252.602 500.918 253.89C501.417 255.178 501.667 256.763 501.667 258.646V259.96H486.11V257.28H498.514C498.514 256.141 498.286 255.125 497.83 254.232C497.384 253.338 496.744 252.633 495.912 252.116C495.089 251.599 494.116 251.341 492.995 251.341C491.76 251.341 490.691 251.647 489.789 252.261C488.896 252.865 488.208 253.653 487.726 254.626C487.245 255.598 487.004 256.64 487.004 257.753V259.54C487.004 261.064 487.266 262.356 487.792 263.416C488.326 264.467 489.066 265.268 490.013 265.82C490.959 266.363 492.058 266.635 493.31 266.635C494.125 266.635 494.861 266.521 495.518 266.293C496.184 266.057 496.757 265.706 497.239 265.242C497.721 264.769 498.093 264.182 498.356 263.482L501.352 264.322C501.036 265.339 500.506 266.232 499.762 267.003C499.017 267.765 498.098 268.361 497.003 268.79C495.908 269.21 494.677 269.42 493.31 269.42ZM506.384 269V248.818H509.38V251.866H509.59C509.958 250.868 510.624 250.058 511.587 249.436C512.551 248.814 513.637 248.503 514.846 248.503C515.073 248.503 515.358 248.507 515.7 248.516C516.041 248.525 516.3 248.538 516.475 248.555V251.709C516.37 251.683 516.129 251.643 515.752 251.591C515.384 251.529 514.995 251.499 514.583 251.499C513.602 251.499 512.726 251.704 511.955 252.116C511.193 252.519 510.589 253.08 510.142 253.798C509.704 254.507 509.485 255.318 509.485 256.229V269H506.384ZM539.281 269H530.977V242.091H539.649C542.259 242.091 544.493 242.63 546.35 243.707C548.207 244.776 549.631 246.313 550.62 248.319C551.61 250.316 552.105 252.707 552.105 255.493C552.105 258.296 551.606 260.709 550.607 262.733C549.609 264.747 548.155 266.298 546.245 267.384C544.335 268.461 542.014 269 539.281 269ZM534.236 266.109H539.071C541.296 266.109 543.14 265.68 544.603 264.822C546.065 263.963 547.156 262.741 547.874 261.156C548.593 259.57 548.952 257.683 548.952 255.493C548.952 253.321 548.597 251.45 547.887 249.882C547.178 248.306 546.118 247.097 544.708 246.256C543.297 245.406 541.541 244.982 539.439 244.982H534.236V266.109ZM557.151 269V248.818H560.146V251.866H560.357C560.724 250.868 561.39 250.058 562.354 249.436C563.317 248.814 564.403 248.503 565.612 248.503C565.84 248.503 566.125 248.507 566.466 248.516C566.808 248.525 567.066 248.538 567.241 248.555V251.709C567.136 251.683 566.895 251.643 566.519 251.591C566.151 251.529 565.761 251.499 565.349 251.499C564.368 251.499 563.492 251.704 562.722 252.116C561.96 252.519 561.355 253.08 560.908 253.798C560.47 254.507 560.251 255.318 560.251 256.229V269H557.151ZM583.636 260.749V248.818H586.737V269H583.636V265.584H583.426C582.953 266.609 582.217 267.48 581.218 268.199C580.22 268.908 578.958 269.263 577.434 269.263C576.173 269.263 575.052 268.987 574.071 268.435C573.09 267.874 572.319 267.033 571.758 265.912C571.197 264.782 570.917 263.359 570.917 261.642V248.818H574.018V261.432C574.018 262.903 574.43 264.077 575.253 264.953C576.085 265.829 577.145 266.267 578.433 266.267C579.204 266.267 579.988 266.07 580.785 265.676C581.591 265.282 582.265 264.677 582.808 263.863C583.36 263.048 583.636 262.01 583.636 260.749ZM600.615 269.42C598.723 269.42 597.094 268.974 595.727 268.08C594.361 267.187 593.31 265.956 592.574 264.388C591.838 262.82 591.47 261.029 591.47 259.014C591.47 256.964 591.847 255.156 592.6 253.588C593.362 252.011 594.422 250.78 595.78 249.896C597.146 249.002 598.741 248.555 600.562 248.555C601.982 248.555 603.26 248.818 604.399 249.344C605.538 249.869 606.471 250.605 607.198 251.551C607.925 252.497 608.376 253.601 608.551 254.862H605.45C605.214 253.942 604.688 253.128 603.874 252.418C603.068 251.7 601.982 251.341 600.615 251.341C599.406 251.341 598.346 251.656 597.435 252.287C596.533 252.909 595.828 253.789 595.32 254.928C594.821 256.058 594.571 257.385 594.571 258.909C594.571 260.468 594.816 261.826 595.307 262.982C595.806 264.138 596.507 265.036 597.409 265.676C598.32 266.315 599.389 266.635 600.615 266.635C601.421 266.635 602.152 266.495 602.809 266.214C603.466 265.934 604.022 265.531 604.478 265.006C604.933 264.48 605.258 263.849 605.45 263.114H608.551C608.376 264.305 607.942 265.378 607.25 266.333C606.567 267.279 605.661 268.032 604.531 268.593C603.409 269.145 602.104 269.42 600.615 269.42ZM615.975 261.642L615.922 257.805H616.553L625.382 248.818H629.219L619.811 258.331H619.549L615.975 261.642ZM613.084 269V242.091H616.185V269H613.084ZM625.908 269L618.025 259.014L620.232 256.859L629.85 269H625.908ZM370.942 302.648C370.942 299.337 371.371 296.293 372.229 293.516C373.097 290.73 374.332 288.168 375.935 285.83H378.668C378.037 286.697 377.446 287.765 376.894 289.036C376.351 290.297 375.873 291.685 375.462 293.201C375.05 294.707 374.726 296.266 374.489 297.878C374.262 299.49 374.148 301.08 374.148 302.648C374.148 304.732 374.349 306.848 374.752 308.994C375.155 311.14 375.698 313.133 376.381 314.972C377.065 316.812 377.827 318.31 378.668 319.466H375.935C374.332 317.127 373.097 314.569 372.229 311.793C371.371 309.007 370.942 305.959 370.942 302.648ZM383.243 314V293.818H386.344V314H383.243ZM384.82 290.455C384.216 290.455 383.694 290.249 383.256 289.837C382.827 289.425 382.613 288.93 382.613 288.352C382.613 287.774 382.827 287.279 383.256 286.868C383.694 286.456 384.216 286.25 384.82 286.25C385.424 286.25 385.941 286.456 386.37 286.868C386.808 287.279 387.027 287.774 387.027 288.352C387.027 288.93 386.808 289.425 386.37 289.837C385.941 290.249 385.424 290.455 384.82 290.455ZM406.319 298.338L403.534 299.126C403.358 298.662 403.1 298.211 402.758 297.773C402.425 297.326 401.97 296.958 401.392 296.669C400.814 296.38 400.074 296.236 399.171 296.236C397.936 296.236 396.907 296.52 396.084 297.09C395.269 297.65 394.862 298.364 394.862 299.232C394.862 300.002 395.142 300.611 395.703 301.058C396.263 301.505 397.139 301.877 398.33 302.175L401.326 302.911C403.131 303.348 404.475 304.019 405.36 304.921C406.245 305.814 406.687 306.966 406.687 308.376C406.687 309.533 406.354 310.566 405.688 311.477C405.031 312.388 404.112 313.107 402.929 313.632C401.747 314.158 400.371 314.42 398.803 314.42C396.745 314.42 395.041 313.974 393.692 313.08C392.343 312.187 391.489 310.882 391.13 309.165L394.073 308.429C394.354 309.515 394.884 310.33 395.663 310.873C396.452 311.416 397.481 311.688 398.751 311.688C400.196 311.688 401.344 311.381 402.193 310.768C403.052 310.146 403.481 309.401 403.481 308.534C403.481 307.833 403.236 307.246 402.745 306.773C402.255 306.292 401.501 305.933 400.485 305.696L397.122 304.908C395.273 304.47 393.916 303.791 393.048 302.871C392.19 301.943 391.761 300.782 391.761 299.389C391.761 298.25 392.081 297.243 392.72 296.367C393.368 295.491 394.249 294.804 395.361 294.304C396.482 293.805 397.752 293.555 399.171 293.555C401.169 293.555 402.736 293.993 403.875 294.869C405.023 295.745 405.837 296.902 406.319 298.338ZM420.132 293.818V296.446H409.673V293.818H420.132ZM412.721 288.983H415.822V308.219C415.822 309.095 415.949 309.752 416.203 310.19C416.466 310.619 416.799 310.908 417.202 311.057C417.613 311.197 418.047 311.267 418.502 311.267C418.844 311.267 419.124 311.25 419.343 311.214C419.562 311.171 419.737 311.136 419.869 311.109L420.5 313.895C420.289 313.974 419.996 314.053 419.619 314.131C419.243 314.219 418.765 314.263 418.187 314.263C417.311 314.263 416.453 314.074 415.612 313.698C414.78 313.321 414.088 312.747 413.536 311.977C412.993 311.206 412.721 310.233 412.721 309.06V288.983ZM429.369 314L423.219 293.818H426.478L430.84 309.27H431.05L435.36 293.818H438.671L442.928 309.217H443.138L447.501 293.818H450.759L444.61 314H441.562L437.147 298.496H436.832L432.417 314H429.369ZM462.634 314.42C460.689 314.42 459.012 313.991 457.601 313.133C456.2 312.266 455.118 311.057 454.356 309.506C453.603 307.947 453.226 306.134 453.226 304.067C453.226 302 453.603 300.178 454.356 298.601C455.118 297.015 456.178 295.78 457.536 294.896C458.902 294.002 460.496 293.555 462.318 293.555C463.369 293.555 464.407 293.731 465.432 294.081C466.457 294.431 467.39 295.001 468.231 295.789C469.072 296.569 469.742 297.602 470.241 298.89C470.741 300.178 470.99 301.763 470.99 303.646V304.96H455.433V302.28H467.837C467.837 301.141 467.609 300.125 467.154 299.232C466.707 298.338 466.067 297.633 465.235 297.116C464.412 296.599 463.44 296.341 462.318 296.341C461.083 296.341 460.015 296.647 459.112 297.261C458.219 297.865 457.531 298.653 457.05 299.626C456.568 300.598 456.327 301.64 456.327 302.753V304.54C456.327 306.064 456.59 307.356 457.115 308.416C457.65 309.467 458.39 310.268 459.336 310.82C460.282 311.363 461.381 311.635 462.634 311.635C463.448 311.635 464.184 311.521 464.841 311.293C465.507 311.057 466.081 310.706 466.562 310.242C467.044 309.769 467.416 309.182 467.679 308.482L470.675 309.322C470.36 310.339 469.83 311.232 469.085 312.003C468.34 312.765 467.421 313.361 466.326 313.79C465.231 314.21 464 314.42 462.634 314.42ZM475.707 314V293.818H478.703V296.866H478.913C479.281 295.868 479.947 295.058 480.91 294.436C481.874 293.814 482.96 293.503 484.169 293.503C484.397 293.503 484.681 293.507 485.023 293.516C485.365 293.525 485.623 293.538 485.798 293.555V296.709C485.693 296.683 485.452 296.643 485.075 296.591C484.708 296.529 484.318 296.499 483.906 296.499C482.925 296.499 482.049 296.704 481.278 297.116C480.516 297.519 479.912 298.08 479.465 298.798C479.027 299.507 478.808 300.318 478.808 301.229V314H475.707ZM499.515 293.818V296.446H489.057V293.818H499.515ZM492.105 288.983H495.206V308.219C495.206 309.095 495.333 309.752 495.587 310.19C495.85 310.619 496.182 310.908 496.585 311.057C496.997 311.197 497.431 311.267 497.886 311.267C498.228 311.267 498.508 311.25 498.727 311.214C498.946 311.171 499.121 311.136 499.253 311.109L499.883 313.895C499.673 313.974 499.38 314.053 499.003 314.131C498.626 314.219 498.149 314.263 497.571 314.263C496.695 314.263 495.836 314.074 494.996 313.698C494.163 313.321 493.471 312.747 492.92 311.977C492.376 311.206 492.105 310.233 492.105 309.06V288.983ZM510.802 302.648C510.802 305.959 510.368 309.007 509.501 311.793C508.643 314.569 507.412 317.127 505.809 319.466H503.076C503.707 318.599 504.294 317.53 504.837 316.26C505.389 314.999 505.87 313.615 506.282 312.108C506.694 310.593 507.014 309.029 507.241 307.417C507.478 305.797 507.596 304.207 507.596 302.648C507.596 300.563 507.395 298.448 506.992 296.301C506.589 294.155 506.046 292.163 505.362 290.323C504.679 288.484 503.917 286.986 503.076 285.83H505.809C507.412 288.168 508.643 290.73 509.501 293.516C510.368 296.293 510.802 299.337 510.802 302.648Z" fill="white"/>
<path d="M541.259 470V443.091H544.517V467.109H557.026V470H541.259ZM574.369 461.749V449.818H577.47V470H574.369V466.584H574.159C573.686 467.609 572.95 468.48 571.952 469.199C570.953 469.908 569.692 470.263 568.168 470.263C566.906 470.263 565.785 469.987 564.804 469.435C563.823 468.874 563.052 468.033 562.491 466.912C561.931 465.782 561.651 464.359 561.651 462.642V449.818H564.751V462.432C564.751 463.903 565.163 465.077 565.987 465.953C566.819 466.829 567.879 467.267 569.166 467.267C569.937 467.267 570.721 467.07 571.518 466.676C572.324 466.282 572.998 465.677 573.542 464.863C574.093 464.048 574.369 463.01 574.369 461.749ZM592.137 449.818V452.446H581.258V449.818H592.137ZM584.516 470V447.033C584.516 445.876 584.788 444.913 585.331 444.142C585.874 443.371 586.579 442.793 587.446 442.408C588.313 442.022 589.229 441.83 590.192 441.83C590.954 441.83 591.576 441.891 592.058 442.013C592.54 442.136 592.899 442.25 593.135 442.355L592.242 445.036C592.084 444.983 591.865 444.917 591.585 444.838C591.313 444.76 590.954 444.72 590.508 444.72C589.483 444.72 588.743 444.979 588.287 445.495C587.84 446.012 587.617 446.77 587.617 447.768V470H584.516ZM605.26 449.818V452.446H594.801V449.818H605.26ZM597.849 444.983H600.95V464.219C600.95 465.095 601.077 465.752 601.331 466.19C601.594 466.619 601.927 466.908 602.33 467.057C602.741 467.197 603.175 467.267 603.63 467.267C603.972 467.267 604.252 467.25 604.471 467.214C604.69 467.171 604.865 467.136 604.997 467.109L605.627 469.895C605.417 469.974 605.124 470.053 604.747 470.131C604.371 470.219 603.893 470.263 603.315 470.263C602.439 470.263 601.581 470.074 600.74 469.698C599.908 469.321 599.216 468.747 598.664 467.977C598.121 467.206 597.849 466.233 597.849 465.06V444.983ZM617.328 470.42C615.646 470.42 614.161 469.996 612.874 469.146C611.586 468.288 610.579 467.079 609.852 465.52C609.125 463.952 608.761 462.099 608.761 459.962C608.761 457.842 609.125 456.002 609.852 454.443C610.579 452.884 611.59 451.68 612.887 450.83C614.183 449.98 615.681 449.555 617.381 449.555C618.694 449.555 619.732 449.774 620.494 450.212C621.265 450.642 621.852 451.132 622.255 451.684C622.667 452.227 622.987 452.674 623.214 453.024H623.477V443.091H626.578V470H623.582V466.899H623.214C622.987 467.267 622.662 467.731 622.242 468.292C621.822 468.844 621.222 469.339 620.442 469.777C619.662 470.206 618.624 470.42 617.328 470.42ZM617.748 467.635C618.992 467.635 620.043 467.311 620.902 466.663C621.76 466.006 622.413 465.099 622.86 463.943C623.306 462.778 623.53 461.433 623.53 459.909C623.53 458.402 623.311 457.084 622.873 455.954C622.435 454.815 621.787 453.931 620.928 453.3C620.07 452.661 619.01 452.341 617.748 452.341C616.434 452.341 615.34 452.678 614.464 453.353C613.596 454.018 612.944 454.925 612.506 456.072C612.077 457.211 611.862 458.49 611.862 459.909C611.862 461.346 612.081 462.651 612.519 463.825C612.966 464.99 613.623 465.918 614.49 466.61C615.366 467.293 616.452 467.635 617.748 467.635ZM632.688 470V449.818H635.683V452.866H635.894C636.262 451.868 636.927 451.058 637.891 450.436C638.854 449.814 639.941 449.503 641.149 449.503C641.377 449.503 641.662 449.507 642.003 449.516C642.345 449.525 642.603 449.538 642.779 449.555V452.709C642.673 452.683 642.433 452.643 642.056 452.591C641.688 452.529 641.298 452.499 640.887 452.499C639.905 452.499 639.03 452.704 638.259 453.116C637.497 453.519 636.892 454.08 636.445 454.798C636.008 455.507 635.789 456.318 635.789 457.229V470H632.688ZM659.173 461.749V449.818H662.274V470H659.173V466.584H658.963C658.49 467.609 657.754 468.48 656.755 469.199C655.757 469.908 654.495 470.263 652.971 470.263C651.71 470.263 650.589 469.987 649.608 469.435C648.627 468.874 647.856 468.033 647.295 466.912C646.735 465.782 646.454 464.359 646.454 462.642V449.818H649.555V462.432C649.555 463.903 649.967 465.077 650.79 465.953C651.622 466.829 652.682 467.267 653.97 467.267C654.741 467.267 655.525 467.07 656.322 466.676C657.128 466.282 657.802 465.677 658.345 464.863C658.897 464.048 659.173 463.01 659.173 461.749ZM676.152 470.42C674.26 470.42 672.631 469.974 671.264 469.08C669.898 468.187 668.847 466.956 668.111 465.388C667.375 463.82 667.007 462.029 667.007 460.014C667.007 457.964 667.384 456.156 668.137 454.588C668.899 453.011 669.959 451.78 671.317 450.896C672.683 450.002 674.278 449.555 676.1 449.555C677.519 449.555 678.798 449.818 679.936 450.344C681.075 450.869 682.008 451.605 682.735 452.551C683.462 453.497 683.913 454.601 684.088 455.862H680.987C680.751 454.942 680.225 454.128 679.411 453.418C678.605 452.7 677.519 452.341 676.152 452.341C674.943 452.341 673.883 452.656 672.972 453.287C672.07 453.909 671.365 454.789 670.857 455.928C670.358 457.058 670.108 458.385 670.108 459.909C670.108 461.468 670.353 462.826 670.844 463.982C671.343 465.138 672.044 466.036 672.946 466.676C673.857 467.315 674.926 467.635 676.152 467.635C676.958 467.635 677.689 467.495 678.346 467.214C679.003 466.934 679.56 466.531 680.015 466.006C680.471 465.48 680.795 464.849 680.987 464.114H684.088C683.913 465.305 683.479 466.378 682.787 467.333C682.104 468.279 681.198 469.032 680.068 469.593C678.946 470.145 677.641 470.42 676.152 470.42ZM691.512 462.642L691.459 458.805H692.09L700.92 449.818H704.756L695.349 459.331H695.086L691.512 462.642ZM688.621 470V443.091H691.722V470H688.621ZM701.445 470L693.562 460.014L695.769 457.859L705.387 470H701.445ZM550.246 488.091V515H546.987V491.507H546.83L540.26 495.869V492.558L546.987 488.091H550.246ZM568.864 515V488.091H571.965V498.024H572.228C572.455 497.674 572.771 497.227 573.174 496.684C573.585 496.132 574.172 495.642 574.934 495.212C575.705 494.774 576.748 494.555 578.061 494.555C579.761 494.555 581.259 494.98 582.555 495.83C583.851 496.68 584.863 497.884 585.59 499.443C586.317 501.002 586.681 502.842 586.681 504.962C586.681 507.099 586.317 508.952 585.59 510.52C584.863 512.079 583.856 513.288 582.568 514.146C581.281 514.996 579.796 515.42 578.114 515.42C576.818 515.42 575.78 515.206 575 514.777C574.22 514.339 573.62 513.844 573.2 513.292C572.779 512.731 572.455 512.267 572.228 511.899H571.86V515H568.864ZM571.912 504.909C571.912 506.433 572.136 507.778 572.582 508.943C573.029 510.099 573.682 511.006 574.54 511.663C575.399 512.311 576.45 512.635 577.694 512.635C578.99 512.635 580.072 512.293 580.939 511.61C581.815 510.918 582.472 509.99 582.91 508.825C583.357 507.651 583.58 506.346 583.58 504.909C583.58 503.49 583.361 502.211 582.923 501.072C582.494 499.925 581.841 499.018 580.965 498.353C580.098 497.678 579.007 497.341 577.694 497.341C576.432 497.341 575.372 497.661 574.514 498.3C573.655 498.931 573.007 499.815 572.569 500.954C572.131 502.084 571.912 503.402 571.912 504.909ZM597.363 515.473C596.084 515.473 594.923 515.232 593.881 514.75C592.839 514.26 592.011 513.555 591.398 512.635C590.785 511.706 590.478 510.585 590.478 509.271C590.478 508.115 590.706 507.178 591.161 506.46C591.617 505.732 592.225 505.163 592.988 504.751C593.75 504.34 594.591 504.033 595.51 503.832C596.439 503.621 597.372 503.455 598.309 503.332C599.535 503.175 600.529 503.056 601.292 502.978C602.062 502.89 602.623 502.746 602.973 502.544C603.333 502.343 603.512 501.992 603.512 501.493V501.388C603.512 500.091 603.157 499.084 602.448 498.366C601.747 497.647 600.683 497.288 599.255 497.288C597.775 497.288 596.614 497.612 595.773 498.261C594.932 498.909 594.341 499.601 593.999 500.337L591.056 499.286C591.582 498.059 592.282 497.104 593.158 496.421C594.043 495.729 595.007 495.247 596.049 494.976C597.1 494.696 598.134 494.555 599.15 494.555C599.798 494.555 600.543 494.634 601.384 494.792C602.233 494.941 603.052 495.252 603.841 495.725C604.638 496.198 605.299 496.912 605.825 497.866C606.35 498.821 606.613 500.1 606.613 501.703V515H603.512V512.267H603.354C603.144 512.705 602.794 513.174 602.303 513.673C601.813 514.172 601.16 514.597 600.346 514.947C599.531 515.298 598.537 515.473 597.363 515.473ZM597.836 512.688C599.062 512.688 600.096 512.447 600.937 511.965C601.786 511.483 602.426 510.861 602.855 510.099C603.293 509.337 603.512 508.536 603.512 507.695V504.857C603.381 505.014 603.092 505.159 602.645 505.29C602.207 505.413 601.699 505.522 601.121 505.619C600.551 505.706 599.995 505.785 599.452 505.855C598.918 505.916 598.484 505.969 598.151 506.013C597.345 506.118 596.592 506.289 595.891 506.525C595.199 506.753 594.639 507.099 594.21 507.563C593.789 508.019 593.579 508.641 593.579 509.429C593.579 510.506 593.977 511.321 594.775 511.873C595.58 512.416 596.601 512.688 597.836 512.688ZM612.273 515V494.818H615.268V497.866H615.479C615.847 496.868 616.512 496.058 617.476 495.436C618.439 494.814 619.525 494.503 620.734 494.503C620.962 494.503 621.247 494.507 621.588 494.516C621.93 494.525 622.188 494.538 622.364 494.555V497.709C622.258 497.683 622.018 497.643 621.641 497.591C621.273 497.529 620.883 497.499 620.472 497.499C619.49 497.499 618.614 497.704 617.844 498.116C617.082 498.519 616.477 499.08 616.03 499.798C615.592 500.507 615.373 501.318 615.373 502.229V515H612.273Z" fill="white"/>
<path d="M513 481.5C514.381 481.5 515.5 480.381 515.5 479C515.5 477.619 514.381 476.5 513 476.5V481.5ZM447.232 477.232C446.256 478.209 446.256 479.791 447.232 480.768L463.142 496.678C464.118 497.654 465.701 497.654 466.678 496.678C467.654 495.701 467.654 494.118 466.678 493.142L452.536 479L466.678 464.858C467.654 463.882 467.654 462.299 466.678 461.322C465.701 460.346 464.118 460.346 463.142 461.322L447.232 477.232ZM513 476.5H449V481.5H513V476.5Z" fill="white"/>
</svg>
