<svg width="779" height="572" viewBox="0 0 779 572" fill="none" xmlns="http://www.w3.org/2000/svg">
<rect x="136.405" y="2" width="210" height="74" stroke="white" stroke-width="4"/>
<path d="M175.664 25.0909H179.553L188.698 47.4276H189.013L198.158 25.0909H202.047V52H198.999V31.5554H198.736L190.327 52H187.384L178.975 31.5554H178.712V52H175.664V25.0909ZM216.622 52.4205C214.677 52.4205 213 51.9912 211.589 51.1328C210.188 50.2656 209.106 49.0568 208.344 47.5064C207.591 45.9472 207.214 44.134 207.214 42.0668C207.214 39.9995 207.591 38.1776 208.344 36.6009C209.106 35.0154 210.166 33.7803 211.524 32.8956C212.89 32.0021 214.484 31.5554 216.306 31.5554C217.358 31.5554 218.396 31.7306 219.42 32.081C220.445 32.4313 221.378 33.0007 222.219 33.7891C223.06 34.5687 223.73 35.6023 224.229 36.8899C224.729 38.1776 224.978 39.763 224.978 41.6463V42.9602H209.421V40.2798H221.825C221.825 39.1411 221.597 38.125 221.142 37.2315C220.695 36.3381 220.055 35.6329 219.223 35.1161C218.4 34.5993 217.428 34.3409 216.306 34.3409C215.071 34.3409 214.003 34.6475 213.1 35.2607C212.207 35.8651 211.519 36.6534 211.038 37.6257C210.556 38.598 210.315 39.6404 210.315 40.7528V42.5398C210.315 44.0639 210.578 45.3559 211.103 46.4158C211.638 47.467 212.378 48.2685 213.324 48.8203C214.27 49.3634 215.369 49.6349 216.622 49.6349C217.436 49.6349 218.172 49.5211 218.829 49.2933C219.495 49.0568 220.069 48.7064 220.55 48.2422C221.032 47.7692 221.404 47.1823 221.667 46.4815L224.663 47.3224C224.348 48.3385 223.818 49.232 223.073 50.0028C222.329 50.7649 221.409 51.3606 220.314 51.7898C219.219 52.2102 217.988 52.4205 216.622 52.4205ZM232.796 39.8594V52H229.695V31.8182H232.691V34.9716H232.954C233.427 33.9467 234.145 33.1233 235.109 32.5014C236.072 31.8707 237.316 31.5554 238.84 31.5554C240.207 31.5554 241.402 31.8357 242.427 32.3963C243.452 32.9482 244.249 33.7891 244.818 34.919C245.388 36.0402 245.673 37.4593 245.673 39.1761V52H242.572V39.3864C242.572 37.8009 242.16 36.5658 241.337 35.6811C240.513 34.7876 239.383 34.3409 237.947 34.3409C236.957 34.3409 236.072 34.5555 235.293 34.9847C234.522 35.4139 233.913 36.0402 233.466 36.8636C233.019 37.687 232.796 38.6856 232.796 39.8594ZM265.634 36.3381L262.849 37.1264C262.674 36.6622 262.415 36.2111 262.074 35.7731C261.741 35.3263 261.285 34.9585 260.707 34.6694C260.129 34.3803 259.389 34.2358 258.487 34.2358C257.251 34.2358 256.222 34.5205 255.399 35.0898C254.584 35.6504 254.177 36.3643 254.177 37.2315C254.177 38.0024 254.457 38.6111 255.018 39.0579C255.578 39.5046 256.454 39.8769 257.646 40.1747L260.641 40.9105C262.446 41.3485 263.79 42.0186 264.675 42.9208C265.56 43.8143 266.002 44.9661 266.002 46.3764C266.002 47.5327 265.669 48.5663 265.004 49.4773C264.347 50.3883 263.427 51.1065 262.244 51.6321C261.062 52.1577 259.687 52.4205 258.119 52.4205C256.06 52.4205 254.356 51.9737 253.007 51.0803C251.659 50.1868 250.804 48.8816 250.445 47.1648L253.389 46.429C253.669 47.5152 254.199 48.3298 254.978 48.8729C255.767 49.416 256.796 49.6875 258.066 49.6875C259.511 49.6875 260.659 49.3809 261.509 48.7678C262.367 48.1458 262.796 47.4013 262.796 46.5341C262.796 45.8333 262.551 45.2464 262.06 44.7734C261.57 44.2917 260.817 43.9325 259.8 43.696L256.437 42.9077C254.589 42.4697 253.231 41.7908 252.364 40.8711C251.505 39.9426 251.076 38.782 251.076 37.3892C251.076 36.2505 251.396 35.2431 252.035 34.3672C252.683 33.4912 253.564 32.8036 254.676 32.3043C255.797 31.805 257.067 31.5554 258.487 31.5554C260.484 31.5554 262.052 31.9934 263.19 32.8693C264.338 33.7453 265.152 34.9015 265.634 36.3381ZM278.869 52.4205C276.977 52.4205 275.347 51.9737 273.981 51.0803C272.614 50.1868 271.563 48.9561 270.828 47.3881C270.092 45.8202 269.724 44.0289 269.724 42.0142C269.724 39.9645 270.1 38.1557 270.854 36.5877C271.616 35.011 272.676 33.7803 274.033 32.8956C275.4 32.0021 276.994 31.5554 278.816 31.5554C280.235 31.5554 281.514 31.8182 282.653 32.3438C283.792 32.8693 284.724 33.6051 285.451 34.5511C286.178 35.4972 286.63 36.6009 286.805 37.8622H283.704C283.467 36.9425 282.942 36.1278 282.127 35.4183C281.321 34.7 280.235 34.3409 278.869 34.3409C277.66 34.3409 276.6 34.6562 275.689 35.2869C274.787 35.9089 274.082 36.7892 273.574 37.9279C273.074 39.0579 272.825 40.3849 272.825 41.9091C272.825 43.4683 273.07 44.826 273.56 45.9822C274.06 47.1385 274.761 48.0363 275.663 48.6758C276.574 49.3152 277.642 49.6349 278.869 49.6349C279.675 49.6349 280.406 49.4948 281.063 49.2145C281.72 48.9342 282.276 48.5312 282.732 48.0057C283.187 47.4801 283.511 46.8494 283.704 46.1136H286.805C286.63 47.3049 286.196 48.378 285.504 49.3327C284.821 50.2788 283.914 51.0321 282.784 51.5927C281.663 52.1445 280.358 52.4205 278.869 52.4205ZM294.439 39.8594V52H291.338V25.0909H294.439V34.9716H294.701C295.174 33.9292 295.884 33.1014 296.83 32.4883C297.785 31.8664 299.055 31.5554 300.64 31.5554C302.016 31.5554 303.22 31.8313 304.254 32.3832C305.287 32.9263 306.089 33.7628 306.658 34.8928C307.236 36.014 307.525 37.4418 307.525 39.1761V52H304.424V39.3864C304.424 37.7834 304.008 36.5439 303.176 35.668C302.353 34.7833 301.21 34.3409 299.747 34.3409C298.731 34.3409 297.82 34.5555 297.014 34.9847C296.217 35.4139 295.586 36.0402 295.122 36.8636C294.666 37.687 294.439 38.6856 294.439 39.8594Z" fill="white"/>
<path d="M243.905 101C243.905 99.6193 242.786 98.5 241.405 98.5C240.024 98.5 238.905 99.6193 238.905 101H243.905ZM239.637 226.768C240.614 227.744 242.196 227.744 243.173 226.768L259.083 210.858C260.059 209.882 260.059 208.299 259.083 207.322C258.106 206.346 256.523 206.346 255.547 207.322L241.405 221.464L227.263 207.322C226.287 206.346 224.704 206.346 223.727 207.322C222.751 208.299 222.751 209.882 223.727 210.858L239.637 226.768ZM238.905 101V225H243.905V101H238.905Z" fill="white"/>
<path d="M184.664 269V242.091H193.756C195.858 242.091 197.584 242.45 198.933 243.168C200.282 243.878 201.28 244.855 201.928 246.098C202.577 247.342 202.901 248.757 202.901 250.342C202.901 251.928 202.577 253.334 201.928 254.56C201.28 255.786 200.286 256.75 198.946 257.451C197.606 258.143 195.893 258.489 193.808 258.489H186.45V255.545H193.703C195.14 255.545 196.296 255.335 197.172 254.915C198.057 254.494 198.696 253.899 199.09 253.128C199.493 252.348 199.695 251.42 199.695 250.342C199.695 249.265 199.493 248.323 199.09 247.517C198.687 246.712 198.044 246.09 197.159 245.652C196.274 245.205 195.105 244.982 193.651 244.982H187.922V269H184.664ZM197.33 256.912L203.952 269H200.168L193.651 256.912H197.33ZM216.155 269.42C214.21 269.42 212.533 268.991 211.123 268.133C209.721 267.266 208.639 266.057 207.877 264.506C207.124 262.947 206.747 261.134 206.747 259.067C206.747 257 207.124 255.178 207.877 253.601C208.639 252.015 209.699 250.78 211.057 249.896C212.423 249.002 214.018 248.555 215.84 248.555C216.891 248.555 217.929 248.731 218.954 249.081C219.978 249.431 220.911 250.001 221.752 250.789C222.593 251.569 223.263 252.602 223.763 253.89C224.262 255.178 224.511 256.763 224.511 258.646V259.96H208.955V257.28H221.358C221.358 256.141 221.13 255.125 220.675 254.232C220.228 253.338 219.589 252.633 218.757 252.116C217.933 251.599 216.961 251.341 215.84 251.341C214.605 251.341 213.536 251.647 212.634 252.261C211.74 252.865 211.053 253.653 210.571 254.626C210.089 255.598 209.848 256.64 209.848 257.753V259.54C209.848 261.064 210.111 262.356 210.636 263.416C211.171 264.467 211.911 265.268 212.857 265.82C213.803 266.363 214.902 266.635 216.155 266.635C216.97 266.635 217.705 266.521 218.362 266.293C219.028 266.057 219.602 265.706 220.084 265.242C220.565 264.769 220.938 264.182 221.2 263.482L224.196 264.322C223.881 265.339 223.351 266.232 222.606 267.003C221.862 267.765 220.942 268.361 219.847 268.79C218.752 269.21 217.521 269.42 216.155 269.42ZM237.375 276.989C235.877 276.989 234.589 276.796 233.512 276.411C232.434 276.034 231.537 275.535 230.818 274.913C230.109 274.299 229.544 273.643 229.123 272.942L231.594 271.207C231.874 271.575 232.229 271.996 232.658 272.469C233.087 272.951 233.674 273.367 234.418 273.717C235.172 274.076 236.157 274.256 237.375 274.256C239.004 274.256 240.349 273.862 241.408 273.073C242.468 272.285 242.998 271.05 242.998 269.368V265.268H242.736C242.508 265.636 242.184 266.092 241.763 266.635C241.352 267.169 240.756 267.647 239.976 268.067C239.205 268.479 238.163 268.685 236.849 268.685C235.22 268.685 233.757 268.299 232.461 267.528C231.173 266.758 230.153 265.636 229.399 264.165C228.655 262.693 228.282 260.906 228.282 258.804C228.282 256.737 228.646 254.937 229.373 253.404C230.1 251.862 231.112 250.671 232.408 249.83C233.705 248.98 235.202 248.555 236.902 248.555C238.216 248.555 239.258 248.774 240.029 249.212C240.808 249.642 241.404 250.132 241.816 250.684C242.236 251.227 242.56 251.674 242.788 252.024H243.103V248.818H246.099V269.578C246.099 271.312 245.705 272.723 244.917 273.809C244.137 274.904 243.086 275.705 241.763 276.213C240.449 276.73 238.986 276.989 237.375 276.989ZM237.27 265.899C238.513 265.899 239.565 265.614 240.423 265.045C241.281 264.476 241.934 263.657 242.381 262.588C242.828 261.519 243.051 260.241 243.051 258.751C243.051 257.297 242.832 256.014 242.394 254.902C241.956 253.789 241.308 252.918 240.449 252.287C239.591 251.656 238.531 251.341 237.27 251.341C235.956 251.341 234.861 251.674 233.985 252.339C233.118 253.005 232.465 253.899 232.027 255.02C231.598 256.141 231.383 257.385 231.383 258.751C231.383 260.153 231.602 261.392 232.04 262.47C232.487 263.538 233.144 264.379 234.011 264.993C234.887 265.597 235.973 265.899 237.27 265.899ZM254.876 242.091V269H251.775V242.091H254.876ZM269.017 269.42C267.073 269.42 265.395 268.991 263.985 268.133C262.583 267.266 261.502 266.057 260.74 264.506C259.986 262.947 259.61 261.134 259.61 259.067C259.61 257 259.986 255.178 260.74 253.601C261.502 252.015 262.562 250.78 263.919 249.896C265.286 249.002 266.88 248.555 268.702 248.555C269.753 248.555 270.791 248.731 271.816 249.081C272.841 249.431 273.774 250.001 274.615 250.789C275.455 251.569 276.126 252.602 276.625 253.89C277.124 255.178 277.374 256.763 277.374 258.646V259.96H261.817V257.28H274.22C274.22 256.141 273.993 255.125 273.537 254.232C273.09 253.338 272.451 252.633 271.619 252.116C270.795 251.599 269.823 251.341 268.702 251.341C267.467 251.341 266.398 251.647 265.496 252.261C264.602 252.865 263.915 253.653 263.433 254.626C262.951 255.598 262.71 256.64 262.71 257.753V259.54C262.71 261.064 262.973 262.356 263.499 263.416C264.033 264.467 264.773 265.268 265.719 265.82C266.665 266.363 267.765 266.635 269.017 266.635C269.832 266.635 270.568 266.521 271.225 266.293C271.89 266.057 272.464 265.706 272.946 265.242C273.428 264.769 273.8 264.182 274.063 263.482L277.058 264.322C276.743 265.339 276.213 266.232 275.469 267.003C274.724 267.765 273.804 268.361 272.709 268.79C271.614 269.21 270.384 269.42 269.017 269.42ZM282.091 269V248.818H285.086V251.866H285.297C285.665 250.868 286.33 250.058 287.294 249.436C288.257 248.814 289.344 248.503 290.552 248.503C290.78 248.503 291.065 248.507 291.406 248.516C291.748 248.525 292.006 248.538 292.182 248.555V251.709C292.077 251.683 291.836 251.643 291.459 251.591C291.091 251.529 290.701 251.499 290.29 251.499C289.309 251.499 288.433 251.704 287.662 252.116C286.9 252.519 286.295 253.08 285.849 253.798C285.411 254.507 285.192 255.318 285.192 256.229V269H282.091Z" fill="white"/>
<path d="M288.984 160.989C287.487 160.989 286.199 160.796 285.121 160.411C284.044 160.034 283.146 159.535 282.428 158.913C281.718 158.299 281.153 157.643 280.733 156.942L283.203 155.207C283.483 155.575 283.838 155.996 284.267 156.469C284.697 156.951 285.283 157.367 286.028 157.717C286.781 158.076 287.767 158.256 288.984 158.256C290.614 158.256 291.958 157.862 293.018 157.073C294.078 156.285 294.608 155.05 294.608 153.368V149.268H294.345C294.117 149.636 293.793 150.092 293.373 150.635C292.961 151.169 292.366 151.647 291.586 152.067C290.815 152.479 289.773 152.685 288.459 152.685C286.83 152.685 285.367 152.299 284.07 151.528C282.783 150.758 281.762 149.636 281.009 148.165C280.264 146.693 279.892 144.906 279.892 142.804C279.892 140.737 280.256 138.937 280.983 137.404C281.71 135.862 282.721 134.671 284.018 133.83C285.314 132.98 286.812 132.555 288.511 132.555C289.825 132.555 290.868 132.774 291.638 133.212C292.418 133.642 293.014 134.132 293.425 134.684C293.846 135.227 294.17 135.674 294.398 136.024H294.713V132.818H297.709V153.578C297.709 155.312 297.315 156.723 296.526 157.809C295.747 158.904 294.696 159.705 293.373 160.213C292.059 160.73 290.596 160.989 288.984 160.989ZM288.879 149.899C290.123 149.899 291.174 149.614 292.033 149.045C292.891 148.476 293.544 147.657 293.99 146.588C294.437 145.519 294.661 144.241 294.661 142.751C294.661 141.297 294.442 140.014 294.004 138.902C293.566 137.789 292.917 136.918 292.059 136.287C291.201 135.656 290.141 135.341 288.879 135.341C287.565 135.341 286.47 135.674 285.594 136.339C284.727 137.005 284.075 137.899 283.637 139.02C283.208 140.141 282.993 141.385 282.993 142.751C282.993 144.153 283.212 145.392 283.65 146.47C284.097 147.538 284.754 148.379 285.621 148.993C286.497 149.597 287.583 149.899 288.879 149.899ZM311.847 153.42C309.902 153.42 308.225 152.991 306.814 152.133C305.413 151.266 304.331 150.057 303.569 148.506C302.816 146.947 302.439 145.134 302.439 143.067C302.439 141 302.816 139.178 303.569 137.601C304.331 136.015 305.391 134.78 306.749 133.896C308.115 133.002 309.709 132.555 311.531 132.555C312.582 132.555 313.62 132.731 314.645 133.081C315.67 133.431 316.603 134.001 317.444 134.789C318.285 135.569 318.955 136.602 319.454 137.89C319.953 139.178 320.203 140.763 320.203 142.646V143.96H304.646V141.28H317.05C317.05 140.141 316.822 139.125 316.366 138.232C315.92 137.338 315.28 136.633 314.448 136.116C313.625 135.599 312.652 135.341 311.531 135.341C310.296 135.341 309.228 135.647 308.325 136.261C307.432 136.865 306.744 137.653 306.262 138.626C305.781 139.598 305.54 140.64 305.54 141.753V143.54C305.54 145.064 305.803 146.356 306.328 147.416C306.862 148.467 307.603 149.268 308.549 149.82C309.495 150.363 310.594 150.635 311.847 150.635C312.661 150.635 313.397 150.521 314.054 150.293C314.72 150.057 315.293 149.706 315.775 149.242C316.257 148.769 316.629 148.182 316.892 147.482L319.888 148.322C319.572 149.339 319.042 150.232 318.298 151.003C317.553 151.765 316.634 152.361 315.539 152.79C314.444 153.21 313.213 153.42 311.847 153.42ZM329.493 153L323.343 132.818H326.602L330.964 148.27H331.174L335.484 132.818H338.795L343.052 148.217H343.262L347.625 132.818H350.883L344.734 153H341.686L337.271 137.496H336.956L332.541 153H329.493ZM367.701 144.749V132.818H370.802V153H367.701V149.584H367.491C367.018 150.609 366.282 151.48 365.284 152.199C364.285 152.908 363.024 153.263 361.5 153.263C360.238 153.263 359.117 152.987 358.136 152.435C357.155 151.874 356.384 151.033 355.824 149.912C355.263 148.782 354.983 147.359 354.983 145.642V132.818H358.083V145.432C358.083 146.903 358.495 148.077 359.319 148.953C360.151 149.829 361.211 150.267 362.498 150.267C363.269 150.267 364.053 150.07 364.85 149.676C365.656 149.282 366.33 148.677 366.874 147.863C367.425 147.048 367.701 146.01 367.701 144.749ZM359.135 129.455C358.583 129.455 358.092 129.244 357.663 128.824C357.243 128.395 357.032 127.904 357.032 127.352C357.032 126.748 357.243 126.249 357.663 125.854C358.092 125.451 358.583 125.25 359.135 125.25C359.739 125.25 360.238 125.451 360.632 125.854C361.035 126.249 361.237 126.748 361.237 127.352C361.237 127.904 361.035 128.395 360.632 128.824C360.238 129.244 359.739 129.455 359.135 129.455ZM366.703 129.455C366.151 129.455 365.66 129.244 365.231 128.824C364.811 128.395 364.6 127.904 364.6 127.352C364.6 126.748 364.811 126.249 365.231 125.854C365.66 125.451 366.151 125.25 366.703 125.25C367.307 125.25 367.806 125.451 368.201 125.854C368.604 126.249 368.805 126.748 368.805 127.352C368.805 127.904 368.604 128.395 368.201 128.824C367.806 129.244 367.307 129.455 366.703 129.455ZM379.582 140.859V153H376.482V132.818H379.477V135.972H379.74C380.213 134.947 380.931 134.123 381.895 133.501C382.859 132.871 384.102 132.555 385.627 132.555C386.993 132.555 388.189 132.836 389.214 133.396C390.238 133.948 391.035 134.789 391.605 135.919C392.174 137.04 392.459 138.459 392.459 140.176V153H389.358V140.386C389.358 138.801 388.946 137.566 388.123 136.681C387.3 135.788 386.17 135.341 384.733 135.341C383.743 135.341 382.859 135.556 382.079 135.985C381.308 136.414 380.699 137.04 380.253 137.864C379.806 138.687 379.582 139.686 379.582 140.859ZM412.421 137.338L409.635 138.126C409.46 137.662 409.202 137.211 408.86 136.773C408.527 136.326 408.072 135.958 407.493 135.669C406.915 135.38 406.175 135.236 405.273 135.236C404.038 135.236 403.009 135.52 402.185 136.09C401.371 136.65 400.963 137.364 400.963 138.232C400.963 139.002 401.244 139.611 401.804 140.058C402.365 140.505 403.241 140.877 404.432 141.175L407.428 141.911C409.232 142.348 410.577 143.019 411.461 143.921C412.346 144.814 412.789 145.966 412.789 147.376C412.789 148.533 412.456 149.566 411.79 150.477C411.133 151.388 410.213 152.107 409.031 152.632C407.848 153.158 406.473 153.42 404.905 153.42C402.847 153.42 401.143 152.974 399.794 152.08C398.445 151.187 397.591 149.882 397.232 148.165L400.175 147.429C400.455 148.515 400.985 149.33 401.765 149.873C402.553 150.416 403.582 150.688 404.852 150.688C406.298 150.688 407.445 150.381 408.295 149.768C409.153 149.146 409.583 148.401 409.583 147.534C409.583 146.833 409.337 146.246 408.847 145.773C408.356 145.292 407.603 144.933 406.587 144.696L403.223 143.908C401.375 143.47 400.017 142.791 399.15 141.871C398.292 140.943 397.862 139.782 397.862 138.389C397.862 137.25 398.182 136.243 398.822 135.367C399.47 134.491 400.35 133.804 401.463 133.304C402.584 132.805 403.854 132.555 405.273 132.555C407.27 132.555 408.838 132.993 409.977 133.869C411.124 134.745 411.939 135.902 412.421 137.338ZM425.655 153.42C423.763 153.42 422.134 152.974 420.767 152.08C419.401 151.187 418.35 149.956 417.614 148.388C416.878 146.82 416.51 145.029 416.51 143.014C416.51 140.964 416.887 139.156 417.64 137.588C418.402 136.011 419.462 134.78 420.82 133.896C422.186 133.002 423.781 132.555 425.603 132.555C427.022 132.555 428.3 132.818 429.439 133.344C430.578 133.869 431.511 134.605 432.238 135.551C432.965 136.497 433.416 137.601 433.591 138.862H430.49C430.254 137.942 429.728 137.128 428.914 136.418C428.108 135.7 427.022 135.341 425.655 135.341C424.446 135.341 423.386 135.656 422.475 136.287C421.573 136.909 420.868 137.789 420.36 138.928C419.861 140.058 419.611 141.385 419.611 142.909C419.611 144.468 419.856 145.826 420.347 146.982C420.846 148.138 421.547 149.036 422.449 149.676C423.36 150.315 424.429 150.635 425.655 150.635C426.461 150.635 427.192 150.495 427.849 150.214C428.506 149.934 429.063 149.531 429.518 149.006C429.974 148.48 430.298 147.849 430.49 147.114H433.591C433.416 148.305 432.982 149.378 432.29 150.333C431.607 151.279 430.701 152.032 429.571 152.593C428.449 153.145 427.144 153.42 425.655 153.42ZM441.225 140.859V153H438.124V126.091H441.225V135.972H441.488C441.961 134.929 442.67 134.101 443.616 133.488C444.571 132.866 445.841 132.555 447.427 132.555C448.802 132.555 450.006 132.831 451.04 133.383C452.074 133.926 452.875 134.763 453.445 135.893C454.023 137.014 454.312 138.442 454.312 140.176V153H451.211V140.386C451.211 138.783 450.795 137.544 449.963 136.668C449.139 135.783 447.996 135.341 446.533 135.341C445.517 135.341 444.606 135.556 443.8 135.985C443.003 136.414 442.373 137.04 441.908 137.864C441.453 138.687 441.225 139.686 441.225 140.859ZM468.762 132.818V135.446H458.303V132.818H468.762ZM461.351 127.983H464.452V147.219C464.452 148.095 464.579 148.752 464.833 149.19C465.096 149.619 465.429 149.908 465.831 150.057C466.243 150.197 466.677 150.267 467.132 150.267C467.474 150.267 467.754 150.25 467.973 150.214C468.192 150.171 468.367 150.136 468.499 150.109L469.129 152.895C468.919 152.974 468.626 153.053 468.249 153.131C467.872 153.219 467.395 153.263 466.817 153.263C465.941 153.263 465.083 153.074 464.242 152.698C463.41 152.321 462.718 151.747 462.166 150.977C461.623 150.206 461.351 149.233 461.351 148.06V127.983ZM481.671 153.42C479.726 153.42 478.049 152.991 476.638 152.133C475.237 151.266 474.155 150.057 473.393 148.506C472.64 146.947 472.263 145.134 472.263 143.067C472.263 141 472.64 139.178 473.393 137.601C474.155 136.015 475.215 134.78 476.573 133.896C477.939 133.002 479.533 132.555 481.355 132.555C482.407 132.555 483.445 132.731 484.469 133.081C485.494 133.431 486.427 134.001 487.268 134.789C488.109 135.569 488.779 136.602 489.278 137.89C489.778 139.178 490.027 140.763 490.027 142.646V143.96H474.471V141.28H486.874C486.874 140.141 486.646 139.125 486.191 138.232C485.744 137.338 485.105 136.633 484.272 136.116C483.449 135.599 482.477 135.341 481.355 135.341C480.12 135.341 479.052 135.647 478.15 136.261C477.256 136.865 476.568 137.653 476.087 138.626C475.605 139.598 475.364 140.64 475.364 141.753V143.54C475.364 145.064 475.627 146.356 476.152 147.416C476.687 148.467 477.427 149.268 478.373 149.82C479.319 150.363 480.418 150.635 481.671 150.635C482.485 150.635 483.221 150.521 483.878 150.293C484.544 150.057 485.118 149.706 485.599 149.242C486.081 148.769 486.453 148.182 486.716 147.482L489.712 148.322C489.397 149.339 488.867 150.232 488.122 151.003C487.378 151.765 486.458 152.361 485.363 152.79C484.268 153.21 483.037 153.42 481.671 153.42ZM505.571 153V126.091H521.706V128.982H508.83V138.074H520.497V140.964H508.83V153H505.571ZM526.65 153V132.818H529.645V135.866H529.856C530.223 134.868 530.889 134.058 531.853 133.436C532.816 132.814 533.902 132.503 535.111 132.503C535.339 132.503 535.624 132.507 535.965 132.516C536.307 132.525 536.565 132.538 536.741 132.555V135.709C536.635 135.683 536.395 135.643 536.018 135.591C535.65 135.529 535.26 135.499 534.848 135.499C533.867 135.499 532.991 135.704 532.221 136.116C531.459 136.519 530.854 137.08 530.407 137.798C529.969 138.507 529.75 139.318 529.75 140.229V153H526.65ZM548.264 153.42C546.319 153.42 544.642 152.991 543.231 152.133C541.83 151.266 540.748 150.057 539.986 148.506C539.233 146.947 538.856 145.134 538.856 143.067C538.856 141 539.233 139.178 539.986 137.601C540.748 136.015 541.808 134.78 543.166 133.896C544.532 133.002 546.126 132.555 547.948 132.555C548.999 132.555 550.037 132.731 551.062 133.081C552.087 133.431 553.02 134.001 553.861 134.789C554.702 135.569 555.372 136.602 555.871 137.89C556.37 139.178 556.62 140.763 556.62 142.646V143.96H541.063V141.28H553.467C553.467 140.141 553.239 139.125 552.783 138.232C552.337 137.338 551.697 136.633 550.865 136.116C550.042 135.599 549.069 135.341 547.948 135.341C546.713 135.341 545.645 135.647 544.742 136.261C543.849 136.865 543.161 137.653 542.679 138.626C542.198 139.598 541.957 140.64 541.957 141.753V143.54C541.957 145.064 542.22 146.356 542.745 147.416C543.279 148.467 544.02 149.268 544.966 149.82C545.912 150.363 547.011 150.635 548.264 150.635C549.078 150.635 549.814 150.521 550.471 150.293C551.137 150.057 551.71 149.706 552.192 149.242C552.674 148.769 553.046 148.182 553.309 147.482L556.305 148.322C555.989 149.339 555.459 150.232 554.715 151.003C553.97 151.765 553.051 152.361 551.956 152.79C550.861 153.21 549.63 153.42 548.264 153.42ZM575.107 160.568V149.899H574.844C574.616 150.267 574.292 150.731 573.872 151.292C573.451 151.844 572.851 152.339 572.072 152.777C571.292 153.206 570.254 153.42 568.958 153.42C567.276 153.42 565.791 152.996 564.504 152.146C563.216 151.288 562.209 150.079 561.482 148.52C560.755 146.952 560.391 145.099 560.391 142.962C560.391 140.842 560.755 139.002 561.482 137.443C562.209 135.884 563.22 134.68 564.517 133.83C565.813 132.98 567.311 132.555 569.01 132.555C570.324 132.555 571.362 132.774 572.124 133.212C572.895 133.642 573.482 134.132 573.885 134.684C574.297 135.227 574.616 135.674 574.844 136.024H575.212V132.818H578.208V160.568H575.107ZM569.378 150.635C570.622 150.635 571.673 150.311 572.532 149.663C573.39 149.006 574.043 148.099 574.489 146.943C574.936 145.778 575.16 144.433 575.16 142.909C575.16 141.402 574.941 140.084 574.503 138.954C574.065 137.815 573.416 136.931 572.558 136.3C571.7 135.661 570.64 135.341 569.378 135.341C568.064 135.341 566.969 135.678 566.093 136.353C565.226 137.018 564.574 137.925 564.136 139.072C563.707 140.211 563.492 141.49 563.492 142.909C563.492 144.346 563.711 145.651 564.149 146.825C564.596 147.99 565.253 148.918 566.12 149.61C566.996 150.293 568.082 150.635 569.378 150.635ZM596.603 144.749V132.818H599.704V153H596.603V149.584H596.392C595.919 150.609 595.184 151.48 594.185 152.199C593.187 152.908 591.925 153.263 590.401 153.263C589.14 153.263 588.018 152.987 587.037 152.435C586.056 151.874 585.285 151.033 584.725 149.912C584.164 148.782 583.884 147.359 583.884 145.642V132.818H586.985V145.432C586.985 146.903 587.397 148.077 588.22 148.953C589.052 149.829 590.112 150.267 591.4 150.267C592.17 150.267 592.954 150.07 593.752 149.676C594.557 149.282 595.232 148.677 595.775 147.863C596.327 147.048 596.603 146.01 596.603 144.749ZM613.845 153.42C611.9 153.42 610.223 152.991 608.812 152.133C607.411 151.266 606.329 150.057 605.567 148.506C604.814 146.947 604.437 145.134 604.437 143.067C604.437 141 604.814 139.178 605.567 137.601C606.329 136.015 607.389 134.78 608.747 133.896C610.113 133.002 611.707 132.555 613.529 132.555C614.58 132.555 615.618 132.731 616.643 133.081C617.668 133.431 618.601 134.001 619.442 134.789C620.283 135.569 620.953 136.602 621.452 137.89C621.952 139.178 622.201 140.763 622.201 142.646V143.96H606.644V141.28H619.048C619.048 140.141 618.82 139.125 618.365 138.232C617.918 137.338 617.278 136.633 616.446 136.116C615.623 135.599 614.651 135.341 613.529 135.341C612.294 135.341 611.226 135.647 610.323 136.261C609.43 136.865 608.742 137.653 608.26 138.626C607.779 139.598 607.538 140.64 607.538 141.753V143.54C607.538 145.064 607.801 146.356 608.326 147.416C608.86 148.467 609.601 149.268 610.547 149.82C611.493 150.363 612.592 150.635 613.845 150.635C614.659 150.635 615.395 150.521 616.052 150.293C616.718 150.057 617.291 149.706 617.773 149.242C618.255 148.769 618.627 148.182 618.89 147.482L621.886 148.322C621.57 149.339 621.041 150.232 620.296 151.003C619.551 151.765 618.632 152.361 617.537 152.79C616.442 153.21 615.211 153.42 613.845 153.42ZM630.019 140.859V153H626.918V132.818H629.914V135.972H630.177C630.65 134.947 631.368 134.123 632.331 133.501C633.295 132.871 634.539 132.555 636.063 132.555C637.43 132.555 638.625 132.836 639.65 133.396C640.675 133.948 641.472 134.789 642.041 135.919C642.611 137.04 642.895 138.459 642.895 140.176V153H639.795V140.386C639.795 138.801 639.383 137.566 638.559 136.681C637.736 135.788 636.606 135.341 635.17 135.341C634.18 135.341 633.295 135.556 632.515 135.985C631.745 136.414 631.136 137.04 630.689 137.864C630.242 138.687 630.019 139.686 630.019 140.859ZM647.984 153V150.635L659.441 135.919V135.709H648.351V132.818H663.435V135.288L652.293 149.899V150.109H663.803V153H647.984ZM281.942 186.648C281.942 183.337 282.371 180.293 283.229 177.516C284.097 174.73 285.332 172.168 286.935 169.83H289.668C289.037 170.697 288.446 171.765 287.894 173.036C287.351 174.297 286.873 175.685 286.462 177.201C286.05 178.707 285.726 180.266 285.489 181.878C285.262 183.49 285.148 185.08 285.148 186.648C285.148 188.732 285.349 190.848 285.752 192.994C286.155 195.14 286.698 197.133 287.381 198.972C288.065 200.812 288.827 202.31 289.668 203.466H286.935C285.332 201.127 284.097 198.569 283.229 195.793C282.371 193.007 281.942 189.959 281.942 186.648ZM308.539 182.338L305.753 183.126C305.578 182.662 305.32 182.211 304.978 181.773C304.645 181.326 304.19 180.958 303.612 180.669C303.033 180.38 302.293 180.236 301.391 180.236C300.156 180.236 299.127 180.52 298.303 181.09C297.489 181.65 297.081 182.364 297.081 183.232C297.081 184.002 297.362 184.611 297.922 185.058C298.483 185.505 299.359 185.877 300.55 186.175L303.546 186.911C305.35 187.348 306.695 188.019 307.58 188.921C308.464 189.814 308.907 190.966 308.907 192.376C308.907 193.533 308.574 194.566 307.908 195.477C307.251 196.388 306.331 197.107 305.149 197.632C303.966 198.158 302.591 198.42 301.023 198.42C298.965 198.42 297.261 197.974 295.912 197.08C294.563 196.187 293.709 194.882 293.35 193.165L296.293 192.429C296.573 193.515 297.103 194.33 297.883 194.873C298.671 195.416 299.7 195.688 300.971 195.688C302.416 195.688 303.563 195.381 304.413 194.768C305.272 194.146 305.701 193.401 305.701 192.534C305.701 191.833 305.455 191.246 304.965 190.773C304.474 190.292 303.721 189.933 302.705 189.696L299.341 188.908C297.493 188.47 296.135 187.791 295.268 186.871C294.41 185.943 293.981 184.782 293.981 183.389C293.981 182.25 294.3 181.243 294.94 180.367C295.588 179.491 296.468 178.804 297.581 178.304C298.702 177.805 299.972 177.555 301.391 177.555C303.388 177.555 304.956 177.993 306.095 178.869C307.242 179.745 308.057 180.902 308.539 182.338ZM321.773 198.42C319.951 198.42 318.353 197.987 316.977 197.12C315.611 196.252 314.542 195.039 313.771 193.48C313.009 191.921 312.628 190.099 312.628 188.014C312.628 185.912 313.009 184.077 313.771 182.509C314.542 180.941 315.611 179.723 316.977 178.856C318.353 177.989 319.951 177.555 321.773 177.555C323.595 177.555 325.189 177.989 326.556 178.856C327.931 179.723 329 180.941 329.762 182.509C330.533 184.077 330.918 185.912 330.918 188.014C330.918 190.099 330.533 191.921 329.762 193.48C329 195.039 327.931 196.252 326.556 197.12C325.189 197.987 323.595 198.42 321.773 198.42ZM321.773 195.635C323.157 195.635 324.296 195.28 325.189 194.571C326.083 193.861 326.744 192.928 327.173 191.772C327.603 190.616 327.817 189.363 327.817 188.014C327.817 186.665 327.603 185.408 327.173 184.243C326.744 183.078 326.083 182.137 325.189 181.418C324.296 180.7 323.157 180.341 321.773 180.341C320.389 180.341 319.251 180.7 318.357 181.418C317.464 182.137 316.802 183.078 316.373 184.243C315.944 185.408 315.729 186.665 315.729 188.014C315.729 189.363 315.944 190.616 316.373 191.772C316.802 192.928 317.464 193.861 318.357 194.571C319.251 195.28 320.389 195.635 321.773 195.635ZM338.752 171.091V198H335.652V171.091H338.752ZM347.533 171.091V198H344.432V171.091H347.533ZM357.785 198L351.635 177.818H354.894L359.256 193.27H359.466L363.776 177.818H367.087L371.344 193.217H371.554L375.917 177.818H379.175L373.026 198H369.978L365.563 182.496H365.248L360.833 198H357.785ZM391.05 198.42C389.105 198.42 387.428 197.991 386.017 197.133C384.616 196.266 383.534 195.057 382.772 193.506C382.019 191.947 381.642 190.134 381.642 188.067C381.642 186 382.019 184.178 382.772 182.601C383.534 181.015 384.594 179.78 385.952 178.896C387.318 178.002 388.912 177.555 390.734 177.555C391.786 177.555 392.824 177.731 393.848 178.081C394.873 178.431 395.806 179.001 396.647 179.789C397.488 180.569 398.158 181.602 398.657 182.89C399.157 184.178 399.406 185.763 399.406 187.646V188.96H383.849V186.28H396.253C396.253 185.141 396.025 184.125 395.57 183.232C395.123 182.338 394.483 181.633 393.651 181.116C392.828 180.599 391.856 180.341 390.734 180.341C389.499 180.341 388.431 180.647 387.528 181.261C386.635 181.865 385.947 182.653 385.466 183.626C384.984 184.598 384.743 185.64 384.743 186.753V188.54C384.743 190.064 385.006 191.356 385.531 192.416C386.066 193.467 386.806 194.268 387.752 194.82C388.698 195.363 389.797 195.635 391.05 195.635C391.864 195.635 392.6 195.521 393.257 195.293C393.923 195.057 394.497 194.706 394.978 194.242C395.46 193.769 395.832 193.182 396.095 192.482L399.091 193.322C398.776 194.339 398.246 195.232 397.501 196.003C396.757 196.765 395.837 197.361 394.742 197.79C393.647 198.21 392.416 198.42 391.05 198.42ZM404.123 198V177.818H407.119V180.866H407.329C407.697 179.868 408.363 179.058 409.326 178.436C410.29 177.814 411.376 177.503 412.585 177.503C412.813 177.503 413.097 177.507 413.439 177.516C413.781 177.525 414.039 177.538 414.214 177.555V180.709C414.109 180.683 413.868 180.643 413.491 180.591C413.124 180.529 412.734 180.499 412.322 180.499C411.341 180.499 410.465 180.704 409.694 181.116C408.932 181.519 408.328 182.08 407.881 182.798C407.443 183.507 407.224 184.318 407.224 185.229V198H404.123ZM427.931 177.818V180.446H417.473V177.818H427.931ZM420.521 172.983H423.622V192.219C423.622 193.095 423.749 193.752 424.003 194.19C424.266 194.619 424.598 194.908 425.001 195.057C425.413 195.197 425.847 195.267 426.302 195.267C426.644 195.267 426.924 195.25 427.143 195.214C427.362 195.171 427.537 195.136 427.669 195.109L428.299 197.895C428.089 197.974 427.796 198.053 427.419 198.131C427.042 198.219 426.565 198.263 425.987 198.263C425.111 198.263 424.252 198.074 423.412 197.698C422.579 197.321 421.887 196.747 421.336 195.977C420.792 195.206 420.521 194.233 420.521 193.06V172.983ZM439.218 186.648C439.218 189.959 438.784 193.007 437.917 195.793C437.059 198.569 435.828 201.127 434.225 203.466H431.492C432.123 202.599 432.71 201.53 433.253 200.26C433.805 198.999 434.286 197.615 434.698 196.108C435.11 194.593 435.43 193.029 435.657 191.417C435.894 189.797 436.012 188.207 436.012 186.648C436.012 184.563 435.811 182.448 435.408 180.301C435.005 178.155 434.462 176.163 433.778 174.323C433.095 172.484 432.333 170.986 431.492 169.83H434.225C435.828 172.168 437.059 174.73 437.917 177.516C438.784 180.293 439.218 183.337 439.218 186.648Z" fill="white"/>
<path d="M14.7672 483H11.3511L21.2317 456.091H24.5954L34.4761 483H31.0599L23.0187 460.348H22.8084L14.7672 483ZM16.0286 472.489H29.7985V475.379H16.0286V472.489ZM45.7593 462.818V465.446H35.3005V462.818H45.7593ZM38.3488 457.983H41.4497V477.219C41.4497 478.095 41.5767 478.752 41.8307 479.19C42.0935 479.619 42.4264 479.908 42.8293 480.057C43.241 480.197 43.6746 480.267 44.1301 480.267C44.4717 480.267 44.752 480.25 44.971 480.214C45.19 480.171 45.3652 480.136 45.4966 480.109L46.1272 482.895C45.917 482.974 45.6236 483.053 45.2469 483.131C44.8703 483.219 44.3929 483.263 43.8147 483.263C42.9388 483.263 42.0804 483.074 41.2395 482.698C40.4073 482.321 39.7153 481.747 39.1635 480.977C38.6204 480.206 38.3488 479.233 38.3488 478.06V457.983ZM58.6686 483.42C56.724 483.42 55.0466 482.991 53.6363 482.133C52.2348 481.266 51.153 480.057 50.3909 478.506C49.6376 476.947 49.2609 475.134 49.2609 473.067C49.2609 471 49.6376 469.178 50.3909 467.601C51.153 466.015 52.2129 464.78 53.5706 463.896C54.9371 463.002 56.5313 462.555 58.3533 462.555C59.4044 462.555 60.4424 462.731 61.4673 463.081C62.4921 463.431 63.425 464.001 64.2659 464.789C65.1068 465.569 65.7769 466.602 66.2762 467.89C66.7755 469.178 67.0251 470.763 67.0251 472.646V473.96H51.4683V471.28H63.8717C63.8717 470.141 63.644 469.125 63.1885 468.232C62.7418 467.338 62.1023 466.633 61.2702 466.116C60.4468 465.599 59.4745 465.341 58.3533 465.341C57.1182 465.341 56.0495 465.647 55.1473 466.261C54.2538 466.865 53.5662 467.653 53.0845 468.626C52.6027 469.598 52.3618 470.64 52.3618 471.753V473.54C52.3618 475.064 52.6246 476.356 53.1501 477.416C53.6845 478.467 54.4246 479.268 55.3707 479.82C56.3167 480.363 57.416 480.635 58.6686 480.635C59.4832 480.635 60.219 480.521 60.876 480.293C61.5417 480.057 62.1155 479.706 62.5972 479.242C63.079 478.769 63.4513 478.182 63.7141 477.482L66.7098 478.322C66.3945 479.339 65.8645 480.232 65.12 481.003C64.3754 481.765 63.4557 482.361 62.3607 482.79C61.2658 483.21 60.0351 483.42 58.6686 483.42ZM71.7421 483V462.818H74.7379V465.866H74.9481C75.316 464.868 75.9817 464.058 76.9452 463.436C77.9088 462.814 78.995 462.503 80.2038 462.503C80.4315 462.503 80.7162 462.507 81.0578 462.516C81.3994 462.525 81.6578 462.538 81.833 462.555V465.709C81.7279 465.683 81.487 465.643 81.1104 465.591C80.7425 465.529 80.3527 465.499 79.941 465.499C78.9599 465.499 78.084 465.704 77.3131 466.116C76.5511 466.519 75.9467 467.08 75.4999 467.798C75.062 468.507 74.843 469.318 74.843 470.229V483H71.7421ZM85.5087 483V462.818H88.6096V483H85.5087ZM87.0854 459.455C86.481 459.455 85.9598 459.249 85.5219 458.837C85.0926 458.425 84.878 457.93 84.878 457.352C84.878 456.774 85.0926 456.279 85.5219 455.868C85.9598 455.456 86.481 455.25 87.0854 455.25C87.6898 455.25 88.2066 455.456 88.6359 455.868C89.0738 456.279 89.2928 456.774 89.2928 457.352C89.2928 457.93 89.0738 458.425 88.6359 458.837C88.2066 459.249 87.6898 459.455 87.0854 459.455ZM102.751 483.42C100.806 483.42 99.1286 482.991 97.7183 482.133C96.3168 481.266 95.235 480.057 94.4729 478.506C93.7196 476.947 93.343 475.134 93.343 473.067C93.343 471 93.7196 469.178 94.4729 467.601C95.235 466.015 96.2949 464.78 97.6526 463.896C99.0191 463.002 100.613 462.555 102.435 462.555C103.486 462.555 104.524 462.731 105.549 463.081C106.574 463.431 107.507 464.001 108.348 464.789C109.189 465.569 109.859 466.602 110.358 467.89C110.858 469.178 111.107 470.763 111.107 472.646V473.96H95.5504V471.28H107.954C107.954 470.141 107.726 469.125 107.271 468.232C106.824 467.338 106.184 466.633 105.352 466.116C104.529 465.599 103.557 465.341 102.435 465.341C101.2 465.341 100.132 465.647 99.2293 466.261C98.3359 466.865 97.6483 467.653 97.1665 468.626C96.6847 469.598 96.4438 470.64 96.4438 471.753V473.54C96.4438 475.064 96.7066 476.356 97.2322 477.416C97.7665 478.467 98.5067 479.268 99.4527 479.82C100.399 480.363 101.498 480.635 102.751 480.635C103.565 480.635 104.301 480.521 104.958 480.293C105.624 480.057 106.197 479.706 106.679 479.242C107.161 478.769 107.533 478.182 107.796 477.482L110.792 478.322C110.476 479.339 109.947 480.232 109.202 481.003C108.457 481.765 107.538 482.361 106.443 482.79C105.348 483.21 104.117 483.42 102.751 483.42ZM118.925 470.859V483H115.824V462.818H118.82V465.972H119.083C119.556 464.947 120.274 464.123 121.238 463.501C122.201 462.871 123.445 462.555 124.969 462.555C126.336 462.555 127.531 462.836 128.556 463.396C129.581 463.948 130.378 464.789 130.947 465.919C131.517 467.04 131.801 468.459 131.801 470.176V483H128.701V470.386C128.701 468.801 128.289 467.566 127.465 466.681C126.642 465.788 125.512 465.341 124.076 465.341C123.086 465.341 122.201 465.556 121.421 465.985C120.651 466.414 120.042 467.04 119.595 467.864C119.148 468.687 118.925 469.686 118.925 470.859Z" fill="white"/>
<path d="M166.405 258.5C167.786 258.5 168.905 257.381 168.905 256C168.905 254.619 167.786 253.5 166.405 253.5L166.405 258.5ZM73.405 256L73.405 253.5L70.905 253.5L70.905 256L73.405 256ZM71.6373 437.768C72.6136 438.744 74.1965 438.744 75.1728 437.768L91.0827 421.858C92.059 420.882 92.059 419.299 91.0827 418.322C90.1064 417.346 88.5235 417.346 87.5472 418.322L73.405 432.464L59.2629 418.322C58.2866 417.346 56.7037 417.346 55.7274 418.322C54.751 419.299 54.751 420.882 55.7274 421.858L71.6373 437.768ZM166.405 253.5L73.405 253.5L73.405 258.5L166.405 258.5L166.405 253.5ZM70.905 256L70.905 436L75.905 436L75.905 256L70.905 256Z" fill="white"/>
<path d="M282.259 481V454.091H285.517V466.074H299.865V454.091H303.124V481H299.865V468.964H285.517V481H282.259ZM317.688 481.42C315.744 481.42 314.066 480.991 312.656 480.133C311.255 479.266 310.173 478.057 309.411 476.506C308.657 474.947 308.281 473.134 308.281 471.067C308.281 469 308.657 467.178 309.411 465.601C310.173 464.015 311.233 462.78 312.59 461.896C313.957 461.002 315.551 460.555 317.373 460.555C318.424 460.555 319.462 460.731 320.487 461.081C321.512 461.431 322.445 462.001 323.286 462.789C324.127 463.569 324.797 464.602 325.296 465.89C325.795 467.178 326.045 468.763 326.045 470.646V471.96H310.488V469.28H322.892C322.892 468.141 322.664 467.125 322.208 466.232C321.762 465.338 321.122 464.633 320.29 464.116C319.467 463.599 318.494 463.341 317.373 463.341C316.138 463.341 315.069 463.647 314.167 464.261C313.274 464.865 312.586 465.653 312.104 466.626C311.622 467.598 311.382 468.64 311.382 469.753V471.54C311.382 473.064 311.644 474.356 312.17 475.416C312.704 476.467 313.444 477.268 314.39 477.82C315.336 478.363 316.436 478.635 317.688 478.635C318.503 478.635 319.239 478.521 319.896 478.293C320.561 478.057 321.135 477.706 321.617 477.242C322.099 476.769 322.471 476.182 322.734 475.482L325.73 476.322C325.414 477.339 324.884 478.232 324.14 479.003C323.395 479.765 322.475 480.361 321.381 480.79C320.286 481.21 319.055 481.42 317.688 481.42ZM330.762 481V460.818H333.758V463.866H333.968C334.336 462.868 335.001 462.058 335.965 461.436C336.929 460.814 338.015 460.503 339.224 460.503C339.451 460.503 339.736 460.507 340.078 460.516C340.419 460.525 340.678 460.538 340.853 460.555V463.709C340.748 463.683 340.507 463.643 340.13 463.591C339.762 463.529 339.372 463.499 338.961 463.499C337.98 463.499 337.104 463.704 336.333 464.116C335.571 464.519 334.966 465.08 334.52 465.798C334.082 466.507 333.863 467.318 333.863 468.229V481H330.762ZM343.95 481V478.635L355.408 463.919V463.709H344.318V460.818H359.402V463.288L348.26 477.899V478.109H359.77V481H343.95ZM373.533 460.818V463.446H362.654V460.818H373.533ZM365.913 481V458.033C365.913 456.876 366.184 455.913 366.727 455.142C367.27 454.371 367.975 453.793 368.843 453.408C369.71 453.022 370.625 452.83 371.589 452.83C372.351 452.83 372.973 452.891 373.454 453.013C373.936 453.136 374.295 453.25 374.532 453.355L373.638 456.036C373.481 455.983 373.262 455.917 372.981 455.838C372.71 455.76 372.351 455.72 371.904 455.72C370.879 455.72 370.139 455.979 369.684 456.495C369.237 457.012 369.013 457.77 369.013 458.768V481H365.913ZM377.879 481V460.818H380.875V463.866H381.085C381.453 462.868 382.119 462.058 383.082 461.436C384.046 460.814 385.132 460.503 386.341 460.503C386.568 460.503 386.853 460.507 387.195 460.516C387.536 460.525 387.795 460.538 387.97 460.555V463.709C387.865 463.683 387.624 463.643 387.247 463.591C386.879 463.529 386.49 463.499 386.078 463.499C385.097 463.499 384.221 463.704 383.45 464.116C382.688 464.519 382.084 465.08 381.637 465.798C381.199 466.507 380.98 467.318 380.98 468.229V481H377.879ZM399.493 481.42C397.548 481.42 395.871 480.991 394.461 480.133C393.059 479.266 391.977 478.057 391.215 476.506C390.462 474.947 390.085 473.134 390.085 471.067C390.085 469 390.462 467.178 391.215 465.601C391.977 464.015 393.037 462.78 394.395 461.896C395.762 461.002 397.356 460.555 399.178 460.555C400.229 460.555 401.267 460.731 402.292 461.081C403.317 461.431 404.249 462.001 405.09 462.789C405.931 463.569 406.601 464.602 407.101 465.89C407.6 467.178 407.85 468.763 407.85 470.646V471.96H392.293V469.28H404.696C404.696 468.141 404.468 467.125 404.013 466.232C403.566 465.338 402.927 464.633 402.095 464.116C401.271 463.599 400.299 463.341 399.178 463.341C397.943 463.341 396.874 463.647 395.972 464.261C395.078 464.865 394.391 465.653 393.909 466.626C393.427 467.598 393.186 468.64 393.186 469.753V471.54C393.186 473.064 393.449 474.356 393.975 475.416C394.509 476.467 395.249 477.268 396.195 477.82C397.141 478.363 398.24 478.635 399.493 478.635C400.308 478.635 401.044 478.521 401.7 478.293C402.366 478.057 402.94 477.706 403.422 477.242C403.903 476.769 404.276 476.182 404.539 475.482L407.534 476.322C407.219 477.339 406.689 478.232 405.944 479.003C405.2 479.765 404.28 480.361 403.185 480.79C402.09 481.21 400.86 481.42 399.493 481.42ZM295.608 533.568V522.899H295.345C295.117 523.267 294.793 523.731 294.373 524.292C293.952 524.844 293.352 525.339 292.573 525.777C291.793 526.206 290.755 526.42 289.459 526.42C287.777 526.42 286.292 525.996 285.005 525.146C283.717 524.288 282.71 523.079 281.983 521.52C281.256 519.952 280.892 518.099 280.892 515.962C280.892 513.842 281.256 512.002 281.983 510.443C282.71 508.884 283.721 507.68 285.018 506.83C286.314 505.98 287.812 505.555 289.511 505.555C290.825 505.555 291.863 505.774 292.625 506.212C293.396 506.642 293.983 507.132 294.386 507.684C294.798 508.227 295.117 508.674 295.345 509.024H295.713V505.818H298.709V533.568H295.608ZM289.879 523.635C291.123 523.635 292.174 523.311 293.033 522.663C293.891 522.006 294.544 521.099 294.99 519.943C295.437 518.778 295.661 517.433 295.661 515.909C295.661 514.402 295.442 513.084 295.004 511.954C294.566 510.815 293.917 509.931 293.059 509.3C292.201 508.661 291.141 508.341 289.879 508.341C288.565 508.341 287.47 508.678 286.594 509.353C285.727 510.018 285.075 510.925 284.637 512.072C284.208 513.211 283.993 514.49 283.993 515.909C283.993 517.346 284.212 518.651 284.65 519.825C285.097 520.99 285.754 521.918 286.621 522.61C287.497 523.293 288.583 523.635 289.879 523.635ZM317.104 517.749V505.818H320.205V526H317.104V522.584H316.893C316.42 523.609 315.685 524.48 314.686 525.199C313.688 525.908 312.426 526.263 310.902 526.263C309.641 526.263 308.519 525.987 307.538 525.435C306.557 524.874 305.786 524.033 305.226 522.912C304.665 521.782 304.385 520.359 304.385 518.642V505.818H307.486V518.432C307.486 519.903 307.897 521.077 308.721 521.953C309.553 522.829 310.613 523.267 311.901 523.267C312.671 523.267 313.455 523.07 314.252 522.676C315.058 522.282 315.733 521.677 316.276 520.863C316.828 520.048 317.104 519.01 317.104 517.749ZM334.346 526.42C332.401 526.42 330.724 525.991 329.313 525.133C327.912 524.266 326.83 523.057 326.068 521.506C325.315 519.947 324.938 518.134 324.938 516.067C324.938 514 325.315 512.178 326.068 510.601C326.83 509.015 327.89 507.78 329.248 506.896C330.614 506.002 332.208 505.555 334.03 505.555C335.081 505.555 336.119 505.731 337.144 506.081C338.169 506.431 339.102 507.001 339.943 507.789C340.784 508.569 341.454 509.602 341.953 510.89C342.453 512.178 342.702 513.763 342.702 515.646V516.96H327.145V514.28H339.549C339.549 513.141 339.321 512.125 338.866 511.232C338.419 510.338 337.779 509.633 336.947 509.116C336.124 508.599 335.151 508.341 334.03 508.341C332.795 508.341 331.727 508.647 330.824 509.261C329.931 509.865 329.243 510.653 328.761 511.626C328.28 512.598 328.039 513.64 328.039 514.753V516.54C328.039 518.064 328.302 519.356 328.827 520.416C329.361 521.467 330.102 522.268 331.048 522.82C331.994 523.363 333.093 523.635 334.346 523.635C335.16 523.635 335.896 523.521 336.553 523.293C337.219 523.057 337.792 522.706 338.274 522.242C338.756 521.769 339.128 521.182 339.391 520.482L342.387 521.322C342.071 522.339 341.542 523.232 340.797 524.003C340.052 524.765 339.133 525.361 338.038 525.79C336.943 526.21 335.712 526.42 334.346 526.42ZM350.52 513.859V526H347.419V505.818H350.415V508.972H350.678C351.151 507.947 351.869 507.123 352.832 506.501C353.796 505.871 355.04 505.555 356.564 505.555C357.93 505.555 359.126 505.836 360.151 506.396C361.176 506.948 361.973 507.789 362.542 508.919C363.112 510.04 363.396 511.459 363.396 513.176V526H360.296V513.386C360.296 511.801 359.884 510.566 359.06 509.681C358.237 508.788 357.107 508.341 355.671 508.341C354.681 508.341 353.796 508.556 353.016 508.985C352.246 509.414 351.637 510.04 351.19 510.864C350.743 511.687 350.52 512.686 350.52 513.859ZM368.485 526V523.635L379.942 508.919V508.709H368.852V505.818H383.936V508.288L372.794 522.899V523.109H384.304V526H368.485ZM290.72 571.368C289.616 571.35 288.513 571.14 287.409 570.737C286.305 570.334 285.298 569.655 284.387 568.701C283.476 567.737 282.745 566.436 282.193 564.798C281.641 563.152 281.365 561.084 281.365 558.597C281.365 556.214 281.588 554.103 282.035 552.263C282.482 550.415 283.13 548.86 283.98 547.599C284.829 546.329 285.854 545.365 287.054 544.708C288.263 544.051 289.625 543.723 291.141 543.723C292.647 543.723 293.987 544.025 295.161 544.63C296.344 545.225 297.307 546.057 298.052 547.126C298.796 548.195 299.278 549.425 299.497 550.818H296.291C295.993 549.609 295.415 548.606 294.557 547.809C293.698 547.012 292.56 546.614 291.141 546.614C289.056 546.614 287.413 547.52 286.213 549.333C285.022 551.147 284.422 553.691 284.413 556.967H284.624C285.114 556.223 285.697 555.588 286.371 555.062C287.054 554.528 287.808 554.116 288.631 553.827C289.454 553.538 290.326 553.393 291.246 553.393C292.787 553.393 294.198 553.779 295.477 554.55C296.755 555.312 297.78 556.367 298.551 557.716C299.322 559.056 299.707 560.594 299.707 562.328C299.707 563.992 299.335 565.517 298.591 566.901C297.846 568.276 296.799 569.371 295.45 570.185C294.11 570.991 292.533 571.385 290.72 571.368ZM290.72 568.477C291.824 568.477 292.814 568.201 293.69 567.65C294.574 567.098 295.271 566.357 295.779 565.429C296.296 564.5 296.554 563.467 296.554 562.328C296.554 561.216 296.304 560.204 295.805 559.293C295.315 558.373 294.636 557.642 293.768 557.099C292.91 556.556 291.929 556.284 290.825 556.284C289.993 556.284 289.218 556.451 288.5 556.783C287.781 557.107 287.151 557.554 286.608 558.124C286.073 558.693 285.653 559.346 285.346 560.081C285.04 560.808 284.886 561.575 284.886 562.381C284.886 563.449 285.136 564.448 285.635 565.376C286.143 566.305 286.835 567.054 287.711 567.623C288.596 568.193 289.599 568.477 290.72 568.477ZM313.651 571.368C311.672 571.368 309.986 570.829 308.593 569.752C307.2 568.666 306.136 567.093 305.4 565.035C304.664 562.968 304.296 560.471 304.296 557.545C304.296 554.637 304.664 552.154 305.4 550.096C306.145 548.028 307.213 546.452 308.606 545.365C310.007 544.27 311.689 543.723 313.651 543.723C315.613 543.723 317.291 544.27 318.684 545.365C320.085 546.452 321.154 548.028 321.89 550.096C322.634 552.154 323.006 554.637 323.006 557.545C323.006 560.471 322.639 562.968 321.903 565.035C321.167 567.093 320.103 568.666 318.71 569.752C317.317 570.829 315.631 571.368 313.651 571.368ZM313.651 568.477C315.613 568.477 317.138 567.531 318.224 565.639C319.31 563.747 319.853 561.049 319.853 557.545C319.853 555.215 319.603 553.231 319.104 551.593C318.614 549.955 317.904 548.707 316.976 547.849C316.056 546.99 314.948 546.561 313.651 546.561C311.707 546.561 310.187 547.52 309.092 549.439C307.997 551.348 307.45 554.05 307.45 557.545C307.45 559.875 307.695 561.855 308.185 563.484C308.676 565.114 309.381 566.353 310.301 567.203C311.229 568.052 312.346 568.477 313.651 568.477ZM339.614 556.1V558.991H327.842V556.1H339.614ZM353.585 543.723C354.688 543.732 355.792 543.942 356.896 544.354C357.999 544.765 359.007 545.449 359.918 546.403C360.829 547.349 361.56 548.641 362.112 550.279C362.664 551.917 362.94 553.972 362.94 556.442C362.94 558.833 362.712 560.957 362.257 562.814C361.81 564.663 361.162 566.222 360.312 567.492C359.471 568.762 358.446 569.725 357.237 570.382C356.037 571.039 354.68 571.368 353.164 571.368C351.658 571.368 350.313 571.07 349.131 570.474C347.957 569.87 346.993 569.033 346.24 567.965C345.495 566.887 345.018 565.639 344.808 564.22H348.014C348.303 565.455 348.876 566.476 349.735 567.282C350.602 568.079 351.745 568.477 353.164 568.477C355.24 568.477 356.878 567.571 358.078 565.757C359.287 563.944 359.892 561.382 359.892 558.071H359.681C359.191 558.807 358.608 559.442 357.934 559.976C357.259 560.511 356.51 560.922 355.687 561.211C354.864 561.5 353.988 561.645 353.059 561.645C351.517 561.645 350.103 561.264 348.815 560.502C347.536 559.731 346.511 558.675 345.741 557.335C344.979 555.986 344.597 554.445 344.597 552.71C344.597 551.063 344.965 549.557 345.701 548.19C346.446 546.815 347.488 545.72 348.828 544.906C350.177 544.091 351.763 543.697 353.585 543.723ZM353.585 546.614C352.481 546.614 351.487 546.89 350.602 547.441C349.726 547.984 349.03 548.72 348.513 549.649C348.005 550.569 347.751 551.589 347.751 552.71C347.751 553.831 347.996 554.852 348.487 555.772C348.986 556.683 349.665 557.41 350.523 557.953C351.39 558.487 352.376 558.754 353.48 558.754C354.312 558.754 355.087 558.592 355.805 558.268C356.523 557.935 357.15 557.484 357.684 556.915C358.227 556.337 358.652 555.684 358.959 554.957C359.265 554.221 359.419 553.455 359.419 552.658C359.419 551.607 359.164 550.621 358.656 549.701C358.157 548.782 357.465 548.037 356.58 547.468C355.704 546.898 354.706 546.614 353.585 546.614ZM376.884 571.368C374.904 571.368 373.218 570.829 371.825 569.752C370.432 568.666 369.368 567.093 368.632 565.035C367.897 562.968 367.529 560.471 367.529 557.545C367.529 554.637 367.897 552.154 368.632 550.096C369.377 548.028 370.446 546.452 371.838 545.365C373.24 544.27 374.922 543.723 376.884 543.723C378.846 543.723 380.523 544.27 381.916 545.365C383.318 546.452 384.386 548.028 385.122 550.096C385.867 552.154 386.239 554.637 386.239 557.545C386.239 560.471 385.871 562.968 385.135 565.035C384.399 567.093 383.335 568.666 381.942 569.752C380.55 570.829 378.863 571.368 376.884 571.368ZM376.884 568.477C378.846 568.477 380.37 567.531 381.456 565.639C382.542 563.747 383.085 561.049 383.085 557.545C383.085 555.215 382.836 553.231 382.337 551.593C381.846 549.955 381.137 548.707 380.208 547.849C379.288 546.99 378.18 546.561 376.884 546.561C374.939 546.561 373.419 547.52 372.324 549.439C371.23 551.348 370.682 554.05 370.682 557.545C370.682 559.875 370.927 561.855 371.418 563.484C371.908 565.114 372.614 566.353 373.533 567.203C374.462 568.052 375.579 568.477 376.884 568.477Z" fill="white"/>
<path d="M147.356 469.5C145.976 469.528 144.878 470.669 144.906 472.049C144.933 473.429 146.074 474.527 147.454 474.5L147.356 469.5ZM251.207 471.733C252.164 470.738 252.133 469.155 251.138 468.198L234.919 452.603C233.924 451.646 232.341 451.677 231.384 452.672C230.427 453.668 230.458 455.25 231.454 456.207L245.87 470.069L232.008 484.486C231.051 485.481 231.082 487.064 232.077 488.021C233.073 488.978 234.655 488.947 235.612 487.952L251.207 471.733ZM147.454 474.5L249.454 472.5L249.356 467.5L147.356 469.5L147.454 474.5Z" fill="white"/>
<path d="M307.767 370H304.351L314.232 343.091H317.595L327.476 370H324.06L316.019 347.348H315.808L307.767 370ZM309.029 359.489H322.798V362.379H309.029V359.489ZM339.446 370.42C337.624 370.42 336.025 369.987 334.65 369.12C333.284 368.252 332.215 367.039 331.444 365.48C330.682 363.921 330.301 362.099 330.301 360.014C330.301 357.912 330.682 356.077 331.444 354.509C332.215 352.941 333.284 351.723 334.65 350.856C336.025 349.989 337.624 349.555 339.446 349.555C341.268 349.555 342.862 349.989 344.229 350.856C345.604 351.723 346.672 352.941 347.435 354.509C348.205 356.077 348.591 357.912 348.591 360.014C348.591 362.099 348.205 363.921 347.435 365.48C346.672 367.039 345.604 368.252 344.229 369.12C342.862 369.987 341.268 370.42 339.446 370.42ZM339.446 367.635C340.83 367.635 341.969 367.28 342.862 366.571C343.756 365.861 344.417 364.928 344.846 363.772C345.275 362.616 345.49 361.363 345.49 360.014C345.49 358.665 345.275 357.408 344.846 356.243C344.417 355.078 343.756 354.137 342.862 353.418C341.969 352.7 340.83 352.341 339.446 352.341C338.062 352.341 336.923 352.7 336.03 353.418C335.136 354.137 334.475 355.078 334.046 356.243C333.616 357.408 333.402 358.665 333.402 360.014C333.402 361.363 333.616 362.616 334.046 363.772C334.475 364.928 335.136 365.861 336.03 366.571C336.923 367.28 338.062 367.635 339.446 367.635ZM353.324 370V349.818H356.32V352.866H356.53C356.898 351.868 357.564 351.058 358.527 350.436C359.491 349.814 360.577 349.503 361.786 349.503C362.014 349.503 362.298 349.507 362.64 349.516C362.981 349.525 363.24 349.538 363.415 349.555V352.709C363.31 352.683 363.069 352.643 362.692 352.591C362.325 352.529 361.935 352.499 361.523 352.499C360.542 352.499 359.666 352.704 358.895 353.116C358.133 353.519 357.529 354.08 357.082 354.798C356.644 355.507 356.425 356.318 356.425 357.229V370H353.324ZM377.132 349.818V352.446H366.674V349.818H377.132ZM369.722 344.983H372.823V364.219C372.823 365.095 372.95 365.752 373.204 366.19C373.467 366.619 373.799 366.908 374.202 367.057C374.614 367.197 375.048 367.267 375.503 367.267C375.845 367.267 376.125 367.25 376.344 367.214C376.563 367.171 376.738 367.136 376.87 367.109L377.5 369.895C377.29 369.974 376.997 370.053 376.62 370.131C376.243 370.219 375.766 370.263 375.188 370.263C374.312 370.263 373.453 370.074 372.613 369.698C371.78 369.321 371.088 368.747 370.537 367.977C369.993 367.206 369.722 366.233 369.722 365.06V344.983ZM387.736 370.473C386.457 370.473 385.296 370.232 384.254 369.75C383.211 369.26 382.384 368.555 381.771 367.635C381.157 366.706 380.851 365.585 380.851 364.271C380.851 363.115 381.079 362.178 381.534 361.46C381.99 360.732 382.598 360.163 383.36 359.751C384.122 359.34 384.963 359.033 385.883 358.832C386.812 358.621 387.744 358.455 388.682 358.332C389.908 358.175 390.902 358.056 391.664 357.978C392.435 357.89 392.996 357.746 393.346 357.544C393.705 357.343 393.885 356.992 393.885 356.493V356.388C393.885 355.091 393.53 354.084 392.821 353.366C392.12 352.647 391.056 352.288 389.628 352.288C388.147 352.288 386.987 352.612 386.146 353.261C385.305 353.909 384.714 354.601 384.372 355.337L381.429 354.286C381.954 353.059 382.655 352.104 383.531 351.421C384.416 350.729 385.379 350.247 386.422 349.976C387.473 349.696 388.507 349.555 389.523 349.555C390.171 349.555 390.915 349.634 391.756 349.792C392.606 349.941 393.425 350.252 394.213 350.725C395.01 351.198 395.672 351.912 396.197 352.866C396.723 353.821 396.986 355.1 396.986 356.703V370H393.885V367.267H393.727C393.517 367.705 393.167 368.174 392.676 368.673C392.186 369.172 391.533 369.597 390.718 369.947C389.904 370.298 388.909 370.473 387.736 370.473ZM388.209 367.688C389.435 367.688 390.469 367.447 391.31 366.965C392.159 366.483 392.799 365.861 393.228 365.099C393.666 364.337 393.885 363.536 393.885 362.695V359.857C393.753 360.014 393.464 360.159 393.018 360.29C392.58 360.413 392.072 360.522 391.494 360.619C390.924 360.706 390.368 360.785 389.825 360.855C389.291 360.916 388.857 360.969 388.524 361.013C387.718 361.118 386.965 361.289 386.264 361.525C385.572 361.753 385.012 362.099 384.582 362.563C384.162 363.019 383.952 363.641 383.952 364.429C383.952 365.506 384.35 366.321 385.147 366.873C385.953 367.416 386.974 367.688 388.209 367.688Z" fill="white"/>
<path d="M346.905 378.955C346.88 377.574 345.74 376.475 344.36 376.5C342.979 376.526 341.88 377.665 341.905 379.045L346.905 378.955ZM343.67 435.8C344.664 436.758 346.246 436.729 347.205 435.735L362.823 419.539C363.781 418.545 363.752 416.962 362.758 416.004C361.765 415.045 360.182 415.074 359.223 416.068L345.341 430.465L330.944 416.582C329.95 415.624 328.367 415.653 327.409 416.647C326.451 417.641 326.479 419.223 327.473 420.182L343.67 435.8ZM341.905 379.045L342.905 434.045L347.905 433.955L346.905 378.955L341.905 379.045Z" fill="white"/>
<path d="M310.637 254.232C309.661 255.209 309.661 256.791 310.637 257.768L326.547 273.678C327.523 274.654 329.106 274.654 330.083 273.678C331.059 272.701 331.059 271.118 330.083 270.142L315.941 256L330.083 241.858C331.059 240.882 331.059 239.299 330.083 238.322C329.106 237.346 327.523 237.346 326.547 238.322L310.637 254.232ZM346.905 256L349.405 256L349.405 253.5L346.905 253.5L346.905 256ZM344.405 336C344.405 337.381 345.524 338.5 346.905 338.5C348.286 338.5 349.405 337.381 349.405 336L344.405 336ZM312.405 258.5L346.905 258.5L346.905 253.5L312.405 253.5L312.405 258.5ZM344.405 256L344.405 336L349.405 336L349.405 256L344.405 256Z" fill="white"/>
<path d="M374.777 269.473C373.498 269.473 372.337 269.232 371.295 268.75C370.253 268.26 369.425 267.555 368.812 266.635C368.199 265.706 367.892 264.585 367.892 263.271C367.892 262.115 368.12 261.178 368.575 260.46C369.031 259.732 369.64 259.163 370.402 258.751C371.164 258.34 372.005 258.033 372.924 257.832C373.853 257.621 374.786 257.455 375.723 257.332C376.949 257.175 377.944 257.056 378.706 256.978C379.476 256.89 380.037 256.746 380.387 256.544C380.747 256.343 380.926 255.992 380.926 255.493V255.388C380.926 254.091 380.571 253.084 379.862 252.366C379.161 251.647 378.097 251.288 376.669 251.288C375.189 251.288 374.028 251.612 373.187 252.261C372.346 252.909 371.755 253.601 371.413 254.337L368.47 253.286C368.996 252.059 369.696 251.104 370.572 250.421C371.457 249.729 372.421 249.247 373.463 248.976C374.514 248.696 375.548 248.555 376.564 248.555C377.212 248.555 377.957 248.634 378.798 248.792C379.647 248.941 380.466 249.252 381.255 249.725C382.052 250.198 382.713 250.912 383.239 251.866C383.764 252.821 384.027 254.1 384.027 255.703V269H380.926V266.267H380.768C380.558 266.705 380.208 267.174 379.717 267.673C379.227 268.172 378.574 268.597 377.76 268.947C376.945 269.298 375.951 269.473 374.777 269.473ZM375.25 266.688C376.476 266.688 377.51 266.447 378.351 265.965C379.201 265.483 379.84 264.861 380.269 264.099C380.707 263.337 380.926 262.536 380.926 261.695V258.857C380.795 259.014 380.506 259.159 380.059 259.29C379.621 259.413 379.113 259.522 378.535 259.619C377.965 259.706 377.409 259.785 376.866 259.855C376.332 259.916 375.898 259.969 375.565 260.013C374.759 260.118 374.006 260.289 373.305 260.525C372.613 260.753 372.053 261.099 371.624 261.563C371.203 262.019 370.993 262.641 370.993 263.429C370.993 264.506 371.391 265.321 372.189 265.873C372.994 266.416 374.015 266.688 375.25 266.688ZM392.577 261.642L392.525 257.805H393.155L401.985 248.818H405.822L396.414 258.331H396.151L392.577 261.642ZM389.687 269V242.091H392.788V269H389.687ZM402.511 269L394.627 259.014L396.834 256.859L406.452 269H402.511ZM418.59 248.818V251.446H408.131V248.818H418.59ZM411.179 243.983H414.28V263.219C414.28 264.095 414.407 264.752 414.661 265.19C414.924 265.619 415.257 265.908 415.66 266.057C416.071 266.197 416.505 266.267 416.96 266.267C417.302 266.267 417.582 266.25 417.801 266.214C418.02 266.171 418.195 266.136 418.327 266.109L418.958 268.895C418.747 268.974 418.454 269.053 418.077 269.131C417.701 269.219 417.223 269.263 416.645 269.263C415.769 269.263 414.911 269.074 414.07 268.698C413.238 268.321 412.546 267.747 411.994 266.977C411.451 266.206 411.179 265.233 411.179 264.06V243.983ZM435.973 260.749V248.818H439.074V269H435.973V265.584H435.763C435.29 266.609 434.554 267.48 433.555 268.199C432.557 268.908 431.295 269.263 429.771 269.263C428.51 269.263 427.389 268.987 426.407 268.435C425.426 267.874 424.656 267.033 424.095 265.912C423.534 264.782 423.254 263.359 423.254 261.642V248.818H426.355V261.432C426.355 262.903 426.767 264.077 427.59 264.953C428.422 265.829 429.482 266.267 430.77 266.267C431.541 266.267 432.325 266.07 433.122 265.676C433.927 265.282 434.602 264.677 435.145 263.863C435.697 263.048 435.973 262.01 435.973 260.749ZM453.215 269.42C451.27 269.42 449.593 268.991 448.182 268.133C446.781 267.266 445.699 266.057 444.937 264.506C444.184 262.947 443.807 261.134 443.807 259.067C443.807 257 444.184 255.178 444.937 253.601C445.699 252.015 446.759 250.78 448.117 249.896C449.483 249.002 451.077 248.555 452.899 248.555C453.951 248.555 454.989 248.731 456.013 249.081C457.038 249.431 457.971 250.001 458.812 250.789C459.653 251.569 460.323 252.602 460.822 253.89C461.322 255.178 461.571 256.763 461.571 258.646V259.96H446.014V257.28H458.418C458.418 256.141 458.19 255.125 457.735 254.232C457.288 253.338 456.648 252.633 455.816 252.116C454.993 251.599 454.021 251.341 452.899 251.341C451.664 251.341 450.596 251.647 449.693 252.261C448.8 252.865 448.112 253.653 447.631 254.626C447.149 255.598 446.908 256.64 446.908 257.753V259.54C446.908 261.064 447.171 262.356 447.696 263.416C448.231 264.467 448.971 265.268 449.917 265.82C450.863 266.363 451.962 266.635 453.215 266.635C454.029 266.635 454.765 266.521 455.422 266.293C456.088 266.057 456.662 265.706 457.143 265.242C457.625 264.769 457.997 264.182 458.26 263.482L461.256 264.322C460.941 265.339 460.411 266.232 459.666 267.003C458.922 267.765 458.002 268.361 456.907 268.79C455.812 269.21 454.581 269.42 453.215 269.42ZM469.389 242.091V269H466.288V242.091H469.389ZM478.169 242.091V269H475.069V242.091H478.169ZM492.31 269.42C490.366 269.42 488.688 268.991 487.278 268.133C485.877 267.266 484.795 266.057 484.033 264.506C483.279 262.947 482.903 261.134 482.903 259.067C482.903 257 483.279 255.178 484.033 253.601C484.795 252.015 485.855 250.78 487.212 249.896C488.579 249.002 490.173 248.555 491.995 248.555C493.046 248.555 494.084 248.731 495.109 249.081C496.134 249.431 497.067 250.001 497.908 250.789C498.749 251.569 499.419 252.602 499.918 253.89C500.417 255.178 500.667 256.763 500.667 258.646V259.96H485.11V257.28H497.514C497.514 256.141 497.286 255.125 496.83 254.232C496.384 253.338 495.744 252.633 494.912 252.116C494.089 251.599 493.116 251.341 491.995 251.341C490.76 251.341 489.691 251.647 488.789 252.261C487.896 252.865 487.208 253.653 486.726 254.626C486.245 255.598 486.004 256.64 486.004 257.753V259.54C486.004 261.064 486.266 262.356 486.792 263.416C487.326 264.467 488.066 265.268 489.013 265.82C489.959 266.363 491.058 266.635 492.31 266.635C493.125 266.635 493.861 266.521 494.518 266.293C495.184 266.057 495.757 265.706 496.239 265.242C496.721 264.769 497.093 264.182 497.356 263.482L500.352 264.322C500.036 265.339 499.506 266.232 498.762 267.003C498.017 267.765 497.098 268.361 496.003 268.79C494.908 269.21 493.677 269.42 492.31 269.42ZM516.211 269V242.091H532.346V244.982H519.469V254.074H531.137V256.964H519.469V269H516.211ZM537.289 269V248.818H540.285V251.866H540.495C540.863 250.868 541.529 250.058 542.492 249.436C543.456 248.814 544.542 248.503 545.751 248.503C545.979 248.503 546.263 248.507 546.605 248.516C546.947 248.525 547.205 248.538 547.38 248.555V251.709C547.275 251.683 547.034 251.643 546.657 251.591C546.29 251.529 545.9 251.499 545.488 251.499C544.507 251.499 543.631 251.704 542.86 252.116C542.098 252.519 541.494 253.08 541.047 253.798C540.609 254.507 540.39 255.318 540.39 256.229V269H537.289ZM558.903 269.42C556.959 269.42 555.281 268.991 553.871 268.133C552.469 267.266 551.388 266.057 550.626 264.506C549.872 262.947 549.496 261.134 549.496 259.067C549.496 257 549.872 255.178 550.626 253.601C551.388 252.015 552.448 250.78 553.805 249.896C555.172 249.002 556.766 248.555 558.588 248.555C559.639 248.555 560.677 248.731 561.702 249.081C562.727 249.431 563.66 250.001 564.501 250.789C565.341 251.569 566.012 252.602 566.511 253.89C567.01 255.178 567.26 256.763 567.26 258.646V259.96H551.703V257.28H564.106C564.106 256.141 563.879 255.125 563.423 254.232C562.976 253.338 562.337 252.633 561.505 252.116C560.681 251.599 559.709 251.341 558.588 251.341C557.353 251.341 556.284 251.647 555.382 252.261C554.488 252.865 553.801 253.653 553.319 254.626C552.837 255.598 552.596 256.64 552.596 257.753V259.54C552.596 261.064 552.859 262.356 553.385 263.416C553.919 264.467 554.659 265.268 555.605 265.82C556.551 266.363 557.651 266.635 558.903 266.635C559.718 266.635 560.454 266.521 561.111 266.293C561.776 266.057 562.35 265.706 562.832 265.242C563.314 264.769 563.686 264.182 563.949 263.482L566.944 264.322C566.629 265.339 566.099 266.232 565.355 267.003C564.61 267.765 563.69 268.361 562.595 268.79C561.5 269.21 560.27 269.42 558.903 269.42ZM585.747 276.568V265.899H585.484C585.256 266.267 584.932 266.731 584.512 267.292C584.091 267.844 583.491 268.339 582.711 268.777C581.932 269.206 580.894 269.42 579.597 269.42C577.916 269.42 576.431 268.996 575.143 268.146C573.856 267.288 572.848 266.079 572.121 264.52C571.394 262.952 571.031 261.099 571.031 258.962C571.031 256.842 571.394 255.002 572.121 253.443C572.848 251.884 573.86 250.68 575.156 249.83C576.453 248.98 577.951 248.555 579.65 248.555C580.964 248.555 582.002 248.774 582.764 249.212C583.535 249.642 584.122 250.132 584.525 250.684C584.936 251.227 585.256 251.674 585.484 252.024H585.852V248.818H588.847V276.568H585.747ZM580.018 266.635C581.262 266.635 582.313 266.311 583.171 265.663C584.03 265.006 584.682 264.099 585.129 262.943C585.576 261.778 585.799 260.433 585.799 258.909C585.799 257.402 585.58 256.084 585.142 254.954C584.704 253.815 584.056 252.931 583.198 252.3C582.339 251.661 581.279 251.341 580.018 251.341C578.704 251.341 577.609 251.678 576.733 252.353C575.866 253.018 575.213 253.925 574.775 255.072C574.346 256.211 574.132 257.49 574.132 258.909C574.132 260.346 574.351 261.651 574.789 262.825C575.235 263.99 575.892 264.918 576.759 265.61C577.635 266.293 578.722 266.635 580.018 266.635ZM607.242 260.749V248.818H610.343V269H607.242V265.584H607.032C606.559 266.609 605.823 267.48 604.825 268.199C603.826 268.908 602.565 269.263 601.041 269.263C599.779 269.263 598.658 268.987 597.677 268.435C596.696 267.874 595.925 267.033 595.365 265.912C594.804 264.782 594.524 263.359 594.524 261.642V248.818H597.624V261.432C597.624 262.903 598.036 264.077 598.86 264.953C599.692 265.829 600.752 266.267 602.039 266.267C602.81 266.267 603.594 266.07 604.391 265.676C605.197 265.282 605.872 264.677 606.415 263.863C606.966 263.048 607.242 262.01 607.242 260.749ZM624.484 269.42C622.54 269.42 620.862 268.991 619.452 268.133C618.05 267.266 616.969 266.057 616.207 264.506C615.453 262.947 615.077 261.134 615.077 259.067C615.077 257 615.453 255.178 616.207 253.601C616.969 252.015 618.029 250.78 619.386 249.896C620.753 249.002 622.347 248.555 624.169 248.555C625.22 248.555 626.258 248.731 627.283 249.081C628.308 249.431 629.241 250.001 630.082 250.789C630.922 251.569 631.593 252.602 632.092 253.89C632.591 255.178 632.841 256.763 632.841 258.646V259.96H617.284V257.28H629.687C629.687 256.141 629.46 255.125 629.004 254.232C628.557 253.338 627.918 252.633 627.086 252.116C626.262 251.599 625.29 251.341 624.169 251.341C622.934 251.341 621.865 251.647 620.963 252.261C620.07 252.865 619.382 253.653 618.9 254.626C618.418 255.598 618.177 256.64 618.177 257.753V259.54C618.177 261.064 618.44 262.356 618.966 263.416C619.5 264.467 620.24 265.268 621.186 265.82C622.132 266.363 623.232 266.635 624.484 266.635C625.299 266.635 626.035 266.521 626.692 266.293C627.357 266.057 627.931 265.706 628.413 265.242C628.895 264.769 629.267 264.182 629.53 263.482L632.525 264.322C632.21 265.339 631.68 266.232 630.936 267.003C630.191 267.765 629.271 268.361 628.176 268.79C627.081 269.21 625.851 269.42 624.484 269.42ZM640.659 256.859V269H637.558V248.818H640.554V251.972H640.816C641.289 250.947 642.008 250.123 642.971 249.501C643.935 248.871 645.179 248.555 646.703 248.555C648.069 248.555 649.265 248.836 650.29 249.396C651.315 249.948 652.112 250.789 652.681 251.919C653.25 253.04 653.535 254.459 653.535 256.176V269H650.434V256.386C650.434 254.801 650.023 253.566 649.199 252.681C648.376 251.788 647.246 251.341 645.809 251.341C644.819 251.341 643.935 251.556 643.155 251.985C642.384 252.414 641.775 253.04 641.329 253.864C640.882 254.687 640.659 255.686 640.659 256.859ZM658.623 269V266.635L670.081 251.919V251.709H658.991V248.818H674.075V251.288L662.933 265.899V266.109H674.443V269H658.623ZM369.942 302.648C369.942 299.337 370.371 296.293 371.229 293.516C372.097 290.73 373.332 288.168 374.935 285.83H377.668C377.037 286.697 376.446 287.765 375.894 289.036C375.351 290.297 374.873 291.685 374.462 293.201C374.05 294.707 373.726 296.266 373.489 297.878C373.262 299.49 373.148 301.08 373.148 302.648C373.148 304.732 373.349 306.848 373.752 308.994C374.155 311.14 374.698 313.133 375.381 314.972C376.065 316.812 376.827 318.31 377.668 319.466H374.935C373.332 317.127 372.097 314.569 371.229 311.793C370.371 309.007 369.942 305.959 369.942 302.648ZM382.243 314V293.818H385.344V314H382.243ZM383.82 290.455C383.216 290.455 382.694 290.249 382.256 289.837C381.827 289.425 381.613 288.93 381.613 288.352C381.613 287.774 381.827 287.279 382.256 286.868C382.694 286.456 383.216 286.25 383.82 286.25C384.424 286.25 384.941 286.456 385.37 286.868C385.808 287.279 386.027 287.774 386.027 288.352C386.027 288.93 385.808 289.425 385.37 289.837C384.941 290.249 384.424 290.455 383.82 290.455ZM405.319 298.338L402.534 299.126C402.358 298.662 402.1 298.211 401.758 297.773C401.425 297.326 400.97 296.958 400.392 296.669C399.814 296.38 399.074 296.236 398.171 296.236C396.936 296.236 395.907 296.52 395.084 297.09C394.269 297.65 393.862 298.364 393.862 299.232C393.862 300.002 394.142 300.611 394.703 301.058C395.263 301.505 396.139 301.877 397.33 302.175L400.326 302.911C402.131 303.348 403.475 304.019 404.36 304.921C405.245 305.814 405.687 306.966 405.687 308.376C405.687 309.533 405.354 310.566 404.688 311.477C404.031 312.388 403.112 313.107 401.929 313.632C400.747 314.158 399.371 314.42 397.803 314.42C395.745 314.42 394.041 313.974 392.692 313.08C391.343 312.187 390.489 310.882 390.13 309.165L393.073 308.429C393.354 309.515 393.884 310.33 394.663 310.873C395.452 311.416 396.481 311.688 397.751 311.688C399.196 311.688 400.344 311.381 401.193 310.768C402.052 310.146 402.481 309.401 402.481 308.534C402.481 307.833 402.236 307.246 401.745 306.773C401.255 306.292 400.501 305.933 399.485 305.696L396.122 304.908C394.273 304.47 392.916 303.791 392.048 302.871C391.19 301.943 390.761 300.782 390.761 299.389C390.761 298.25 391.081 297.243 391.72 296.367C392.368 295.491 393.249 294.804 394.361 294.304C395.482 293.805 396.752 293.555 398.171 293.555C400.169 293.555 401.736 293.993 402.875 294.869C404.023 295.745 404.837 296.902 405.319 298.338ZM419.132 293.818V296.446H408.673V293.818H419.132ZM411.721 288.983H414.822V308.219C414.822 309.095 414.949 309.752 415.203 310.19C415.466 310.619 415.799 310.908 416.202 311.057C416.613 311.197 417.047 311.267 417.502 311.267C417.844 311.267 418.124 311.25 418.343 311.214C418.562 311.171 418.737 311.136 418.869 311.109L419.5 313.895C419.289 313.974 418.996 314.053 418.619 314.131C418.243 314.219 417.765 314.263 417.187 314.263C416.311 314.263 415.453 314.074 414.612 313.698C413.78 313.321 413.088 312.747 412.536 311.977C411.993 311.206 411.721 310.233 411.721 309.06V288.983ZM428.369 314L422.219 293.818H425.478L429.84 309.27H430.05L434.36 293.818H437.671L441.928 309.217H442.138L446.501 293.818H449.759L443.61 314H440.562L436.147 298.496H435.832L431.417 314H428.369ZM461.634 314.42C459.689 314.42 458.012 313.991 456.601 313.133C455.2 312.266 454.118 311.057 453.356 309.506C452.603 307.947 452.226 306.134 452.226 304.067C452.226 302 452.603 300.178 453.356 298.601C454.118 297.015 455.178 295.78 456.536 294.896C457.902 294.002 459.496 293.555 461.318 293.555C462.369 293.555 463.407 293.731 464.432 294.081C465.457 294.431 466.39 295.001 467.231 295.789C468.072 296.569 468.742 297.602 469.241 298.89C469.741 300.178 469.99 301.763 469.99 303.646V304.96H454.433V302.28H466.837C466.837 301.141 466.609 300.125 466.154 299.232C465.707 298.338 465.067 297.633 464.235 297.116C463.412 296.599 462.44 296.341 461.318 296.341C460.083 296.341 459.015 296.647 458.112 297.261C457.219 297.865 456.531 298.653 456.05 299.626C455.568 300.598 455.327 301.64 455.327 302.753V304.54C455.327 306.064 455.59 307.356 456.115 308.416C456.65 309.467 457.39 310.268 458.336 310.82C459.282 311.363 460.381 311.635 461.634 311.635C462.448 311.635 463.184 311.521 463.841 311.293C464.507 311.057 465.081 310.706 465.562 310.242C466.044 309.769 466.416 309.182 466.679 308.482L469.675 309.322C469.36 310.339 468.83 311.232 468.085 312.003C467.34 312.765 466.421 313.361 465.326 313.79C464.231 314.21 463 314.42 461.634 314.42ZM474.707 314V293.818H477.703V296.866H477.913C478.281 295.868 478.947 295.058 479.91 294.436C480.874 293.814 481.96 293.503 483.169 293.503C483.397 293.503 483.681 293.507 484.023 293.516C484.365 293.525 484.623 293.538 484.798 293.555V296.709C484.693 296.683 484.452 296.643 484.075 296.591C483.708 296.529 483.318 296.499 482.906 296.499C481.925 296.499 481.049 296.704 480.278 297.116C479.516 297.519 478.912 298.08 478.465 298.798C478.027 299.507 477.808 300.318 477.808 301.229V314H474.707ZM498.515 293.818V296.446H488.057V293.818H498.515ZM491.105 288.983H494.206V308.219C494.206 309.095 494.333 309.752 494.587 310.19C494.85 310.619 495.182 310.908 495.585 311.057C495.997 311.197 496.431 311.267 496.886 311.267C497.228 311.267 497.508 311.25 497.727 311.214C497.946 311.171 498.121 311.136 498.253 311.109L498.883 313.895C498.673 313.974 498.38 314.053 498.003 314.131C497.626 314.219 497.149 314.263 496.571 314.263C495.695 314.263 494.836 314.074 493.996 313.698C493.163 313.321 492.471 312.747 491.92 311.977C491.376 311.206 491.105 310.233 491.105 309.06V288.983ZM509.802 302.648C509.802 305.959 509.368 309.007 508.501 311.793C507.643 314.569 506.412 317.127 504.809 319.466H502.076C502.707 318.599 503.294 317.53 503.837 316.26C504.389 314.999 504.87 313.615 505.282 312.108C505.694 310.593 506.014 309.029 506.241 307.417C506.478 305.797 506.596 304.207 506.596 302.648C506.596 300.563 506.395 298.448 505.992 296.301C505.589 294.155 505.046 292.163 504.362 290.323C503.679 288.484 502.917 286.986 502.076 285.83H504.809C506.412 288.168 507.643 290.73 508.501 293.516C509.368 296.293 509.802 299.337 509.802 302.648Z" fill="white"/>
<path d="M540.259 470V443.091H556.393V445.982H543.517V455.074H555.185V457.964H543.517V470H540.259ZM567.493 470.473C566.214 470.473 565.053 470.232 564.011 469.75C562.969 469.26 562.141 468.555 561.528 467.635C560.914 466.706 560.608 465.585 560.608 464.271C560.608 463.115 560.836 462.178 561.291 461.46C561.747 460.732 562.355 460.163 563.117 459.751C563.88 459.34 564.72 459.033 565.64 458.832C566.569 458.621 567.502 458.455 568.439 458.332C569.665 458.175 570.659 458.056 571.421 457.978C572.192 457.89 572.753 457.746 573.103 457.544C573.462 457.343 573.642 456.992 573.642 456.493V456.388C573.642 455.091 573.287 454.084 572.578 453.366C571.877 452.647 570.813 452.288 569.385 452.288C567.905 452.288 566.744 452.612 565.903 453.261C565.062 453.909 564.471 454.601 564.129 455.337L561.186 454.286C561.712 453.059 562.412 452.104 563.288 451.421C564.173 450.729 565.137 450.247 566.179 449.976C567.23 449.696 568.264 449.555 569.28 449.555C569.928 449.555 570.672 449.634 571.513 449.792C572.363 449.941 573.182 450.252 573.97 450.725C574.768 451.198 575.429 451.912 575.954 452.866C576.48 453.821 576.743 455.1 576.743 456.703V470H573.642V467.267H573.484C573.274 467.705 572.924 468.174 572.433 468.673C571.943 469.172 571.29 469.597 570.475 469.947C569.661 470.298 568.667 470.473 567.493 470.473ZM567.966 467.688C569.192 467.688 570.226 467.447 571.067 466.965C571.916 466.483 572.556 465.861 572.985 465.099C573.423 464.337 573.642 463.536 573.642 462.695V459.857C573.511 460.014 573.222 460.159 572.775 460.29C572.337 460.413 571.829 460.522 571.251 460.619C570.681 460.706 570.125 460.785 569.582 460.855C569.048 460.916 568.614 460.969 568.281 461.013C567.475 461.118 566.722 461.289 566.021 461.525C565.329 461.753 564.769 462.099 564.339 462.563C563.919 463.019 563.709 463.641 563.709 464.429C563.709 465.506 564.107 466.321 564.904 466.873C565.71 467.416 566.731 467.688 567.966 467.688ZM585.293 462.642L585.241 458.805H585.871L594.701 449.818H598.537L589.13 459.331H588.867L585.293 462.642ZM582.403 470V443.091H585.503V470H582.403ZM595.226 470L587.343 460.014L589.55 457.859L599.168 470H595.226ZM611.305 449.818V452.446H600.847V449.818H611.305ZM603.895 444.983H606.996V464.219C606.996 465.095 607.123 465.752 607.377 466.19C607.64 466.619 607.973 466.908 608.375 467.057C608.787 467.197 609.221 467.267 609.676 467.267C610.018 467.267 610.298 467.25 610.517 467.214C610.736 467.171 610.911 467.136 611.043 467.109L611.673 469.895C611.463 469.974 611.17 470.053 610.793 470.131C610.416 470.219 609.939 470.263 609.361 470.263C608.485 470.263 607.627 470.074 606.786 469.698C605.953 469.321 605.261 468.747 604.71 467.977C604.167 467.206 603.895 466.233 603.895 465.06V444.983ZM623.952 470.42C622.13 470.42 620.531 469.987 619.156 469.12C617.79 468.252 616.721 467.039 615.95 465.48C615.188 463.921 614.807 462.099 614.807 460.014C614.807 457.912 615.188 456.077 615.95 454.509C616.721 452.941 617.79 451.723 619.156 450.856C620.531 449.989 622.13 449.555 623.952 449.555C625.774 449.555 627.368 449.989 628.735 450.856C630.11 451.723 631.179 452.941 631.941 454.509C632.711 456.077 633.097 457.912 633.097 460.014C633.097 462.099 632.711 463.921 631.941 465.48C631.179 467.039 630.11 468.252 628.735 469.12C627.368 469.987 625.774 470.42 623.952 470.42ZM623.952 467.635C625.336 467.635 626.475 467.28 627.368 466.571C628.262 465.861 628.923 464.928 629.352 463.772C629.781 462.616 629.996 461.363 629.996 460.014C629.996 458.665 629.781 457.408 629.352 456.243C628.923 455.078 628.262 454.137 627.368 453.418C626.475 452.7 625.336 452.341 623.952 452.341C622.568 452.341 621.429 452.7 620.536 453.418C619.642 454.137 618.981 455.078 618.552 456.243C618.123 457.408 617.908 458.665 617.908 460.014C617.908 461.363 618.123 462.616 618.552 463.772C618.981 464.928 619.642 465.861 620.536 466.571C621.429 467.28 622.568 467.635 623.952 467.635ZM637.83 470V449.818H640.826V452.866H641.036C641.404 451.868 642.07 451.058 643.033 450.436C643.997 449.814 645.083 449.503 646.292 449.503C646.52 449.503 646.804 449.507 647.146 449.516C647.488 449.525 647.746 449.538 647.921 449.555V452.709C647.816 452.683 647.575 452.643 647.199 452.591C646.831 452.529 646.441 452.499 646.029 452.499C645.048 452.499 644.172 452.704 643.401 453.116C642.639 453.519 642.035 454.08 641.588 454.798C641.15 455.507 640.931 456.318 640.931 457.229V470H637.83ZM653.909 466.321L653.699 467.74C653.55 468.739 653.322 469.807 653.016 470.946C652.718 472.085 652.407 473.158 652.083 474.165C651.759 475.172 651.492 475.974 651.282 476.57H648.916C649.03 476.009 649.179 475.269 649.363 474.349C649.547 473.429 649.731 472.4 649.915 471.261C650.108 470.131 650.265 468.975 650.388 467.793L650.546 466.321H653.909ZM540.259 515V488.091H543.359V498.024H543.622C543.85 497.674 544.165 497.227 544.568 496.684C544.98 496.132 545.567 495.642 546.329 495.212C547.1 494.774 548.142 494.555 549.456 494.555C551.155 494.555 552.653 494.98 553.95 495.83C555.246 496.68 556.258 497.884 556.985 499.443C557.712 501.002 558.075 502.842 558.075 504.962C558.075 507.099 557.712 508.952 556.985 510.52C556.258 512.079 555.25 513.288 553.963 514.146C552.675 514.996 551.19 515.42 549.509 515.42C548.212 515.42 547.174 515.206 546.395 514.777C545.615 514.339 545.015 513.844 544.594 513.292C544.174 512.731 543.85 512.267 543.622 511.899H543.254V515H540.259ZM543.307 504.909C543.307 506.433 543.53 507.778 543.977 508.943C544.424 510.099 545.076 511.006 545.935 511.663C546.793 512.311 547.844 512.635 549.088 512.635C550.384 512.635 551.466 512.293 552.333 511.61C553.209 510.918 553.866 509.99 554.304 508.825C554.751 507.651 554.974 506.346 554.974 504.909C554.974 503.49 554.755 502.211 554.317 501.072C553.888 499.925 553.236 499.018 552.36 498.353C551.493 497.678 550.402 497.341 549.088 497.341C547.827 497.341 546.767 497.661 545.908 498.3C545.05 498.931 544.402 499.815 543.964 500.954C543.526 502.084 543.307 503.402 543.307 504.909ZM571.28 515.42C569.336 515.42 567.658 514.991 566.248 514.133C564.846 513.266 563.765 512.057 563.002 510.506C562.249 508.947 561.873 507.134 561.873 505.067C561.873 503 562.249 501.178 563.002 499.601C563.765 498.015 564.824 496.78 566.182 495.896C567.549 495.002 569.143 494.555 570.965 494.555C572.016 494.555 573.054 494.731 574.079 495.081C575.104 495.431 576.037 496.001 576.877 496.789C577.718 497.569 578.388 498.602 578.888 499.89C579.387 501.178 579.637 502.763 579.637 504.646V505.96H564.08V503.28H576.483C576.483 502.141 576.256 501.125 575.8 500.232C575.353 499.338 574.714 498.633 573.882 498.116C573.058 497.599 572.086 497.341 570.965 497.341C569.73 497.341 568.661 497.647 567.759 498.261C566.865 498.865 566.178 499.653 565.696 500.626C565.214 501.598 564.973 502.64 564.973 503.753V505.54C564.973 507.064 565.236 508.356 565.762 509.416C566.296 510.467 567.036 511.268 567.982 511.82C568.928 512.363 570.028 512.635 571.28 512.635C572.095 512.635 572.831 512.521 573.488 512.293C574.153 512.057 574.727 511.706 575.209 511.242C575.691 510.769 576.063 510.182 576.326 509.482L579.321 510.322C579.006 511.339 578.476 512.232 577.732 513.003C576.987 513.765 576.067 514.361 574.972 514.79C573.877 515.21 572.647 515.42 571.28 515.42ZM592.815 515.42C590.871 515.42 589.193 514.991 587.783 514.133C586.382 513.266 585.3 512.057 584.538 510.506C583.784 508.947 583.408 507.134 583.408 505.067C583.408 503 583.784 501.178 584.538 499.601C585.3 498.015 586.36 496.78 587.717 495.896C589.084 495.002 590.678 494.555 592.5 494.555C593.551 494.555 594.589 494.731 595.614 495.081C596.639 495.431 597.572 496.001 598.413 496.789C599.254 497.569 599.924 498.602 600.423 499.89C600.922 501.178 601.172 502.763 601.172 504.646V505.96H585.615V503.28H598.018C598.018 502.141 597.791 501.125 597.335 500.232C596.888 499.338 596.249 498.633 595.417 498.116C594.594 497.599 593.621 497.341 592.5 497.341C591.265 497.341 590.196 497.647 589.294 498.261C588.401 498.865 587.713 499.653 587.231 500.626C586.749 501.598 586.509 502.64 586.509 503.753V505.54C586.509 507.064 586.771 508.356 587.297 509.416C587.831 510.467 588.571 511.268 589.517 511.82C590.463 512.363 591.563 512.635 592.815 512.635C593.63 512.635 594.366 512.521 595.023 512.293C595.688 512.057 596.262 511.706 596.744 511.242C597.226 510.769 597.598 510.182 597.861 509.482L600.857 510.322C600.541 511.339 600.011 512.232 599.267 513.003C598.522 513.765 597.602 514.361 596.507 514.79C595.413 515.21 594.182 515.42 592.815 515.42ZM605.889 515V494.818H608.99V515H605.889ZM607.466 491.455C606.861 491.455 606.34 491.249 605.902 490.837C605.473 490.425 605.258 489.93 605.258 489.352C605.258 488.774 605.473 488.279 605.902 487.868C606.34 487.456 606.861 487.25 607.466 487.25C608.07 487.25 608.587 487.456 609.016 487.868C609.454 488.279 609.673 488.774 609.673 489.352C609.673 489.93 609.454 490.425 609.016 490.837C608.587 491.249 608.07 491.455 607.466 491.455ZM617.77 502.859V515H614.669V494.818H617.665V497.972H617.928C618.401 496.947 619.119 496.123 620.082 495.501C621.046 494.871 622.29 494.555 623.814 494.555C625.18 494.555 626.376 494.836 627.401 495.396C628.426 495.948 629.223 496.789 629.792 497.919C630.362 499.04 630.646 500.459 630.646 502.176V515H627.546V502.386C627.546 500.801 627.134 499.566 626.31 498.681C625.487 497.788 624.357 497.341 622.921 497.341C621.931 497.341 621.046 497.556 620.266 497.985C619.496 498.414 618.887 499.04 618.44 499.864C617.993 500.687 617.77 501.686 617.77 502.859ZM645.3 494.818V497.446H634.421V494.818H645.3ZM637.679 515V492.033C637.679 490.876 637.951 489.913 638.494 489.142C639.037 488.371 639.742 487.793 640.609 487.408C641.476 487.022 642.392 486.83 643.355 486.83C644.117 486.83 644.739 486.891 645.221 487.013C645.703 487.136 646.062 487.25 646.298 487.355L645.405 490.036C645.247 489.983 645.028 489.917 644.748 489.838C644.477 489.76 644.117 489.72 643.671 489.72C642.646 489.72 641.906 489.979 641.45 490.495C641.003 491.012 640.78 491.77 640.78 492.768V515H637.679ZM652.747 488.091V515H649.646V488.091H652.747ZM671.145 506.749V494.818H674.246V515H671.145V511.584H670.934C670.461 512.609 669.726 513.48 668.727 514.199C667.729 514.908 666.467 515.263 664.943 515.263C663.682 515.263 662.56 514.987 661.579 514.435C660.598 513.874 659.827 513.033 659.267 511.912C658.706 510.782 658.426 509.359 658.426 507.642V494.818H661.527V507.432C661.527 508.903 661.939 510.077 662.762 510.953C663.594 511.829 664.654 512.267 665.942 512.267C666.712 512.267 667.496 512.07 668.294 511.676C669.099 511.282 669.774 510.677 670.317 509.863C670.869 509.048 671.145 508.01 671.145 506.749ZM694.22 499.338L691.435 500.126C691.26 499.662 691.001 499.211 690.66 498.773C690.327 498.326 689.871 497.958 689.293 497.669C688.715 497.38 687.975 497.236 687.073 497.236C685.838 497.236 684.808 497.52 683.985 498.09C683.17 498.65 682.763 499.364 682.763 500.232C682.763 501.002 683.043 501.611 683.604 502.058C684.165 502.505 685.041 502.877 686.232 503.175L689.228 503.911C691.032 504.348 692.377 505.019 693.261 505.921C694.146 506.814 694.588 507.966 694.588 509.376C694.588 510.533 694.255 511.566 693.59 512.477C692.933 513.388 692.013 514.107 690.831 514.632C689.648 515.158 688.273 515.42 686.705 515.42C684.646 515.42 682.943 514.974 681.594 514.08C680.245 513.187 679.391 511.882 679.032 510.165L681.975 509.429C682.255 510.515 682.785 511.33 683.565 511.873C684.353 512.416 685.382 512.688 686.652 512.688C688.098 512.688 689.245 512.381 690.095 511.768C690.953 511.146 691.382 510.401 691.382 509.534C691.382 508.833 691.137 508.246 690.647 507.773C690.156 507.292 689.403 506.933 688.387 506.696L685.023 505.908C683.175 505.47 681.817 504.791 680.95 503.871C680.091 502.943 679.662 501.782 679.662 500.389C679.662 499.25 679.982 498.243 680.621 497.367C681.27 496.491 682.15 495.804 683.262 495.304C684.384 494.805 685.654 494.555 687.073 494.555C689.07 494.555 690.638 494.993 691.777 495.869C692.924 496.745 693.739 497.902 694.22 499.338ZM713.551 499.338L710.766 500.126C710.591 499.662 710.332 499.211 709.991 498.773C709.658 498.326 709.202 497.958 708.624 497.669C708.046 497.38 707.306 497.236 706.404 497.236C705.169 497.236 704.139 497.52 703.316 498.09C702.501 498.65 702.094 499.364 702.094 500.232C702.094 501.002 702.374 501.611 702.935 502.058C703.496 502.505 704.372 502.877 705.563 503.175L708.559 503.911C710.363 504.348 711.708 505.019 712.592 505.921C713.477 506.814 713.919 507.966 713.919 509.376C713.919 510.533 713.587 511.566 712.921 512.477C712.264 513.388 711.344 514.107 710.162 514.632C708.979 515.158 707.604 515.42 706.036 515.42C703.977 515.42 702.274 514.974 700.925 514.08C699.576 513.187 698.722 511.882 698.363 510.165L701.306 509.429C701.586 510.515 702.116 511.33 702.896 511.873C703.684 512.416 704.713 512.688 705.983 512.688C707.429 512.688 708.576 512.381 709.426 511.768C710.284 511.146 710.713 510.401 710.713 509.534C710.713 508.833 710.468 508.246 709.978 507.773C709.487 507.292 708.734 506.933 707.718 506.696L704.354 505.908C702.506 505.47 701.148 504.791 700.281 503.871C699.422 502.943 698.993 501.782 698.993 500.389C698.993 499.25 699.313 498.243 699.952 497.367C700.601 496.491 701.481 495.804 702.593 495.304C703.715 494.805 704.985 494.555 706.404 494.555C708.401 494.555 709.969 494.993 711.108 495.869C712.255 496.745 713.07 497.902 713.551 499.338ZM731.306 506.749V494.818H734.407V515H731.306V511.584H731.096C730.623 512.609 729.887 513.48 728.888 514.199C727.89 514.908 726.628 515.263 725.104 515.263C723.843 515.263 722.722 514.987 721.741 514.435C720.759 513.874 719.989 513.033 719.428 511.912C718.867 510.782 718.587 509.359 718.587 507.642V494.818H721.688V507.432C721.688 508.903 722.1 510.077 722.923 510.953C723.755 511.829 724.815 512.267 726.103 512.267C726.874 512.267 727.658 512.07 728.455 511.676C729.261 511.282 729.935 510.677 730.478 509.863C731.03 509.048 731.306 508.01 731.306 506.749ZM743.187 502.859V515H740.086V494.818H743.082V497.972H743.345C743.818 496.947 744.536 496.123 745.499 495.501C746.463 494.871 747.707 494.555 749.231 494.555C750.597 494.555 751.793 494.836 752.818 495.396C753.843 495.948 754.64 496.789 755.209 497.919C755.779 499.04 756.063 500.459 756.063 502.176V515H752.963V502.386C752.963 500.801 752.551 499.566 751.727 498.681C750.904 497.788 749.774 497.341 748.338 497.341C747.348 497.341 746.463 497.556 745.683 497.985C744.913 498.414 744.304 499.04 743.857 499.864C743.41 500.687 743.187 501.686 743.187 502.859ZM769.876 522.989C768.378 522.989 767.09 522.796 766.013 522.411C764.936 522.034 764.038 521.535 763.32 520.913C762.61 520.299 762.045 519.643 761.625 518.942L764.095 517.207C764.375 517.575 764.73 517.996 765.159 518.469C765.588 518.951 766.175 519.367 766.92 519.717C767.673 520.076 768.658 520.256 769.876 520.256C771.505 520.256 772.85 519.862 773.91 519.073C774.97 518.285 775.5 517.05 775.5 515.368V511.268H775.237C775.009 511.636 774.685 512.092 774.264 512.635C773.853 513.169 773.257 513.647 772.478 514.067C771.707 514.479 770.664 514.685 769.35 514.685C767.721 514.685 766.258 514.299 764.962 513.528C763.674 512.758 762.654 511.636 761.9 510.165C761.156 508.693 760.784 506.906 760.784 504.804C760.784 502.737 761.147 500.937 761.874 499.404C762.601 497.862 763.613 496.671 764.909 495.83C766.206 494.98 767.704 494.555 769.403 494.555C770.717 494.555 771.759 494.774 772.53 495.212C773.31 495.642 773.905 496.132 774.317 496.684C774.737 497.227 775.062 497.674 775.289 498.024H775.605V494.818H778.6V515.578C778.6 517.312 778.206 518.723 777.418 519.809C776.638 520.904 775.587 521.705 774.264 522.213C772.951 522.73 771.488 522.989 769.876 522.989ZM769.771 511.899C771.015 511.899 772.066 511.614 772.924 511.045C773.783 510.476 774.435 509.657 774.882 508.588C775.329 507.519 775.552 506.241 775.552 504.751C775.552 503.297 775.333 502.014 774.895 500.902C774.457 499.789 773.809 498.918 772.951 498.287C772.092 497.656 771.032 497.341 769.771 497.341C768.457 497.341 767.362 497.674 766.486 498.339C765.619 499.005 764.966 499.899 764.528 501.02C764.099 502.141 763.884 503.385 763.884 504.751C763.884 506.153 764.103 507.392 764.541 508.47C764.988 509.538 765.645 510.379 766.512 510.993C767.388 511.597 768.474 511.899 769.771 511.899ZM540.259 560V533.091H543.517V545.074H557.865V533.091H561.124V560H557.865V547.964H543.517V560H540.259ZM575.688 560.42C573.744 560.42 572.066 559.991 570.656 559.133C569.255 558.266 568.173 557.057 567.411 555.506C566.657 553.947 566.281 552.134 566.281 550.067C566.281 548 566.657 546.178 567.411 544.601C568.173 543.015 569.233 541.78 570.59 540.896C571.957 540.002 573.551 539.555 575.373 539.555C576.424 539.555 577.462 539.731 578.487 540.081C579.512 540.431 580.445 541.001 581.286 541.789C582.127 542.569 582.797 543.602 583.296 544.89C583.795 546.178 584.045 547.763 584.045 549.646V550.96H568.488V548.28H580.892C580.892 547.141 580.664 546.125 580.208 545.232C579.762 544.338 579.122 543.633 578.29 543.116C577.467 542.599 576.494 542.341 575.373 542.341C574.138 542.341 573.069 542.647 572.167 543.261C571.274 543.865 570.586 544.653 570.104 545.626C569.622 546.598 569.382 547.64 569.382 548.753V550.54C569.382 552.064 569.644 553.356 570.17 554.416C570.704 555.467 571.444 556.268 572.39 556.82C573.336 557.363 574.436 557.635 575.688 557.635C576.503 557.635 577.239 557.521 577.896 557.293C578.561 557.057 579.135 556.706 579.617 556.242C580.099 555.769 580.471 555.182 580.734 554.482L583.73 555.322C583.414 556.339 582.884 557.232 582.14 558.003C581.395 558.765 580.475 559.361 579.381 559.79C578.286 560.21 577.055 560.42 575.688 560.42ZM588.762 560V539.818H591.758V542.866H591.968C592.336 541.868 593.001 541.058 593.965 540.436C594.929 539.814 596.015 539.503 597.224 539.503C597.451 539.503 597.736 539.507 598.078 539.516C598.419 539.525 598.678 539.538 598.853 539.555V542.709C598.748 542.683 598.507 542.643 598.13 542.591C597.762 542.529 597.372 542.499 596.961 542.499C595.98 542.499 595.104 542.704 594.333 543.116C593.571 543.519 592.966 544.08 592.52 544.798C592.082 545.507 591.863 546.318 591.863 547.229V560H588.762ZM601.95 560V557.635L613.408 542.919V542.709H602.318V539.818H617.402V542.288L606.26 556.899V557.109H617.77V560H601.95ZM631.533 539.818V542.446H620.654V539.818H631.533ZM623.913 560V537.033C623.913 535.876 624.184 534.913 624.727 534.142C625.27 533.371 625.975 532.793 626.843 532.408C627.71 532.022 628.625 531.83 629.589 531.83C630.351 531.83 630.973 531.891 631.454 532.013C631.936 532.136 632.295 532.25 632.532 532.355L631.638 535.036C631.481 534.983 631.262 534.917 630.981 534.838C630.71 534.76 630.351 534.72 629.904 534.72C628.879 534.72 628.139 534.979 627.684 535.495C627.237 536.012 627.013 536.77 627.013 537.768V560H623.913ZM635.879 560V539.818H638.875V542.866H639.085C639.453 541.868 640.119 541.058 641.082 540.436C642.046 539.814 643.132 539.503 644.341 539.503C644.568 539.503 644.853 539.507 645.195 539.516C645.536 539.525 645.795 539.538 645.97 539.555V542.709C645.865 542.683 645.624 542.643 645.247 542.591C644.879 542.529 644.49 542.499 644.078 542.499C643.097 542.499 642.221 542.704 641.45 543.116C640.688 543.519 640.084 544.08 639.637 544.798C639.199 545.507 638.98 546.318 638.98 547.229V560H635.879ZM657.493 560.42C655.548 560.42 653.871 559.991 652.461 559.133C651.059 558.266 649.977 557.057 649.215 555.506C648.462 553.947 648.085 552.134 648.085 550.067C648.085 548 648.462 546.178 649.215 544.601C649.977 543.015 651.037 541.78 652.395 540.896C653.762 540.002 655.356 539.555 657.178 539.555C658.229 539.555 659.267 539.731 660.292 540.081C661.317 540.431 662.249 541.001 663.09 541.789C663.931 542.569 664.601 543.602 665.101 544.89C665.6 546.178 665.85 547.763 665.85 549.646V550.96H650.293V548.28H662.696C662.696 547.141 662.468 546.125 662.013 545.232C661.566 544.338 660.927 543.633 660.095 543.116C659.271 542.599 658.299 542.341 657.178 542.341C655.943 542.341 654.874 542.647 653.972 543.261C653.078 543.865 652.391 544.653 651.909 545.626C651.427 546.598 651.186 547.64 651.186 548.753V550.54C651.186 552.064 651.449 553.356 651.975 554.416C652.509 555.467 653.249 556.268 654.195 556.82C655.141 557.363 656.24 557.635 657.493 557.635C658.308 557.635 659.044 557.521 659.7 557.293C660.366 557.057 660.94 556.706 661.422 556.242C661.903 555.769 662.276 555.182 662.539 554.482L665.534 555.322C665.219 556.339 664.689 557.232 663.944 558.003C663.2 558.765 662.28 559.361 661.185 559.79C660.09 560.21 658.86 560.42 657.493 560.42ZM684.336 567.568V556.899H684.074C683.846 557.267 683.522 557.731 683.101 558.292C682.681 558.844 682.081 559.339 681.301 559.777C680.522 560.206 679.484 560.42 678.187 560.42C676.506 560.42 675.021 559.996 673.733 559.146C672.445 558.288 671.438 557.079 670.711 555.52C669.984 553.952 669.621 552.099 669.621 549.962C669.621 547.842 669.984 546.002 670.711 544.443C671.438 542.884 672.45 541.68 673.746 540.83C675.043 539.98 676.541 539.555 678.24 539.555C679.554 539.555 680.592 539.774 681.354 540.212C682.125 540.642 682.712 541.132 683.115 541.684C683.526 542.227 683.846 542.674 684.074 543.024H684.442V539.818H687.437V567.568H684.336ZM678.608 557.635C679.852 557.635 680.903 557.311 681.761 556.663C682.62 556.006 683.272 555.099 683.719 553.943C684.166 552.778 684.389 551.433 684.389 549.909C684.389 548.402 684.17 547.084 683.732 545.954C683.294 544.815 682.646 543.931 681.787 543.3C680.929 542.661 679.869 542.341 678.608 542.341C677.294 542.341 676.199 542.678 675.323 543.353C674.456 544.018 673.803 544.925 673.365 546.072C672.936 547.211 672.721 548.49 672.721 549.909C672.721 551.346 672.94 552.651 673.378 553.825C673.825 554.99 674.482 555.918 675.349 556.61C676.225 557.293 677.311 557.635 678.608 557.635ZM705.832 551.749V539.818H708.933V560H705.832V556.584H705.622C705.149 557.609 704.413 558.48 703.415 559.199C702.416 559.908 701.155 560.263 699.631 560.263C698.369 560.263 697.248 559.987 696.267 559.435C695.286 558.874 694.515 558.033 693.954 556.912C693.394 555.782 693.113 554.359 693.113 552.642V539.818H696.214V552.432C696.214 553.903 696.626 555.077 697.449 555.953C698.282 556.829 699.341 557.267 700.629 557.267C701.4 557.267 702.184 557.07 702.981 556.676C703.787 556.282 704.461 555.677 705.004 554.863C705.556 554.048 705.832 553.01 705.832 551.749ZM723.074 560.42C721.13 560.42 719.452 559.991 718.042 559.133C716.64 558.266 715.559 557.057 714.796 555.506C714.043 553.947 713.666 552.134 713.666 550.067C713.666 548 714.043 546.178 714.796 544.601C715.559 543.015 716.618 541.78 717.976 540.896C719.343 540.002 720.937 539.555 722.759 539.555C723.81 539.555 724.848 539.731 725.873 540.081C726.898 540.431 727.831 541.001 728.671 541.789C729.512 542.569 730.182 543.602 730.682 544.89C731.181 546.178 731.431 547.763 731.431 549.646V550.96H715.874V548.28H728.277C728.277 547.141 728.05 546.125 727.594 545.232C727.147 544.338 726.508 543.633 725.676 543.116C724.852 542.599 723.88 542.341 722.759 542.341C721.524 542.341 720.455 542.647 719.553 543.261C718.659 543.865 717.972 544.653 717.49 545.626C717.008 546.598 716.767 547.64 716.767 548.753V550.54C716.767 552.064 717.03 553.356 717.556 554.416C718.09 555.467 718.83 556.268 719.776 556.82C720.722 557.363 721.822 557.635 723.074 557.635C723.889 557.635 724.625 557.521 725.282 557.293C725.947 557.057 726.521 556.706 727.003 556.242C727.485 555.769 727.857 555.182 728.12 554.482L731.115 555.322C730.8 556.339 730.27 557.232 729.525 558.003C728.781 558.765 727.861 559.361 726.766 559.79C725.671 560.21 724.441 560.42 723.074 560.42ZM739.248 547.859V560H736.148V539.818H739.143V542.972H739.406C739.879 541.947 740.597 541.123 741.561 540.501C742.525 539.871 743.768 539.555 745.293 539.555C746.659 539.555 747.855 539.836 748.88 540.396C749.904 540.948 750.701 541.789 751.271 542.919C751.84 544.04 752.125 545.459 752.125 547.176V560H749.024V547.386C749.024 545.801 748.612 544.566 747.789 543.681C746.966 542.788 745.836 542.341 744.399 542.341C743.409 542.341 742.525 542.556 741.745 542.985C740.974 543.414 740.365 544.04 739.919 544.864C739.472 545.687 739.248 546.686 739.248 547.859ZM757.213 560V557.635L768.67 542.919V542.709H757.581V539.818H772.665V542.288L761.523 556.899V557.109H773.033V560H757.213Z" fill="white"/>
<path d="M512.405 481.5C513.786 481.5 514.905 480.381 514.905 479C514.905 477.619 513.786 476.5 512.405 476.5V481.5ZM446.637 477.232C445.661 478.209 445.661 479.791 446.637 480.768L462.547 496.678C463.523 497.654 465.106 497.654 466.083 496.678C467.059 495.701 467.059 494.118 466.083 493.142L451.941 479L466.083 464.858C467.059 463.882 467.059 462.299 466.083 461.322C465.106 460.346 463.523 460.346 462.547 461.322L446.637 477.232ZM512.405 476.5H448.405V481.5H512.405V476.5Z" fill="white"/>
</svg>
